{"glyphs":{"0":{"ha":704,"x_min":39,"x_max":666,"o":"m 666 442 q 649 252 666 337 q 594 108 632 168 q 494 16 555 48 q 344 -16 433 -16 q 195 15 254 -16 q 101 104 136 46 q 53 246 66 162 q 39 435 39 330 q 56 625 39 540 q 112 770 73 710 q 211 861 150 829 q 361 893 273 893 q 510 862 451 893 q 604 773 570 831 q 652 632 639 715 q 666 442 666 548 m 486 433 q 483 544 486 496 q 472 627 479 591 q 455 686 465 662 q 429 725 444 711 q 395 746 414 740 q 353 752 376 752 q 287 733 313 752 q 246 675 261 713 q 224 578 231 636 q 218 444 218 521 q 226 289 218 351 q 249 192 233 228 q 290 141 265 155 q 351 126 315 126 q 397 135 377 126 q 433 160 418 143 q 458 203 448 177 q 475 262 469 229 q 484 339 481 296 q 486 433 486 382 z "},"1":{"ha":704,"x_min":100,"x_max":640,"o":"m 640 68 q 638 36 640 49 q 632 15 636 22 q 624 3 629 7 q 613 0 619 0 l 129 0 q 119 3 123 0 q 110 15 114 7 q 104 36 106 22 q 102 68 102 49 q 104 101 102 87 q 110 122 106 114 q 118 134 113 130 q 129 138 123 138 l 292 138 l 292 709 l 151 631 q 126 622 136 623 q 110 626 116 620 q 102 646 104 631 q 100 686 100 660 q 101 712 100 702 q 104 730 102 723 q 112 743 107 738 q 125 753 117 747 l 313 875 q 322 879 317 878 q 335 882 327 881 q 356 883 343 883 q 391 884 370 884 q 432 883 416 884 q 456 879 448 882 q 467 873 465 877 q 470 863 470 869 l 470 138 l 613 138 q 624 134 619 138 q 633 122 629 130 q 638 101 637 114 q 640 68 640 87 z "},"2":{"ha":704,"x_min":60,"x_max":648,"o":"m 648 73 q 647 39 648 53 q 642 16 645 25 q 633 4 638 7 q 621 0 627 0 l 116 0 q 90 3 101 0 q 73 13 79 5 q 63 36 66 21 q 60 75 60 51 q 62 113 60 97 q 69 141 64 129 q 83 166 75 154 q 105 192 92 178 l 257 355 q 330 441 302 402 q 374 512 358 480 q 395 572 389 545 q 401 623 401 599 q 394 666 401 646 q 373 701 387 686 q 338 724 359 715 q 288 732 317 732 q 217 722 248 732 q 163 700 186 712 q 124 676 140 687 q 100 666 109 666 q 89 670 94 666 q 82 684 85 674 q 78 709 79 693 q 76 748 76 725 q 77 774 76 764 q 80 792 78 785 q 85 806 82 800 q 97 820 89 812 q 129 841 106 828 q 184 865 151 853 q 258 885 218 877 q 341 893 298 893 q 461 876 410 893 q 546 828 512 859 q 596 754 580 797 q 613 663 613 712 q 605 579 613 621 q 571 490 597 538 q 498 384 545 442 q 374 250 452 326 l 272 144 l 618 144 q 630 140 625 144 q 640 128 636 136 q 646 105 644 119 q 648 73 648 92 z "},"3":{"ha":704,"x_min":58,"x_max":644,"o":"m 644 257 q 619 140 644 191 q 549 55 594 90 q 442 2 505 20 q 306 -16 380 -16 q 222 -9 261 -16 q 152 7 182 -3 q 102 26 122 16 q 77 42 83 37 q 67 54 71 47 q 62 70 64 61 q 59 93 60 79 q 58 127 58 107 q 63 172 58 159 q 79 184 68 184 q 103 175 86 184 q 145 156 119 166 q 205 136 171 145 q 284 127 240 127 q 350 136 321 127 q 398 160 378 144 q 428 199 418 176 q 438 250 438 222 q 426 304 438 280 q 391 346 414 329 q 332 373 368 363 q 248 382 296 382 l 172 382 q 157 385 163 382 q 147 395 151 387 q 141 415 143 402 q 140 450 140 429 q 141 482 140 469 q 147 501 143 494 q 156 511 151 508 q 170 513 162 513 l 247 513 q 317 523 286 513 q 368 549 347 532 q 399 590 389 566 q 410 643 410 614 q 403 685 410 665 q 381 720 395 705 q 343 743 366 734 q 289 751 320 751 q 222 741 254 751 q 166 718 191 730 q 124 694 142 705 q 99 684 107 684 q 90 686 94 684 q 83 695 85 688 q 79 715 80 702 q 77 748 77 728 q 78 776 77 765 q 81 795 79 787 q 86 808 83 802 q 96 820 89 813 q 123 839 102 826 q 176 864 144 852 q 250 885 208 876 q 340 893 292 893 q 453 878 404 893 q 536 835 503 863 q 587 766 570 807 q 604 673 604 725 q 594 599 604 633 q 564 537 584 564 q 515 491 545 510 q 447 463 486 472 l 447 460 q 530 437 493 455 q 592 392 566 419 q 631 331 617 365 q 644 257 644 296 z "},"4":{"ha":704,"x_min":24,"x_max":675,"o":"m 675 252 q 668 200 675 218 q 649 182 661 182 l 571 182 l 571 23 q 567 11 571 16 q 553 3 563 6 q 526 -2 543 -1 q 484 -4 510 -4 q 443 -2 460 -4 q 417 3 427 -1 q 403 11 407 6 q 399 23 399 16 l 399 182 l 64 182 q 47 184 54 182 q 34 195 39 186 q 27 219 29 203 q 24 262 24 235 q 25 299 24 283 q 29 328 26 315 q 36 353 31 341 q 47 377 40 364 l 319 858 q 331 868 323 864 q 354 876 339 873 q 391 880 368 879 q 445 882 413 882 q 504 880 479 882 q 543 874 528 878 q 564 865 557 871 q 571 852 571 860 l 571 324 l 649 324 q 668 308 660 324 q 675 252 675 291 m 399 728 l 398 728 l 167 324 l 399 324 l 399 728 z "},"5":{"ha":704,"x_min":65,"x_max":640,"o":"m 640 285 q 615 158 640 214 q 546 63 591 102 q 437 5 500 25 q 296 -16 374 -16 q 219 -11 256 -16 q 153 2 182 -5 q 105 18 124 10 q 81 31 87 26 q 73 42 75 36 q 68 57 70 48 q 66 78 66 65 q 65 109 65 91 q 66 141 65 127 q 71 162 68 154 q 78 174 74 170 q 87 177 82 177 q 108 169 94 177 q 145 152 122 161 q 200 135 168 142 q 278 127 233 127 q 350 135 317 127 q 404 161 382 143 q 439 206 427 179 q 451 271 451 233 q 441 329 451 304 q 409 372 431 355 q 353 399 387 390 q 269 408 318 408 q 197 404 229 408 q 136 399 165 399 q 108 409 117 399 q 100 446 100 419 l 100 827 q 110 866 100 854 q 144 878 121 878 l 559 878 q 571 873 566 878 q 580 861 576 869 q 586 837 584 852 q 587 802 587 823 q 580 743 587 762 q 559 725 573 725 l 248 725 l 248 537 q 295 541 271 540 q 344 541 318 541 q 470 525 415 541 q 563 476 526 508 q 621 396 601 444 q 640 285 640 348 z "},"6":{"ha":704,"x_min":57,"x_max":662,"o":"m 662 293 q 642 170 662 227 q 582 72 621 113 q 485 8 543 31 q 352 -16 427 -16 q 245 -2 291 -16 q 167 38 200 12 q 113 102 134 64 q 79 186 92 139 q 62 288 66 233 q 57 404 57 342 q 62 512 57 456 q 82 623 67 568 q 123 726 96 677 q 191 812 149 775 q 292 871 233 849 q 433 892 351 892 q 485 889 458 892 q 533 882 511 886 q 571 871 555 877 q 592 860 587 865 q 600 850 597 856 q 604 839 602 845 q 606 823 606 832 q 607 800 607 813 q 606 765 607 779 q 602 743 605 751 q 595 732 600 735 q 583 728 590 728 q 562 733 575 728 q 531 743 549 737 q 488 752 513 748 q 431 756 463 756 q 338 736 376 756 q 276 681 300 715 q 241 600 252 646 q 230 502 231 553 q 264 521 245 511 q 306 537 283 530 q 355 548 329 544 q 412 553 382 553 q 526 534 478 553 q 603 482 573 516 q 648 400 633 448 q 662 293 662 352 m 487 276 q 481 337 487 311 q 461 381 475 363 q 425 408 448 399 q 371 417 403 417 q 334 414 352 417 q 298 404 315 410 q 264 390 280 398 q 233 372 248 381 q 241 251 233 299 q 266 174 250 202 q 306 133 281 145 q 361 121 330 121 q 416 133 393 121 q 455 165 439 144 q 479 215 471 186 q 487 276 487 243 z "},"7":{"ha":704,"x_min":55,"x_max":648,"o":"m 648 802 q 646 768 648 783 q 643 741 645 753 q 636 717 640 728 q 627 693 632 706 l 338 24 q 327 9 334 15 q 309 1 321 4 q 280 -3 298 -2 q 235 -4 262 -4 q 178 -2 199 -4 q 148 6 157 1 q 137 19 138 11 q 142 38 136 26 l 452 723 l 83 723 q 62 742 69 723 q 55 801 55 760 q 57 836 55 821 q 63 860 59 850 q 72 873 66 869 q 83 878 77 878 l 605 878 q 625 875 617 878 q 638 865 633 873 q 645 842 643 857 q 648 802 648 827 z "},"8":{"ha":704,"x_min":41,"x_max":662,"o":"m 662 235 q 641 129 662 176 q 580 50 621 82 q 480 1 540 18 q 342 -16 420 -16 q 212 -1 268 -16 q 117 43 155 14 q 60 114 79 72 q 41 212 41 157 q 53 282 41 249 q 86 343 64 315 q 141 396 108 371 q 216 443 174 420 q 154 484 182 462 q 106 532 126 506 q 77 589 87 558 q 66 657 66 621 q 85 753 66 710 q 141 828 104 796 q 233 876 178 859 q 362 893 289 893 q 487 878 435 893 q 572 833 538 862 q 621 765 605 805 q 637 677 637 726 q 626 615 637 646 q 597 558 616 585 q 550 507 578 531 q 487 463 522 483 q 561 417 528 441 q 616 365 593 393 q 650 304 638 336 q 662 235 662 273 m 465 661 q 458 704 465 685 q 437 736 452 723 q 401 756 422 749 q 351 763 380 763 q 266 737 294 763 q 238 665 238 711 q 245 625 238 643 q 267 590 252 606 q 306 558 282 574 q 362 525 330 543 q 438 587 412 554 q 465 661 465 621 m 486 223 q 477 269 486 248 q 451 308 469 290 q 406 343 433 326 q 342 378 378 360 q 288 344 311 361 q 248 308 264 327 q 225 269 233 290 q 217 224 217 248 q 251 144 217 172 q 353 116 286 116 q 453 144 420 116 q 486 223 486 173 z "},"9":{"ha":704,"x_min":45,"x_max":650,"o":"m 650 479 q 645 368 650 425 q 624 256 640 311 q 582 151 609 201 q 513 65 555 102 q 410 6 471 28 q 267 -16 349 -16 q 209 -12 237 -16 q 156 -1 180 -7 q 116 12 132 5 q 92 25 99 18 q 81 46 84 33 q 77 84 77 60 q 78 120 77 106 q 82 141 79 134 q 90 151 85 149 q 100 153 94 153 q 123 149 109 153 q 160 138 138 144 q 208 127 181 132 q 269 122 235 122 q 365 142 326 122 q 429 197 404 163 q 465 277 453 232 q 477 373 476 323 q 402 339 446 353 q 301 324 358 324 q 182 342 231 324 q 103 395 134 361 q 59 479 73 430 q 45 591 45 529 q 64 712 45 657 q 123 808 84 768 q 219 871 161 848 q 353 893 277 893 q 459 879 414 893 q 538 838 505 865 q 593 774 571 812 q 628 690 615 736 q 645 591 640 644 q 650 479 650 537 m 473 503 q 465 625 473 576 q 441 703 457 673 q 400 744 425 732 q 343 756 376 756 q 288 745 311 756 q 250 713 265 734 q 227 665 235 693 q 220 604 220 637 q 226 541 220 568 q 247 495 233 513 q 283 469 260 477 q 337 460 305 460 q 411 472 376 460 q 473 503 446 484 z "},"\u0000":{"ha":0,"x_min":0,"x_max":0,"o":""},"\r":{"ha":0,"x_min":0,"x_max":0,"o":""}," ":{"ha":314,"x_min":0,"x_max":0,"o":""},"A":{"ha":842,"x_min":16,"x_max":827,"o":"m 814 66 q 825 28 823 42 q 819 6 827 14 q 793 -2 812 -1 q 741 -4 774 -4 q 687 -3 706 -4 q 657 1 667 -2 q 643 9 647 4 q 636 24 639 15 l 577 200 l 248 200 l 192 28 q 185 13 189 19 q 171 2 180 6 q 143 -3 161 -1 q 96 -4 125 -4 q 47 -2 64 -4 q 22 8 29 0 q 18 30 16 16 q 28 68 20 44 l 298 846 q 308 865 302 858 q 325 876 313 872 q 358 881 337 880 q 414 882 379 882 q 477 881 454 882 q 514 876 501 880 q 533 865 528 872 q 543 844 539 857 l 814 66 m 412 710 l 411 710 l 287 337 l 536 337 l 412 710 z "},"À":{"ha":842,"x_min":16,"x_max":827,"o":"m 814 66 q 825 28 823 42 q 819 6 827 14 q 793 -2 812 -1 q 741 -4 774 -4 q 687 -3 706 -4 q 657 1 667 -2 q 643 9 647 4 q 636 24 639 15 l 577 200 l 248 200 l 192 28 q 185 13 189 19 q 171 2 180 6 q 143 -3 161 -1 q 96 -4 125 -4 q 47 -2 64 -4 q 22 8 29 0 q 18 30 16 16 q 28 68 20 44 l 298 846 q 308 865 302 858 q 325 876 313 872 q 358 881 337 880 q 414 882 379 882 q 477 881 454 882 q 514 876 501 880 q 533 865 528 872 q 543 844 539 857 l 814 66 m 412 710 l 411 710 l 287 337 l 536 337 l 412 710 m 475 976 q 484 960 482 966 q 479 948 486 953 q 460 942 473 944 q 423 940 446 940 q 388 941 402 940 q 363 946 374 943 q 346 953 353 949 q 332 964 339 958 l 182 1099 q 169 1116 172 1108 q 172 1131 165 1124 q 196 1141 178 1137 q 244 1145 213 1145 q 286 1144 269 1145 q 314 1140 302 1143 q 335 1131 326 1137 q 353 1114 344 1124 l 475 976 m 98 878 z "},"Á":{"ha":842,"x_min":16,"x_max":827,"o":"m 814 66 q 825 28 823 42 q 819 6 827 14 q 793 -2 812 -1 q 741 -4 774 -4 q 687 -3 706 -4 q 657 1 667 -2 q 643 9 647 4 q 636 24 639 15 l 577 200 l 248 200 l 192 28 q 185 13 189 19 q 171 2 180 6 q 143 -3 161 -1 q 96 -4 125 -4 q 47 -2 64 -4 q 22 8 29 0 q 18 30 16 16 q 28 68 20 44 l 298 846 q 308 865 302 858 q 325 876 313 872 q 358 881 337 880 q 414 882 379 882 q 477 881 454 882 q 514 876 501 880 q 533 865 528 872 q 543 844 539 857 l 814 66 m 412 710 l 411 710 l 287 337 l 536 337 l 412 710 m 458 1114 q 476 1131 467 1124 q 496 1140 484 1137 q 525 1144 508 1143 q 567 1145 542 1145 q 615 1141 598 1145 q 639 1131 633 1137 q 642 1116 646 1124 q 629 1099 639 1108 l 479 964 q 465 953 472 958 q 448 946 458 949 q 423 941 437 943 q 388 940 409 940 q 351 942 365 940 q 331 948 337 944 q 327 960 326 953 q 336 976 328 966 l 458 1114 m 257 878 z "},"Â":{"ha":842,"x_min":16,"x_max":827,"o":"m 814 66 q 825 28 823 42 q 819 6 827 14 q 793 -2 812 -1 q 741 -4 774 -4 q 687 -3 706 -4 q 657 1 667 -2 q 643 9 647 4 q 636 24 639 15 l 577 200 l 248 200 l 192 28 q 185 13 189 19 q 171 2 180 6 q 143 -3 161 -1 q 96 -4 125 -4 q 47 -2 64 -4 q 22 8 29 0 q 18 30 16 16 q 28 68 20 44 l 298 846 q 308 865 302 858 q 325 876 313 872 q 358 881 337 880 q 414 882 379 882 q 477 881 454 882 q 514 876 501 880 q 533 865 528 872 q 543 844 539 857 l 814 66 m 412 710 l 411 710 l 287 337 l 536 337 l 412 710 m 425 1145 q 461 1145 446 1145 q 486 1141 476 1144 q 505 1133 496 1138 q 522 1118 513 1127 l 656 972 q 666 957 665 963 q 662 946 668 950 q 642 941 656 943 q 604 940 628 940 q 559 941 576 940 q 531 944 541 942 q 514 951 520 947 q 503 961 509 955 l 423 1054 l 340 963 q 329 951 334 956 q 312 945 323 947 q 285 941 302 942 q 239 940 268 940 q 203 942 216 940 q 183 947 189 943 q 179 957 178 951 q 189 972 180 963 l 321 1118 q 337 1132 328 1126 q 358 1140 346 1137 q 386 1144 370 1143 q 425 1145 402 1145 m 110 878 z "},"Ã":{"ha":842,"x_min":16,"x_max":827,"o":"m 814 66 q 825 28 823 42 q 819 6 827 14 q 793 -2 812 -1 q 741 -4 774 -4 q 687 -3 706 -4 q 657 1 667 -2 q 643 9 647 4 q 636 24 639 15 l 577 200 l 248 200 l 192 28 q 185 13 189 19 q 171 2 180 6 q 143 -3 161 -1 q 96 -4 125 -4 q 47 -2 64 -4 q 22 8 29 0 q 18 30 16 16 q 28 68 20 44 l 298 846 q 308 865 302 858 q 325 876 313 872 q 358 881 337 880 q 414 882 379 882 q 477 881 454 882 q 514 876 501 880 q 533 865 528 872 q 543 844 539 857 l 814 66 m 412 710 l 411 710 l 287 337 l 536 337 l 412 710 m 562 1109 q 573 1124 562 1120 q 615 1127 585 1127 q 656 1122 646 1127 q 667 1101 667 1117 q 628 983 667 1023 q 518 942 590 942 q 453 952 479 942 q 405 976 426 963 q 367 999 384 988 q 329 1009 349 1009 q 296 996 306 1009 q 286 960 286 983 q 283 950 286 954 q 273 945 280 947 q 257 943 267 943 q 233 942 247 942 q 192 947 202 942 q 181 968 181 952 q 191 1036 181 1006 q 221 1086 201 1066 q 268 1117 240 1106 q 330 1127 295 1127 q 395 1117 368 1127 q 443 1093 422 1106 q 481 1070 463 1080 q 519 1059 498 1059 q 550 1070 538 1059 q 562 1109 562 1082 m 113 878 z "},"Ä":{"ha":842,"x_min":16,"x_max":827,"o":"m 814 66 q 825 28 823 42 q 819 6 827 14 q 793 -2 812 -1 q 741 -4 774 -4 q 687 -3 706 -4 q 657 1 667 -2 q 643 9 647 4 q 636 24 639 15 l 577 200 l 248 200 l 192 28 q 185 13 189 19 q 171 2 180 6 q 143 -3 161 -1 q 96 -4 125 -4 q 47 -2 64 -4 q 22 8 29 0 q 18 30 16 16 q 28 68 20 44 l 298 846 q 308 865 302 858 q 325 876 313 872 q 358 881 337 880 q 414 882 379 882 q 477 881 454 882 q 514 876 501 880 q 533 865 528 872 q 543 844 539 857 l 814 66 m 412 710 l 411 710 l 287 337 l 536 337 l 412 710 m 364 1040 q 346 974 364 993 q 275 955 327 955 q 204 973 222 955 q 186 1038 186 991 q 205 1104 186 1086 q 275 1123 224 1123 q 346 1105 328 1123 q 364 1040 364 1087 m 661 1040 q 642 974 661 993 q 570 955 623 955 q 500 973 518 955 q 482 1038 482 991 q 501 1104 482 1086 q 572 1123 519 1123 q 642 1105 624 1123 q 661 1040 661 1087 m 117 878 z "},"Ā":{"ha":842,"x_min":16,"x_max":827,"o":"m 814 66 q 825 28 823 42 q 819 6 827 14 q 793 -2 812 -1 q 741 -4 774 -4 q 687 -3 706 -4 q 657 1 667 -2 q 643 9 647 4 q 636 24 639 15 l 577 200 l 248 200 l 192 28 q 185 13 189 19 q 171 2 180 6 q 143 -3 161 -1 q 96 -4 125 -4 q 47 -2 64 -4 q 22 8 29 0 q 18 30 16 16 q 28 68 20 44 l 298 846 q 308 865 302 858 q 325 876 313 872 q 358 881 337 880 q 414 882 379 882 q 477 881 454 882 q 514 876 501 880 q 533 865 528 872 q 543 844 539 857 l 814 66 m 412 710 l 411 710 l 287 337 l 536 337 l 412 710 m 625 1096 q 637 1093 632 1096 q 646 1082 642 1089 q 650 1063 649 1075 q 652 1033 652 1050 q 650 1003 652 1015 q 646 984 649 991 q 637 974 642 977 q 625 970 632 970 l 224 970 q 211 974 216 970 q 201 984 205 977 q 196 1003 198 991 q 195 1033 195 1015 q 196 1062 195 1050 q 201 1082 198 1074 q 211 1093 205 1089 q 224 1096 216 1096 l 625 1096 m 125 878 z "},"Ă":{"ha":842,"x_min":16,"x_max":827,"o":"m 814 66 q 825 28 823 42 q 819 6 827 14 q 793 -2 812 -1 q 741 -4 774 -4 q 687 -3 706 -4 q 657 1 667 -2 q 643 9 647 4 q 636 24 639 15 l 577 200 l 248 200 l 192 28 q 185 13 189 19 q 171 2 180 6 q 143 -3 161 -1 q 96 -4 125 -4 q 47 -2 64 -4 q 22 8 29 0 q 18 30 16 16 q 28 68 20 44 l 298 846 q 308 865 302 858 q 325 876 313 872 q 358 881 337 880 q 414 882 379 882 q 477 881 454 882 q 514 876 501 880 q 533 865 528 872 q 543 844 539 857 l 814 66 m 412 710 l 411 710 l 287 337 l 536 337 l 412 710 m 627 1126 q 614 1049 627 1084 q 575 990 601 1015 q 511 953 549 966 q 422 940 473 940 q 331 954 370 940 q 268 991 293 967 q 232 1050 243 1015 q 220 1126 220 1084 q 232 1145 220 1140 q 277 1151 243 1151 q 322 1146 309 1151 q 337 1129 336 1141 q 343 1100 338 1118 q 360 1071 349 1082 q 386 1054 370 1060 q 424 1048 401 1048 q 472 1060 453 1048 q 499 1088 490 1071 q 510 1121 508 1105 q 523 1144 511 1138 q 567 1151 534 1151 q 614 1145 602 1151 q 627 1126 627 1140 m 151 878 z "},"Å":{"ha":842,"x_min":16,"x_max":827,"o":"m 814 66 q 825 28 823 42 q 819 6 827 14 q 793 -2 812 -1 q 741 -4 774 -4 q 687 -3 706 -4 q 657 1 667 -2 q 643 9 647 4 q 636 24 639 15 l 577 200 l 248 200 l 192 28 q 185 13 189 19 q 171 2 180 6 q 143 -3 161 -1 q 96 -4 125 -4 q 47 -2 64 -4 q 22 8 29 0 q 18 30 16 16 q 28 68 20 44 l 298 846 q 308 865 302 858 q 325 876 313 872 q 358 881 337 880 q 414 882 379 882 q 477 881 454 882 q 514 876 501 880 q 533 865 528 872 q 543 844 539 857 l 814 66 m 412 710 l 411 710 l 287 337 l 536 337 l 412 710 m 585 1057 q 573 998 585 1024 q 542 955 562 972 q 490 928 521 938 q 420 919 459 919 q 350 928 380 919 q 301 954 321 937 q 272 995 281 970 q 262 1052 262 1020 q 273 1110 262 1084 q 304 1153 283 1135 q 356 1180 326 1171 q 425 1189 386 1189 q 544 1155 504 1189 q 585 1057 585 1122 m 481 1053 q 467 1096 481 1080 q 422 1112 454 1112 q 380 1097 394 1112 q 366 1055 366 1082 q 379 1011 366 1027 q 425 996 393 996 q 467 1011 453 996 q 481 1053 481 1027 m 193 878 z "},"Ǻ":{"ha":842,"x_min":16,"x_max":827,"o":"m 814 66 q 825 28 823 42 q 819 6 827 14 q 793 -2 812 -1 q 741 -4 774 -4 q 687 -3 706 -4 q 657 1 667 -2 q 643 9 647 4 q 636 24 639 15 l 577 200 l 248 200 l 192 28 q 185 13 189 19 q 171 2 180 6 q 143 -3 161 -1 q 96 -4 125 -4 q 47 -2 64 -4 q 22 8 29 0 q 18 30 16 16 q 28 68 20 44 l 298 846 q 308 865 302 858 q 325 876 313 872 q 358 881 337 880 q 414 882 379 882 q 477 881 454 882 q 514 876 501 880 q 533 865 528 872 q 543 844 539 857 l 814 66 m 412 710 l 411 710 l 287 337 l 536 337 l 412 710 m 412 1299 q 426 1310 419 1305 q 443 1318 433 1315 q 467 1321 453 1320 q 501 1322 481 1322 q 548 1319 531 1322 q 572 1312 565 1316 q 578 1301 580 1307 q 571 1291 577 1295 l 432 1183 q 420 1174 426 1178 q 405 1168 414 1171 q 385 1164 397 1166 q 355 1163 374 1163 q 320 1165 333 1163 q 301 1170 307 1166 q 297 1180 296 1174 q 307 1193 299 1185 l 412 1299 m 567 1028 q 556 978 567 1000 q 526 941 546 956 q 477 917 506 925 q 410 908 448 908 q 343 916 372 908 q 295 938 315 924 q 266 975 276 953 q 256 1023 256 996 q 267 1073 256 1051 q 297 1111 277 1095 q 347 1135 317 1126 q 414 1143 376 1143 q 480 1135 452 1143 q 528 1113 509 1128 q 557 1077 547 1098 q 567 1028 567 1055 m 468 1024 q 465 1045 468 1036 q 454 1061 461 1055 q 436 1072 447 1068 q 410 1076 425 1076 q 370 1063 383 1076 q 356 1027 356 1050 q 359 1005 356 1015 q 369 989 362 996 q 387 978 376 982 q 413 975 397 975 q 437 978 427 975 q 454 988 447 981 q 464 1004 460 995 q 468 1024 468 1013 m 191 878 z "},"Ą":{"ha":842,"x_min":16,"x_max":838,"o":"m 838 -176 q 836 -200 838 -191 q 831 -216 835 -210 q 822 -227 828 -222 q 799 -236 817 -231 q 767 -243 781 -241 q 738 -247 753 -245 q 703 -248 722 -248 q 639 -241 668 -248 q 589 -222 610 -235 q 556 -187 568 -208 q 545 -136 545 -166 q 548 -112 545 -124 q 557 -85 551 -99 q 575 -57 564 -72 q 604 -24 587 -42 l 640 11 l 577 200 l 248 200 l 192 28 q 185 13 189 19 q 171 2 180 6 q 143 -3 161 -1 q 96 -4 125 -4 q 47 -2 64 -4 q 22 8 29 0 q 18 30 16 16 q 28 68 20 44 l 298 846 q 308 865 302 858 q 325 876 313 872 q 358 881 337 880 q 414 882 379 882 q 477 881 454 882 q 514 876 501 880 q 533 865 528 872 q 543 844 539 858 l 809 79 q 817 51 814 62 q 817 30 819 40 q 805 8 814 20 q 779 -20 796 -3 l 742 -58 q 722 -82 728 -72 q 716 -104 716 -93 q 727 -125 716 -119 q 764 -132 739 -132 l 814 -132 q 832 -141 827 -132 q 838 -176 838 -149 m 412 710 l 411 710 l 287 337 l 536 337 l 412 710 z "},"Æ":{"ha":1077,"x_min":-31,"x_max":1013,"o":"m 1013 70 q 1011 37 1013 50 q 1006 16 1010 24 q 998 4 1003 7 q 987 0 994 0 l 547 0 q 510 13 525 0 q 495 56 495 26 l 495 191 l 231 191 l 151 28 q 141 12 146 18 q 125 2 136 5 q 96 -3 114 -1 q 47 -4 77 -4 q 10 -3 25 -4 q -14 0 -5 -3 q -27 7 -23 3 q -31 20 -31 12 q -27 38 -31 27 q -14 68 -23 50 l 372 841 q 384 860 378 853 q 403 871 391 867 q 437 877 416 876 q 492 878 458 878 l 984 878 q 995 874 990 878 q 1004 862 1000 871 q 1009 841 1007 854 q 1010 807 1010 827 q 1009 775 1010 788 q 1004 753 1007 762 q 995 742 1000 745 q 984 738 990 738 l 671 738 l 671 523 l 936 523 q 948 519 943 523 q 956 508 953 516 q 961 487 960 500 q 963 454 963 473 q 961 421 963 435 q 956 400 960 408 q 948 389 953 392 q 936 385 943 385 l 671 385 l 671 140 l 987 140 q 998 136 994 140 q 1006 124 1003 132 q 1011 103 1010 116 q 1013 70 1013 90 m 495 738 l 492 738 l 286 327 l 495 327 l 495 738 z "},"Ǽ":{"ha":1077,"x_min":-31,"x_max":1013,"o":"m 1013 70 q 1011 37 1013 50 q 1006 16 1010 24 q 998 4 1003 7 q 987 0 994 0 l 547 0 q 510 13 525 0 q 495 56 495 26 l 495 191 l 231 191 l 151 28 q 141 12 146 18 q 125 2 136 5 q 96 -3 114 -1 q 47 -4 77 -4 q 10 -3 25 -4 q -14 0 -5 -3 q -27 7 -23 3 q -31 20 -31 12 q -27 38 -31 27 q -14 68 -23 50 l 372 841 q 384 860 378 853 q 403 871 391 867 q 437 877 416 876 q 492 878 458 878 l 984 878 q 995 874 990 878 q 1004 862 1000 871 q 1009 841 1007 854 q 1010 807 1010 827 q 1009 775 1010 788 q 1004 753 1007 762 q 995 742 1000 745 q 984 738 990 738 l 671 738 l 671 523 l 936 523 q 948 519 943 523 q 956 508 953 516 q 961 487 960 500 q 963 454 963 473 q 961 421 963 435 q 956 400 960 408 q 948 389 953 392 q 936 385 943 385 l 671 385 l 671 140 l 987 140 q 998 136 994 140 q 1006 124 1003 132 q 1011 103 1010 116 q 1013 70 1013 90 m 495 738 l 492 738 l 286 327 l 495 327 l 495 738 m 648 1114 q 665 1131 656 1124 q 685 1140 673 1137 q 714 1144 697 1143 q 756 1145 731 1145 q 805 1141 787 1145 q 828 1131 822 1137 q 831 1116 835 1124 q 819 1099 828 1108 l 668 964 q 654 953 661 958 q 637 946 647 949 q 612 941 627 943 q 577 940 598 940 q 540 942 554 940 q 520 948 526 944 q 516 960 515 953 q 526 976 517 966 l 648 1114 m 446 878 z "},"B":{"ha":779,"x_min":96,"x_max":731,"o":"m 731 263 q 718 178 731 216 q 683 111 705 140 q 628 61 660 82 q 559 26 597 40 q 478 6 521 13 q 382 0 435 0 l 149 0 q 111 13 126 0 q 96 56 96 26 l 96 821 q 111 864 96 851 q 149 878 126 878 l 369 878 q 506 864 450 878 q 600 823 562 850 q 659 753 638 795 q 679 654 679 711 q 671 594 679 623 q 647 543 663 566 q 609 503 631 520 q 557 474 586 485 q 626 450 594 467 q 681 407 657 433 q 718 344 704 380 q 731 263 731 308 m 500 633 q 492 680 500 659 q 468 715 484 701 q 427 736 452 729 q 361 744 402 744 l 271 744 l 271 516 l 370 516 q 432 525 409 516 q 470 550 455 534 q 493 588 486 566 q 500 633 500 609 m 546 257 q 536 312 546 288 q 506 352 526 336 q 456 377 486 368 q 376 386 425 386 l 271 386 l 271 136 l 399 136 q 462 144 437 136 q 506 167 488 152 q 535 205 525 182 q 546 257 546 228 z "},"C":{"ha":735,"x_min":54,"x_max":703,"o":"m 703 133 q 702 104 703 116 q 699 84 701 92 q 693 69 696 75 q 682 55 690 63 q 653 35 675 47 q 601 12 632 23 q 531 -7 570 1 q 445 -14 491 -14 q 282 14 355 -14 q 159 97 210 41 q 81 235 108 152 q 54 427 54 317 q 83 626 54 539 q 167 772 113 713 q 295 861 220 831 q 460 892 370 892 q 531 886 497 892 q 594 870 565 880 q 646 847 623 860 q 678 825 669 834 q 690 810 687 816 q 696 794 694 804 q 699 772 698 785 q 700 740 700 759 q 699 705 700 720 q 694 682 697 691 q 686 669 690 673 q 675 665 681 665 q 649 677 665 665 q 609 704 633 689 q 550 730 584 718 q 468 742 515 742 q 375 721 416 742 q 305 660 334 699 q 261 564 276 620 q 246 437 246 507 q 262 303 246 359 q 308 210 278 246 q 379 155 337 173 q 473 137 420 137 q 555 148 520 137 q 614 173 589 159 q 655 197 639 186 q 680 208 671 208 q 690 205 686 208 q 697 195 694 203 q 701 172 700 186 q 703 133 703 157 z "},"Ć":{"ha":735,"x_min":54,"x_max":703,"o":"m 703 133 q 702 104 703 116 q 699 84 701 92 q 693 69 696 75 q 682 55 690 63 q 653 35 675 47 q 601 12 632 23 q 531 -7 570 1 q 445 -14 491 -14 q 282 14 355 -14 q 159 97 210 41 q 81 235 108 152 q 54 427 54 317 q 83 626 54 539 q 167 772 113 713 q 295 861 220 831 q 460 892 370 892 q 531 886 497 892 q 594 870 565 880 q 646 847 623 860 q 678 825 669 834 q 690 810 687 816 q 696 794 694 804 q 699 772 698 785 q 700 740 700 759 q 699 705 700 720 q 694 682 697 691 q 686 669 690 673 q 675 665 681 665 q 649 677 665 665 q 609 704 633 689 q 550 730 584 718 q 468 742 515 742 q 375 721 416 742 q 305 660 334 699 q 261 564 276 620 q 246 437 246 507 q 262 303 246 359 q 308 210 278 246 q 379 155 337 173 q 473 137 420 137 q 555 148 520 137 q 614 173 589 159 q 655 197 639 186 q 680 208 671 208 q 690 205 686 208 q 697 195 694 203 q 701 172 700 186 q 703 133 703 157 m 466 1114 q 483 1131 475 1124 q 504 1140 492 1137 q 532 1144 515 1143 q 574 1145 549 1145 q 623 1141 606 1145 q 647 1131 640 1137 q 650 1116 653 1124 q 637 1099 646 1108 l 486 964 q 472 953 479 958 q 455 946 465 949 q 431 941 445 943 q 395 940 416 940 q 358 942 372 940 q 339 948 345 944 q 334 960 333 953 q 344 976 336 966 l 466 1114 m 264 878 z "},"Ĉ":{"ha":735,"x_min":54,"x_max":703,"o":"m 703 133 q 702 104 703 116 q 699 84 701 92 q 693 69 696 75 q 682 55 690 63 q 653 35 675 47 q 601 12 632 23 q 531 -7 570 1 q 445 -14 491 -14 q 282 14 355 -14 q 159 97 210 41 q 81 235 108 152 q 54 427 54 317 q 83 626 54 539 q 167 772 113 713 q 295 861 220 831 q 460 892 370 892 q 531 886 497 892 q 594 870 565 880 q 646 847 623 860 q 678 825 669 834 q 690 810 687 816 q 696 794 694 804 q 699 772 698 785 q 700 740 700 759 q 699 705 700 720 q 694 682 697 691 q 686 669 690 673 q 675 665 681 665 q 649 677 665 665 q 609 704 633 689 q 550 730 584 718 q 468 742 515 742 q 375 721 416 742 q 305 660 334 699 q 261 564 276 620 q 246 437 246 507 q 262 303 246 359 q 308 210 278 246 q 379 155 337 173 q 473 137 420 137 q 555 148 520 137 q 614 173 589 159 q 655 197 639 186 q 680 208 671 208 q 690 205 686 208 q 697 195 694 203 q 701 172 700 186 q 703 133 703 157 m 437 1145 q 473 1145 458 1145 q 498 1141 488 1144 q 517 1133 509 1138 q 534 1118 525 1127 l 668 972 q 679 957 677 963 q 674 946 680 950 q 654 941 669 943 q 616 940 640 940 q 571 941 589 940 q 543 944 553 942 q 527 951 532 947 q 515 961 521 955 l 435 1054 l 353 963 q 341 951 347 956 q 325 945 335 947 q 297 941 314 942 q 252 940 280 940 q 215 942 229 940 q 196 947 201 943 q 191 957 190 951 q 201 972 193 963 l 333 1118 q 349 1132 340 1126 q 370 1140 358 1137 q 398 1144 382 1143 q 437 1145 414 1145 m 122 878 z "},"Č":{"ha":735,"x_min":54,"x_max":703,"o":"m 703 133 q 702 104 703 116 q 699 84 701 92 q 693 69 696 75 q 682 55 690 63 q 653 35 675 47 q 601 12 632 23 q 531 -7 570 1 q 445 -14 491 -14 q 282 14 355 -14 q 159 97 210 41 q 81 235 108 152 q 54 427 54 317 q 83 626 54 539 q 167 772 113 713 q 295 861 220 831 q 460 892 370 892 q 531 886 497 892 q 594 870 565 880 q 646 847 623 860 q 678 825 669 834 q 690 810 687 816 q 696 794 694 804 q 699 772 698 785 q 700 740 700 759 q 699 705 700 720 q 694 682 697 691 q 686 669 690 673 q 675 665 681 665 q 649 677 665 665 q 609 704 633 689 q 550 730 584 718 q 468 742 515 742 q 375 721 416 742 q 305 660 334 699 q 261 564 276 620 q 246 437 246 507 q 262 303 246 359 q 308 210 278 246 q 379 155 337 173 q 473 137 420 137 q 555 148 520 137 q 614 173 589 159 q 655 197 639 186 q 680 208 671 208 q 690 205 686 208 q 697 195 694 203 q 701 172 700 186 q 703 133 703 157 m 427 940 q 390 941 405 940 q 365 944 375 941 q 346 953 354 947 q 330 968 338 959 l 195 1113 q 185 1129 186 1123 q 189 1139 183 1136 q 209 1144 195 1143 q 247 1145 224 1145 q 292 1144 275 1145 q 320 1141 310 1143 q 337 1135 331 1139 q 348 1124 342 1131 l 428 1031 l 511 1123 q 523 1134 517 1130 q 539 1141 528 1139 q 566 1144 549 1143 q 612 1145 583 1145 q 648 1144 635 1145 q 668 1138 662 1142 q 672 1128 673 1135 q 663 1113 670 1122 l 530 968 q 514 954 523 959 q 493 945 505 948 q 466 941 481 942 q 427 940 450 940 m 115 878 z "},"Ċ":{"ha":735,"x_min":54,"x_max":703,"o":"m 703 133 q 702 104 703 116 q 699 84 701 92 q 693 69 696 75 q 682 55 690 63 q 653 35 675 47 q 601 12 632 23 q 531 -7 570 1 q 445 -14 491 -14 q 282 14 355 -14 q 159 97 210 41 q 81 235 108 152 q 54 427 54 317 q 83 626 54 539 q 167 772 113 713 q 295 861 220 831 q 460 892 370 892 q 531 886 497 892 q 594 870 565 880 q 646 847 623 860 q 678 825 669 834 q 690 810 687 816 q 696 794 694 804 q 699 772 698 785 q 700 740 700 759 q 699 705 700 720 q 694 682 697 691 q 686 669 690 673 q 675 665 681 665 q 649 677 665 665 q 609 704 633 689 q 550 730 584 718 q 468 742 515 742 q 375 721 416 742 q 305 660 334 699 q 261 564 276 620 q 246 437 246 507 q 262 303 246 359 q 308 210 278 246 q 379 155 337 173 q 473 137 420 137 q 555 148 520 137 q 614 173 589 159 q 655 197 639 186 q 680 208 671 208 q 690 205 686 208 q 697 195 694 203 q 701 172 700 186 q 703 133 703 157 m 541 1040 q 520 973 541 992 q 446 954 500 954 q 372 972 392 954 q 353 1037 353 991 q 373 1105 353 1086 q 448 1124 393 1124 q 521 1105 502 1124 q 541 1040 541 1087 m 283 878 z "},"Ç":{"ha":735,"x_min":54,"x_max":703,"o":"m 522 -45 q 539 -91 534 -71 q 545 -129 545 -111 q 534 -182 545 -160 q 503 -219 522 -205 q 456 -240 483 -233 q 399 -248 430 -248 q 345 -243 370 -248 q 302 -235 319 -239 q 278 -227 286 -230 q 268 -218 271 -223 q 264 -204 265 -212 q 262 -180 262 -195 q 268 -143 262 -153 q 286 -132 273 -132 l 365 -132 q 394 -124 385 -132 q 404 -100 404 -115 q 401 -82 404 -92 q 393 -61 397 -72 l 370 -9 q 256 24 311 -1 q 155 101 201 50 q 81 235 109 152 q 54 427 54 317 q 83 626 54 539 q 167 772 113 713 q 295 861 220 831 q 460 892 370 892 q 531 886 497 892 q 594 870 565 880 q 646 847 623 860 q 678 825 669 834 q 690 810 687 816 q 696 794 694 804 q 699 772 698 785 q 700 740 700 759 q 699 705 700 720 q 694 682 697 691 q 686 669 690 673 q 675 665 681 665 q 649 677 665 665 q 609 704 633 689 q 550 730 584 718 q 468 742 515 742 q 375 721 416 742 q 305 660 334 699 q 261 564 276 620 q 246 437 246 507 q 262 303 246 359 q 308 210 278 246 q 379 155 337 173 q 473 137 420 137 q 553 148 518 137 q 614 173 589 159 q 655 197 639 186 q 680 208 671 208 q 690 205 686 208 q 697 195 694 203 q 701 172 700 186 q 703 133 703 157 q 702 104 703 116 q 699 84 701 92 q 693 69 696 75 q 682 55 690 63 q 653 35 675 47 q 606 13 632 23 q 555 -3 581 3 q 506 -11 529 -9 l 522 -45 z "},"D":{"ha":876,"x_min":96,"x_max":825,"o":"m 825 452 q 793 245 825 331 q 703 105 762 159 q 559 25 644 51 q 358 0 475 0 l 149 0 q 111 13 126 0 q 96 56 96 26 l 96 821 q 111 864 96 851 q 149 878 126 878 l 374 878 q 573 850 491 878 q 710 769 654 823 q 795 635 766 715 q 825 452 825 556 m 640 446 q 626 562 640 508 q 579 654 611 615 q 496 716 547 694 q 363 738 446 738 l 273 738 l 273 141 l 366 141 q 490 160 439 141 q 573 217 540 179 q 624 313 607 256 q 640 446 640 370 z "},"Ď":{"ha":876,"x_min":96,"x_max":825,"o":"m 825 452 q 793 245 825 331 q 703 105 762 159 q 559 25 644 51 q 358 0 475 0 l 149 0 q 111 13 126 0 q 96 56 96 26 l 96 821 q 111 864 96 851 q 149 878 126 878 l 374 878 q 573 850 491 878 q 710 769 654 823 q 795 635 766 715 q 825 452 825 556 m 640 446 q 626 562 640 508 q 579 654 611 615 q 496 716 547 694 q 363 738 446 738 l 273 738 l 273 141 l 366 141 q 490 160 439 141 q 573 217 540 179 q 624 313 607 256 q 640 446 640 370 m 417 940 q 380 941 395 940 q 355 944 366 941 q 337 953 345 947 q 320 968 329 959 l 186 1113 q 175 1129 177 1123 q 179 1139 174 1136 q 200 1144 185 1143 q 237 1145 214 1145 q 283 1144 265 1145 q 311 1141 300 1143 q 327 1135 321 1139 q 338 1124 333 1131 l 418 1031 l 502 1123 q 513 1134 507 1130 q 529 1141 519 1139 q 557 1144 540 1143 q 602 1145 574 1145 q 639 1144 625 1145 q 658 1138 652 1142 q 662 1128 664 1135 q 653 1113 661 1122 l 521 968 q 505 954 513 959 q 484 945 496 948 q 456 941 472 942 q 417 940 440 940 m 106 878 z "},"Đ":{"ha":888,"x_min":10,"x_max":838,"o":"m 838 452 q 806 245 838 331 q 715 105 774 159 q 571 25 656 51 q 370 0 487 0 l 161 0 q 123 13 138 0 q 109 56 109 26 l 109 385 l 37 385 q 25 388 31 385 q 17 399 20 391 q 12 420 14 407 q 10 454 10 434 q 12 487 10 474 q 17 508 14 500 q 25 519 20 516 q 37 523 31 523 l 109 523 l 109 821 q 123 864 109 851 q 161 878 138 878 l 387 878 q 585 850 503 878 q 723 769 667 823 q 808 635 779 715 q 838 452 838 556 m 652 446 q 638 562 652 508 q 591 654 623 615 q 509 716 559 694 q 378 738 458 738 l 286 738 l 286 523 l 420 523 q 431 519 426 523 q 439 508 436 516 q 445 487 443 500 q 446 454 446 473 q 445 421 446 435 q 439 400 443 408 q 431 389 436 392 q 420 385 426 385 l 286 385 l 286 141 l 379 141 q 502 160 452 141 q 586 217 552 179 q 636 313 619 256 q 652 446 652 370 z "},"Ð":{"ha":888,"x_min":10,"x_max":838,"o":"m 838 452 q 806 245 838 331 q 715 105 774 159 q 571 25 656 51 q 370 0 487 0 l 161 0 q 123 13 138 0 q 109 56 109 26 l 109 385 l 37 385 q 25 388 31 385 q 17 399 20 391 q 12 420 14 407 q 10 454 10 434 q 12 487 10 474 q 17 508 14 500 q 25 519 20 516 q 37 523 31 523 l 109 523 l 109 821 q 123 864 109 851 q 161 878 138 878 l 387 878 q 585 850 503 878 q 723 769 667 823 q 808 635 779 715 q 838 452 838 556 m 652 446 q 638 562 652 508 q 591 654 623 615 q 509 716 559 694 q 378 738 458 738 l 286 738 l 286 523 l 420 523 q 431 519 426 523 q 439 508 436 516 q 445 487 443 500 q 446 454 446 473 q 445 421 446 435 q 439 400 443 408 q 431 389 436 392 q 420 385 426 385 l 286 385 l 286 141 l 379 141 q 502 160 452 141 q 586 217 552 179 q 636 313 619 256 q 652 446 652 370 z "},"E":{"ha":677,"x_min":96,"x_max":616,"o":"m 616 70 q 614 37 616 50 q 609 16 612 24 q 601 4 606 7 q 589 0 595 0 l 149 0 q 111 13 126 0 q 96 56 96 26 l 96 821 q 111 864 96 851 q 149 878 126 878 l 587 878 q 597 874 593 878 q 606 862 602 871 q 611 841 609 854 q 612 807 612 827 q 611 775 612 788 q 606 753 609 762 q 597 742 602 745 q 587 738 593 738 l 273 738 l 273 524 l 538 524 q 550 520 545 524 q 558 508 555 516 q 563 487 562 500 q 565 455 565 474 q 563 422 565 435 q 558 402 562 410 q 550 391 555 394 q 538 387 545 387 l 273 387 l 273 140 l 589 140 q 601 136 595 140 q 609 124 606 132 q 614 103 612 116 q 616 70 616 90 z "},"È":{"ha":677,"x_min":43,"x_max":616,"o":"m 616 70 q 614 37 616 50 q 609 16 612 24 q 601 4 606 7 q 589 0 595 0 l 149 0 q 111 13 126 0 q 96 56 96 26 l 96 821 q 111 864 96 851 q 149 878 126 878 l 587 878 q 597 874 593 878 q 606 862 602 871 q 611 841 609 854 q 612 807 612 827 q 611 775 612 788 q 606 753 609 762 q 597 742 602 745 q 587 738 593 738 l 273 738 l 273 524 l 538 524 q 550 520 545 524 q 558 508 555 516 q 563 487 562 500 q 565 455 565 474 q 563 422 565 435 q 558 402 562 410 q 550 391 555 394 q 538 387 545 387 l 273 387 l 273 140 l 589 140 q 601 136 595 140 q 609 124 606 132 q 614 103 612 116 q 616 70 616 90 m 419 976 q 428 960 427 966 q 424 948 430 953 q 404 942 418 944 q 368 940 391 940 q 332 941 347 940 q 308 946 318 943 q 291 953 298 949 q 277 964 283 958 l 126 1099 q 113 1116 116 1108 q 116 1131 110 1124 q 140 1141 123 1137 q 189 1145 157 1145 q 230 1144 214 1145 q 259 1140 247 1143 q 279 1131 271 1137 q 297 1114 288 1124 l 419 976 m 43 878 z "},"É":{"ha":677,"x_min":96,"x_max":616,"o":"m 616 70 q 614 37 616 50 q 609 16 612 24 q 601 4 606 7 q 589 0 595 0 l 149 0 q 111 13 126 0 q 96 56 96 26 l 96 821 q 111 864 96 851 q 149 878 126 878 l 587 878 q 597 874 593 878 q 606 862 602 871 q 611 841 609 854 q 612 807 612 827 q 611 775 612 788 q 606 753 609 762 q 597 742 602 745 q 587 738 593 738 l 273 738 l 273 524 l 538 524 q 550 520 545 524 q 558 508 555 516 q 563 487 562 500 q 565 455 565 474 q 563 422 565 435 q 558 402 562 410 q 550 391 555 394 q 538 387 545 387 l 273 387 l 273 140 l 589 140 q 601 136 595 140 q 609 124 606 132 q 614 103 612 116 q 616 70 616 90 m 407 1114 q 424 1131 416 1124 q 445 1140 433 1137 q 473 1144 456 1143 q 515 1145 490 1145 q 564 1141 547 1145 q 588 1131 581 1137 q 591 1116 594 1124 q 578 1099 587 1108 l 427 964 q 413 953 420 958 q 396 946 406 949 q 372 941 386 943 q 336 940 357 940 q 299 942 313 940 q 280 948 286 944 q 275 960 274 953 q 285 976 277 966 l 407 1114 m 205 878 z "},"Ê":{"ha":677,"x_min":43,"x_max":616,"o":"m 616 70 q 614 37 616 50 q 609 16 612 24 q 601 4 606 7 q 589 0 595 0 l 149 0 q 111 13 126 0 q 96 56 96 26 l 96 821 q 111 864 96 851 q 149 878 126 878 l 587 878 q 597 874 593 878 q 606 862 602 871 q 611 841 609 854 q 612 807 612 827 q 611 775 612 788 q 606 753 609 762 q 597 742 602 745 q 587 738 593 738 l 273 738 l 273 524 l 538 524 q 550 520 545 524 q 558 508 555 516 q 563 487 562 500 q 565 455 565 474 q 563 422 565 435 q 558 402 562 410 q 550 391 555 394 q 538 387 545 387 l 273 387 l 273 140 l 589 140 q 601 136 595 140 q 609 124 606 132 q 614 103 612 116 q 616 70 616 90 m 357 1145 q 394 1145 379 1145 q 419 1141 409 1144 q 437 1133 429 1138 q 454 1118 446 1127 l 589 972 q 599 957 597 963 q 595 946 601 950 q 575 941 589 943 q 537 940 561 940 q 492 941 509 940 q 464 944 474 942 q 447 951 453 947 q 436 961 441 955 l 356 1054 l 273 963 q 261 951 267 956 q 245 945 256 947 q 218 941 235 942 q 172 940 201 940 q 136 942 149 940 q 116 947 122 943 q 112 957 111 951 q 121 972 113 963 l 254 1118 q 270 1132 261 1126 q 291 1140 279 1137 q 319 1144 302 1143 q 357 1145 335 1145 m 43 878 z "},"Ě":{"ha":677,"x_min":41,"x_max":616,"o":"m 616 70 q 614 37 616 50 q 609 16 612 24 q 601 4 606 7 q 589 0 595 0 l 149 0 q 111 13 126 0 q 96 56 96 26 l 96 821 q 111 864 96 851 q 149 878 126 878 l 587 878 q 597 874 593 878 q 606 862 602 871 q 611 841 609 854 q 612 807 612 827 q 611 775 612 788 q 606 753 609 762 q 597 742 602 745 q 587 738 593 738 l 273 738 l 273 524 l 538 524 q 550 520 545 524 q 558 508 555 516 q 563 487 562 500 q 565 455 565 474 q 563 422 565 435 q 558 402 562 410 q 550 391 555 394 q 538 387 545 387 l 273 387 l 273 140 l 589 140 q 601 136 595 140 q 609 124 606 132 q 614 103 612 116 q 616 70 616 90 m 352 940 q 315 941 330 940 q 290 944 300 941 q 272 953 279 947 q 255 968 264 959 l 121 1113 q 110 1129 112 1123 q 114 1139 109 1136 q 135 1144 120 1143 q 172 1145 149 1145 q 218 1144 200 1145 q 246 1141 235 1143 q 262 1135 256 1139 q 273 1124 268 1131 l 353 1031 l 437 1123 q 448 1134 442 1130 q 464 1141 454 1139 q 492 1144 475 1143 q 537 1145 509 1145 q 574 1144 560 1145 q 593 1138 587 1142 q 597 1128 599 1135 q 588 1113 595 1122 l 456 968 q 439 954 448 959 q 419 945 431 948 q 391 941 407 942 q 352 940 375 940 m 41 878 z "},"Ë":{"ha":677,"x_min":52,"x_max":616,"o":"m 616 70 q 614 37 616 50 q 609 16 612 24 q 601 4 606 7 q 589 0 595 0 l 149 0 q 111 13 126 0 q 96 56 96 26 l 96 821 q 111 864 96 851 q 149 878 126 878 l 587 878 q 597 874 593 878 q 606 862 602 871 q 611 841 609 854 q 612 807 612 827 q 611 775 612 788 q 606 753 609 762 q 597 742 602 745 q 587 738 593 738 l 273 738 l 273 524 l 538 524 q 550 520 545 524 q 558 508 555 516 q 563 487 562 500 q 565 455 565 474 q 563 422 565 435 q 558 402 562 410 q 550 391 555 394 q 538 387 545 387 l 273 387 l 273 140 l 589 140 q 601 136 595 140 q 609 124 606 132 q 614 103 612 116 q 616 70 616 90 m 300 1040 q 281 974 300 993 q 210 955 262 955 q 140 973 158 955 q 121 1038 121 991 q 140 1104 121 1086 q 211 1123 159 1123 q 282 1105 264 1123 q 300 1040 300 1087 m 596 1040 q 577 974 596 993 q 506 955 558 955 q 436 973 454 955 q 418 1038 418 991 q 436 1104 418 1086 q 507 1123 455 1123 q 578 1105 559 1123 q 596 1040 596 1087 m 52 878 z "},"Ē":{"ha":677,"x_min":58,"x_max":616,"o":"m 616 70 q 614 37 616 50 q 609 16 612 24 q 601 4 606 7 q 589 0 595 0 l 149 0 q 111 13 126 0 q 96 56 96 26 l 96 821 q 111 864 96 851 q 149 878 126 878 l 587 878 q 597 874 593 878 q 606 862 602 871 q 611 841 609 854 q 612 807 612 827 q 611 775 612 788 q 606 753 609 762 q 597 742 602 745 q 587 738 593 738 l 273 738 l 273 524 l 538 524 q 550 520 545 524 q 558 508 555 516 q 563 487 562 500 q 565 455 565 474 q 563 422 565 435 q 558 402 562 410 q 550 391 555 394 q 538 387 545 387 l 273 387 l 273 140 l 589 140 q 601 136 595 140 q 609 124 606 132 q 614 103 612 116 q 616 70 616 90 m 557 1096 q 569 1093 564 1096 q 578 1082 574 1089 q 583 1063 581 1075 q 584 1033 584 1050 q 583 1003 584 1015 q 578 984 581 991 q 569 974 574 977 q 557 970 564 970 l 157 970 q 143 974 149 970 q 134 984 137 977 q 129 1003 130 991 q 127 1033 127 1015 q 129 1062 127 1050 q 134 1082 130 1074 q 143 1093 137 1089 q 157 1096 149 1096 l 557 1096 m 58 878 z "},"Ĕ":{"ha":677,"x_min":79,"x_max":616,"o":"m 616 70 q 614 37 616 50 q 609 16 612 24 q 601 4 606 7 q 589 0 595 0 l 149 0 q 111 13 126 0 q 96 56 96 26 l 96 821 q 111 864 96 851 q 149 878 126 878 l 587 878 q 597 874 593 878 q 606 862 602 871 q 611 841 609 854 q 612 807 612 827 q 611 775 612 788 q 606 753 609 762 q 597 742 602 745 q 587 738 593 738 l 273 738 l 273 524 l 538 524 q 550 520 545 524 q 558 508 555 516 q 563 487 562 500 q 565 455 565 474 q 563 422 565 435 q 558 402 562 410 q 550 391 555 394 q 538 387 545 387 l 273 387 l 273 140 l 589 140 q 601 136 595 140 q 609 124 606 132 q 614 103 612 116 q 616 70 616 90 m 555 1126 q 543 1049 555 1084 q 504 990 530 1015 q 440 953 478 966 q 351 940 401 940 q 260 954 298 940 q 197 991 222 967 q 160 1050 172 1015 q 149 1126 149 1084 q 160 1145 149 1140 q 205 1151 172 1151 q 251 1146 238 1151 q 266 1129 264 1141 q 272 1100 267 1118 q 289 1071 278 1082 q 315 1054 299 1060 q 353 1048 330 1048 q 400 1060 382 1048 q 428 1088 419 1071 q 438 1121 437 1105 q 451 1144 440 1138 q 496 1151 463 1151 q 543 1145 530 1151 q 555 1126 555 1140 m 79 878 z "},"Ė":{"ha":677,"x_min":96,"x_max":616,"o":"m 616 70 q 614 37 616 50 q 609 16 612 24 q 601 4 606 7 q 589 0 595 0 l 149 0 q 111 13 126 0 q 96 56 96 26 l 96 821 q 111 864 96 851 q 149 878 126 878 l 587 878 q 597 874 593 878 q 606 862 602 871 q 611 841 609 854 q 612 807 612 827 q 611 775 612 788 q 606 753 609 762 q 597 742 602 745 q 587 738 593 738 l 273 738 l 273 524 l 538 524 q 550 520 545 524 q 558 508 555 516 q 563 487 562 500 q 565 455 565 474 q 563 422 565 435 q 558 402 562 410 q 550 391 555 394 q 538 387 545 387 l 273 387 l 273 140 l 589 140 q 601 136 595 140 q 609 124 606 132 q 614 103 612 116 q 616 70 616 90 m 454 1040 q 434 973 454 992 q 359 954 414 954 q 286 972 305 954 q 266 1037 266 991 q 286 1105 266 1086 q 361 1124 307 1124 q 434 1105 415 1124 q 454 1040 454 1087 m 197 878 z "},"Ę":{"ha":677,"x_min":96,"x_max":637,"o":"m 637 -176 q 636 -200 637 -191 q 632 -216 635 -210 q 624 -225 629 -222 q 602 -234 618 -229 q 558 -243 585 -239 q 498 -248 532 -248 q 433 -241 462 -248 q 384 -220 404 -234 q 353 -185 364 -206 q 342 -135 342 -164 q 354 -84 342 -110 q 393 -31 366 -59 l 425 0 l 149 0 q 111 13 126 0 q 96 56 96 26 l 96 821 q 111 864 96 851 q 149 878 126 878 l 587 878 q 597 874 593 878 q 606 862 602 871 q 611 841 609 854 q 612 807 612 827 q 611 775 612 788 q 606 753 609 762 q 597 742 602 745 q 587 738 593 738 l 273 738 l 273 524 l 538 524 q 550 520 545 524 q 558 509 555 517 q 563 488 562 501 q 565 456 565 475 q 563 424 565 437 q 558 402 562 410 q 550 391 555 394 q 538 387 545 387 l 273 387 l 273 140 l 589 140 q 609 125 602 140 q 616 77 616 111 q 615 49 616 60 q 612 28 614 37 q 603 10 609 18 q 587 -7 597 2 l 536 -58 q 518 -83 524 -72 q 513 -104 513 -94 q 524 -125 513 -118 q 560 -132 534 -132 l 614 -132 q 625 -134 621 -132 q 632 -140 629 -136 q 636 -154 635 -145 q 637 -176 637 -163 z "},"F":{"ha":637,"x_min":96,"x_max":588,"o":"m 588 804 q 586 770 588 784 q 581 748 585 756 q 572 736 577 740 q 562 732 568 732 l 275 732 l 275 496 l 544 496 q 555 492 550 496 q 563 481 559 489 q 569 459 567 473 q 570 425 570 446 q 569 391 570 405 q 563 369 567 378 q 555 356 559 360 q 544 353 550 353 l 275 353 l 275 26 q 271 13 275 18 q 256 4 267 7 q 229 -2 245 0 q 185 -4 212 -4 q 142 -2 159 -4 q 115 4 125 0 q 100 13 104 7 q 96 26 96 18 l 96 821 q 111 864 96 851 q 149 878 126 878 l 562 878 q 572 874 568 878 q 581 862 577 870 q 586 839 585 853 q 588 804 588 825 z "},"G":{"ha":885,"x_min":50,"x_max":800,"o":"m 800 741 q 798 707 800 722 q 793 685 796 693 q 786 673 790 676 q 775 669 781 669 q 747 682 766 669 q 694 708 727 694 q 617 734 662 722 q 512 747 572 747 q 397 725 448 747 q 309 662 345 703 q 252 565 272 622 q 233 440 233 509 q 253 308 233 365 q 309 212 273 250 q 395 153 345 173 q 507 134 446 134 q 566 140 536 134 q 620 161 595 147 l 620 364 l 454 364 q 435 379 441 364 q 428 431 428 395 q 430 463 428 450 q 435 484 431 476 q 443 495 438 492 q 454 499 448 499 l 750 499 q 769 495 761 499 q 784 484 778 492 q 794 466 791 477 q 798 442 798 456 l 798 93 q 790 57 798 73 q 761 33 783 42 q 707 15 739 24 q 639 -1 674 5 q 569 -12 604 -8 q 497 -15 533 -15 q 309 15 392 -15 q 168 103 226 45 q 80 242 111 160 q 50 429 50 325 q 82 623 50 537 q 174 769 115 709 q 318 861 234 829 q 507 892 403 892 q 610 885 564 892 q 692 866 657 877 q 750 842 727 854 q 782 819 773 829 q 795 792 791 810 q 800 741 800 775 z "},"Ĝ":{"ha":885,"x_min":50,"x_max":800,"o":"m 800 741 q 798 707 800 722 q 793 685 796 693 q 786 673 790 676 q 775 669 781 669 q 747 682 766 669 q 694 708 727 694 q 617 734 662 722 q 512 747 572 747 q 397 725 448 747 q 309 662 345 703 q 252 565 272 622 q 233 440 233 509 q 253 308 233 365 q 309 212 273 250 q 395 153 345 173 q 507 134 446 134 q 566 140 536 134 q 620 161 595 147 l 620 364 l 454 364 q 435 379 441 364 q 428 431 428 395 q 430 463 428 450 q 435 484 431 476 q 443 495 438 492 q 454 499 448 499 l 750 499 q 769 495 761 499 q 784 484 778 492 q 794 466 791 477 q 798 442 798 456 l 798 93 q 790 57 798 73 q 761 33 783 42 q 707 15 739 24 q 639 -1 674 5 q 569 -12 604 -8 q 497 -15 533 -15 q 309 15 392 -15 q 168 103 226 45 q 80 242 111 160 q 50 429 50 325 q 82 623 50 537 q 174 769 115 709 q 318 861 234 829 q 507 892 403 892 q 610 885 564 892 q 692 866 657 877 q 750 842 727 854 q 782 819 773 829 q 795 792 791 810 q 800 741 800 775 m 471 1145 q 507 1145 492 1145 q 532 1141 522 1144 q 551 1133 543 1138 q 568 1118 559 1127 l 702 972 q 712 957 711 963 q 708 946 714 950 q 688 941 703 943 q 650 940 674 940 q 605 941 623 940 q 577 944 587 942 q 561 951 566 947 q 549 961 555 955 l 469 1054 l 387 963 q 375 951 380 956 q 358 945 369 947 q 331 941 348 942 q 286 940 314 940 q 249 942 262 940 q 230 947 235 943 q 225 957 224 951 q 235 972 227 963 l 367 1118 q 383 1132 374 1126 q 404 1140 392 1137 q 432 1144 416 1143 q 471 1145 448 1145 m 156 878 z "},"Ğ":{"ha":885,"x_min":50,"x_max":800,"o":"m 800 741 q 798 707 800 722 q 793 685 796 693 q 786 673 790 676 q 775 669 781 669 q 747 682 766 669 q 694 708 727 694 q 617 734 662 722 q 512 747 572 747 q 397 725 448 747 q 309 662 345 703 q 252 565 272 622 q 233 440 233 509 q 253 308 233 365 q 309 212 273 250 q 395 153 345 173 q 507 134 446 134 q 566 140 536 134 q 620 161 595 147 l 620 364 l 454 364 q 435 379 441 364 q 428 431 428 395 q 430 463 428 450 q 435 484 431 476 q 443 495 438 492 q 454 499 448 499 l 750 499 q 769 495 761 499 q 784 484 778 492 q 794 466 791 477 q 798 442 798 456 l 798 93 q 790 57 798 73 q 761 33 783 42 q 707 15 739 24 q 639 -1 674 5 q 569 -12 604 -8 q 497 -15 533 -15 q 309 15 392 -15 q 168 103 226 45 q 80 242 111 160 q 50 429 50 325 q 82 623 50 537 q 174 769 115 709 q 318 861 234 829 q 507 892 403 892 q 610 885 564 892 q 692 866 657 877 q 750 842 727 854 q 782 819 773 829 q 795 792 791 810 q 800 741 800 775 m 672 1126 q 659 1049 672 1084 q 621 990 646 1015 q 556 953 595 966 q 468 940 518 940 q 377 954 415 940 q 314 991 338 967 q 277 1050 289 1015 q 265 1126 265 1084 q 277 1145 265 1140 q 322 1151 289 1151 q 368 1146 355 1151 q 382 1129 381 1141 q 389 1100 383 1118 q 405 1071 395 1082 q 431 1054 416 1060 q 469 1048 447 1048 q 517 1060 498 1048 q 545 1088 536 1071 q 555 1121 553 1105 q 568 1144 557 1138 q 612 1151 579 1151 q 660 1145 647 1151 q 672 1126 672 1140 m 196 878 z "},"Ġ":{"ha":885,"x_min":50,"x_max":800,"o":"m 800 741 q 798 707 800 722 q 793 685 796 693 q 786 673 790 676 q 775 669 781 669 q 747 682 766 669 q 694 708 727 694 q 617 734 662 722 q 512 747 572 747 q 397 725 448 747 q 309 662 345 703 q 252 565 272 622 q 233 440 233 509 q 253 308 233 365 q 309 212 273 250 q 395 153 345 173 q 507 134 446 134 q 566 140 536 134 q 620 161 595 147 l 620 364 l 454 364 q 435 379 441 364 q 428 431 428 395 q 430 463 428 450 q 435 484 431 476 q 443 495 438 492 q 454 499 448 499 l 750 499 q 769 495 761 499 q 784 484 778 492 q 794 466 791 477 q 798 442 798 456 l 798 93 q 790 57 798 73 q 761 33 783 42 q 707 15 739 24 q 639 -1 674 5 q 569 -12 604 -8 q 497 -15 533 -15 q 309 15 392 -15 q 168 103 226 45 q 80 242 111 160 q 50 429 50 325 q 82 623 50 537 q 174 769 115 709 q 318 861 234 829 q 507 892 403 892 q 610 885 564 892 q 692 866 657 877 q 750 842 727 854 q 782 819 773 829 q 795 792 791 810 q 800 741 800 775 m 588 1040 q 568 973 588 992 q 494 954 548 954 q 420 972 439 954 q 400 1037 400 991 q 420 1105 400 1086 q 495 1124 441 1124 q 569 1105 549 1124 q 588 1040 588 1087 m 331 878 z "},"Ģ":{"ha":885,"x_min":50,"x_max":800,"o":"m 800 741 q 798 707 800 722 q 793 685 796 693 q 786 673 790 676 q 775 669 781 669 q 747 682 766 669 q 694 708 727 694 q 617 734 662 722 q 512 747 572 747 q 397 725 448 747 q 309 662 345 703 q 252 565 272 622 q 233 440 233 509 q 253 308 233 365 q 309 212 273 250 q 395 153 345 173 q 507 134 446 134 q 566 140 536 134 q 620 161 595 147 l 620 364 l 454 364 q 435 379 441 364 q 428 431 428 395 q 430 463 428 450 q 435 484 431 476 q 443 495 438 492 q 454 499 448 499 l 750 499 q 769 495 761 499 q 784 484 778 492 q 794 466 791 477 q 798 442 798 456 l 798 93 q 790 57 798 73 q 761 33 783 42 q 707 15 739 24 q 639 -1 674 5 q 569 -12 604 -8 q 497 -15 533 -15 q 309 15 392 -15 q 168 103 226 45 q 80 242 111 160 q 50 429 50 325 q 82 623 50 537 q 174 769 115 709 q 318 861 234 829 q 507 892 403 892 q 610 885 564 892 q 692 866 657 877 q 750 842 727 854 q 782 819 773 829 q 795 792 791 810 q 800 741 800 775 m 379 -83 q 387 -70 381 -76 q 402 -61 392 -64 q 430 -56 413 -58 q 475 -55 448 -55 q 517 -58 502 -55 q 540 -65 533 -60 q 547 -78 547 -71 q 542 -95 547 -85 l 475 -224 q 467 -235 472 -231 q 454 -242 463 -239 q 432 -247 446 -245 q 396 -248 418 -248 q 362 -246 374 -248 q 343 -240 349 -244 q 338 -229 338 -235 q 340 -212 338 -222 l 379 -83 z "},"H":{"ha":876,"x_min":96,"x_max":781,"o":"m 781 24 q 776 12 781 18 q 762 3 772 7 q 734 -2 751 0 q 692 -4 718 -4 q 648 -2 665 -4 q 621 3 631 0 q 607 12 611 7 q 602 24 602 18 l 602 379 l 274 379 l 274 24 q 270 12 274 18 q 256 3 266 7 q 229 -2 245 0 q 185 -4 212 -4 q 142 -2 159 -4 q 115 3 125 0 q 100 12 104 7 q 96 24 96 18 l 96 853 q 100 865 96 860 q 115 874 104 871 q 142 880 125 878 q 185 882 159 882 q 229 880 212 882 q 256 874 245 878 q 270 865 266 871 q 274 853 274 860 l 274 531 l 602 531 l 602 853 q 607 865 602 860 q 621 874 611 871 q 648 880 631 878 q 692 882 665 882 q 734 880 718 882 q 762 874 751 878 q 776 865 772 871 q 781 853 781 860 l 781 24 z "},"Ĥ":{"ha":876,"x_min":96,"x_max":781,"o":"m 781 24 q 776 12 781 18 q 762 3 772 7 q 734 -2 751 0 q 692 -4 718 -4 q 648 -2 665 -4 q 621 3 631 0 q 607 12 611 7 q 602 24 602 18 l 602 379 l 274 379 l 274 24 q 270 12 274 18 q 256 3 266 7 q 229 -2 245 0 q 185 -4 212 -4 q 142 -2 159 -4 q 115 3 125 0 q 100 12 104 7 q 96 24 96 18 l 96 853 q 100 865 96 860 q 115 874 104 871 q 142 880 125 878 q 185 882 159 882 q 229 880 212 882 q 256 874 245 878 q 270 865 266 871 q 274 853 274 860 l 274 531 l 602 531 l 602 853 q 607 865 602 860 q 621 874 611 871 q 648 880 631 878 q 692 882 665 882 q 734 880 718 882 q 762 874 751 878 q 776 865 772 871 q 781 853 781 860 l 781 24 m 438 1145 q 475 1145 460 1145 q 500 1141 490 1144 q 518 1133 510 1138 q 535 1118 526 1127 l 669 972 q 680 957 678 963 q 676 946 682 950 q 656 941 670 943 q 618 940 642 940 q 572 941 590 940 q 544 944 555 942 q 528 951 534 947 q 517 961 522 955 l 437 1054 l 354 963 q 342 951 348 956 q 326 945 336 947 q 298 941 315 942 q 253 940 281 940 q 216 942 230 940 q 197 947 203 943 q 193 957 191 951 q 202 972 194 963 l 334 1118 q 351 1132 342 1126 q 371 1140 359 1137 q 399 1144 383 1143 q 438 1145 416 1145 m 123 878 z "},"Ħ":{"ha":913,"x_min":11,"x_max":903,"o":"m 293 615 l 293 495 l 621 495 l 621 615 l 293 615 m 799 741 l 877 741 q 888 738 883 741 q 897 729 893 736 q 902 710 900 722 q 903 678 903 698 q 902 646 903 659 q 897 627 900 634 q 888 617 893 620 q 877 615 883 615 l 799 615 l 799 23 q 795 11 799 16 q 781 3 791 6 q 753 -2 770 -1 q 711 -4 736 -4 q 667 -2 684 -4 q 640 3 650 -1 q 625 11 629 6 q 621 23 621 16 l 621 355 l 293 355 l 293 23 q 289 11 293 16 q 274 3 284 6 q 247 -2 264 -1 q 204 -4 230 -4 q 161 -2 178 -4 q 134 3 144 -1 q 119 11 123 6 q 115 23 115 16 l 115 615 l 37 615 q 26 617 31 615 q 18 627 21 620 q 13 646 14 634 q 11 677 11 658 q 13 709 11 696 q 18 728 14 721 q 26 738 21 735 q 37 741 31 741 l 115 741 l 115 854 q 119 866 115 861 q 134 875 123 871 q 161 880 144 878 q 204 882 178 882 q 247 880 230 882 q 274 875 264 878 q 289 866 284 871 q 293 854 293 861 l 293 741 l 621 741 l 621 854 q 625 866 621 861 q 640 875 629 871 q 667 880 650 878 q 711 882 684 882 q 753 880 736 882 q 781 875 770 878 q 795 866 791 871 q 799 854 799 861 l 799 741 z "},"I":{"ha":370,"x_min":96,"x_max":275,"o":"m 275 24 q 270 12 275 18 q 256 3 266 7 q 229 -2 245 0 q 185 -4 212 -4 q 142 -2 159 -4 q 115 3 125 0 q 100 12 104 7 q 96 24 96 18 l 96 853 q 100 865 96 860 q 115 874 104 871 q 142 880 125 878 q 185 882 159 882 q 229 880 212 882 q 256 874 245 878 q 270 865 266 871 q 275 853 275 860 l 275 24 z "},"Ì":{"ha":370,"x_min":-113,"x_max":275,"o":"m 275 24 q 270 12 275 18 q 256 3 266 7 q 229 -2 245 0 q 185 -4 212 -4 q 142 -2 159 -4 q 115 3 125 0 q 100 12 104 7 q 96 24 96 18 l 96 853 q 100 865 96 860 q 115 874 104 871 q 142 880 125 878 q 185 882 159 882 q 229 880 212 882 q 256 874 245 878 q 270 865 266 871 q 275 853 275 860 l 275 24 m 264 976 q 273 960 271 966 q 269 948 275 953 q 249 942 262 944 q 212 940 235 940 q 177 941 191 940 q 153 946 163 943 q 135 953 142 949 q 121 964 128 958 l -29 1099 q -42 1116 -39 1108 q -39 1131 -45 1124 q -15 1141 -33 1137 q 33 1145 2 1145 q 75 1144 58 1145 q 103 1140 92 1143 q 124 1131 115 1137 q 142 1114 133 1124 l 264 976 m -113 878 z "},"Í":{"ha":370,"x_min":26,"x_max":414,"o":"m 275 24 q 270 12 275 18 q 256 3 266 7 q 229 -2 245 0 q 185 -4 212 -4 q 142 -2 159 -4 q 115 3 125 0 q 100 12 104 7 q 96 24 96 18 l 96 853 q 100 865 96 860 q 115 874 104 871 q 142 880 125 878 q 185 882 159 882 q 229 880 212 882 q 256 874 245 878 q 270 865 266 871 q 275 853 275 860 l 275 24 m 227 1114 q 244 1131 236 1124 q 265 1140 253 1137 q 294 1144 277 1143 q 336 1145 311 1145 q 384 1141 367 1145 q 408 1131 401 1137 q 411 1116 414 1124 q 398 1099 408 1108 l 248 964 q 234 953 241 958 q 216 946 227 949 q 192 941 206 943 q 157 940 178 940 q 120 942 134 940 q 100 948 106 944 q 96 960 94 953 q 105 976 97 966 l 227 1114 m 26 878 z "},"Î":{"ha":370,"x_min":-127,"x_max":431,"o":"m 275 24 q 270 12 275 18 q 256 3 266 7 q 229 -2 245 0 q 185 -4 212 -4 q 142 -2 159 -4 q 115 3 125 0 q 100 12 104 7 q 96 24 96 18 l 96 853 q 100 865 96 860 q 115 874 104 871 q 142 880 125 878 q 185 882 159 882 q 229 880 212 882 q 256 874 245 878 q 270 865 266 871 q 275 853 275 860 l 275 24 m 187 1145 q 224 1145 209 1145 q 249 1141 239 1144 q 267 1133 259 1138 q 284 1118 275 1127 l 418 972 q 429 957 427 963 q 425 946 431 950 q 405 941 419 943 q 367 940 391 940 q 321 941 339 940 q 293 944 304 942 q 277 951 283 947 q 266 961 271 955 l 186 1054 l 103 963 q 91 951 97 956 q 75 945 85 947 q 47 941 64 942 q 2 940 31 940 q -35 942 -21 940 q -54 947 -48 943 q -58 957 -60 951 q -49 972 -57 963 l 83 1118 q 100 1132 91 1126 q 120 1140 109 1137 q 149 1144 132 1143 q 187 1145 165 1145 m -127 878 z "},"Ĩ":{"ha":370,"x_min":-125,"x_max":429,"o":"m 275 24 q 270 12 275 18 q 256 3 266 7 q 229 -2 245 0 q 185 -4 212 -4 q 142 -2 159 -4 q 115 3 125 0 q 100 12 104 7 q 96 24 96 18 l 96 853 q 100 865 96 860 q 115 874 104 871 q 142 880 125 878 q 185 882 159 882 q 229 880 212 882 q 256 874 245 878 q 270 865 266 871 q 275 853 275 860 l 275 24 m 324 1109 q 336 1124 324 1120 q 378 1127 347 1127 q 419 1122 408 1127 q 429 1101 429 1117 q 391 983 429 1023 q 281 942 353 942 q 215 952 242 942 q 168 976 189 963 q 129 999 146 988 q 92 1009 112 1009 q 59 996 68 1009 q 49 960 49 983 q 46 950 49 954 q 36 945 43 947 q 19 943 29 943 q -5 942 9 942 q -46 947 -35 942 q -56 968 -56 952 q -46 1036 -56 1006 q -17 1086 -36 1066 q 30 1117 3 1106 q 92 1127 58 1127 q 158 1117 131 1127 q 205 1093 184 1106 q 243 1070 226 1080 q 281 1059 261 1059 q 313 1070 301 1059 q 324 1109 324 1082 m -125 878 z "},"Ï":{"ha":370,"x_min":-121,"x_max":423,"o":"m 275 24 q 270 12 275 18 q 256 3 266 7 q 229 -2 245 0 q 185 -4 212 -4 q 142 -2 159 -4 q 115 3 125 0 q 100 12 104 7 q 96 24 96 18 l 96 853 q 100 865 96 860 q 115 874 104 871 q 142 880 125 878 q 185 882 159 882 q 229 880 212 882 q 256 874 245 878 q 270 865 266 871 q 275 853 275 860 l 275 24 m 127 1040 q 108 974 127 993 q 37 955 90 955 q -33 973 -15 955 q -52 1038 -52 991 q -33 1104 -52 1086 q 38 1123 -14 1123 q 109 1105 91 1123 q 127 1040 127 1087 m 423 1040 q 404 974 423 993 q 333 955 385 955 q 263 973 281 955 q 245 1038 245 991 q 263 1104 245 1086 q 334 1123 282 1123 q 405 1105 387 1123 q 423 1040 423 1087 m -121 878 z "},"Ī":{"ha":370,"x_min":-112,"x_max":414,"o":"m 275 24 q 270 12 275 18 q 256 3 266 7 q 229 -2 245 0 q 185 -4 212 -4 q 142 -2 159 -4 q 115 3 125 0 q 100 12 104 7 q 96 24 96 18 l 96 853 q 100 865 96 860 q 115 874 104 871 q 142 880 125 878 q 185 882 159 882 q 229 880 212 882 q 256 874 245 878 q 270 865 266 871 q 275 853 275 860 l 275 24 m 387 1096 q 400 1093 395 1096 q 408 1082 405 1089 q 413 1063 412 1075 q 414 1033 414 1050 q 413 1003 414 1015 q 408 984 412 991 q 400 974 405 977 q 387 970 395 970 l -13 970 q -27 974 -21 970 q -36 984 -33 977 q -41 1003 -39 991 q -43 1033 -43 1015 q -41 1062 -43 1050 q -36 1082 -39 1074 q -27 1093 -33 1089 q -13 1096 -21 1096 l 387 1096 m -112 878 z "},"Ĭ":{"ha":370,"x_min":-87,"x_max":389,"o":"m 275 24 q 270 12 275 18 q 256 3 266 7 q 229 -2 245 0 q 185 -4 212 -4 q 142 -2 159 -4 q 115 3 125 0 q 100 12 104 7 q 96 24 96 18 l 96 853 q 100 865 96 860 q 115 874 104 871 q 142 880 125 878 q 185 882 159 882 q 229 880 212 882 q 256 874 245 878 q 270 865 266 871 q 275 853 275 860 l 275 24 m 389 1126 q 376 1049 389 1084 q 338 990 363 1015 q 274 953 312 966 q 185 940 235 940 q 94 954 132 940 q 31 991 56 967 q -6 1050 6 1015 q -18 1126 -18 1084 q -6 1145 -18 1140 q 39 1151 6 1151 q 85 1146 72 1151 q 99 1129 98 1141 q 106 1100 100 1118 q 122 1071 112 1082 q 149 1054 133 1060 q 186 1048 164 1048 q 234 1060 216 1048 q 262 1088 253 1071 q 272 1121 271 1105 q 285 1144 274 1138 q 330 1151 296 1151 q 377 1145 364 1151 q 389 1126 389 1140 m -87 878 z "},"İ":{"ha":370,"x_min":23,"x_max":280,"o":"m 275 24 q 270 12 275 18 q 256 3 266 7 q 229 -2 245 0 q 185 -4 212 -4 q 142 -2 159 -4 q 115 3 125 0 q 100 12 104 7 q 96 24 96 18 l 96 853 q 100 865 96 860 q 115 874 104 871 q 142 880 125 878 q 185 882 159 882 q 229 880 212 882 q 256 874 245 878 q 270 865 266 871 q 275 853 275 860 l 275 24 m 280 1040 q 260 973 280 992 q 186 954 240 954 q 112 972 132 954 q 92 1037 92 991 q 113 1105 92 1086 q 187 1124 133 1124 q 261 1105 241 1124 q 280 1040 280 1087 m 23 878 z "},"Į":{"ha":370,"x_min":20,"x_max":314,"o":"m 314 -176 q 313 -200 314 -191 q 308 -216 311 -210 q 300 -225 305 -222 q 288 -231 295 -229 q 234 -243 262 -239 q 174 -248 205 -248 q 61 -221 101 -248 q 20 -139 20 -194 q 23 -113 20 -125 q 31 -86 25 -100 q 47 -59 37 -73 q 73 -29 57 -45 l 106 4 q 99 11 102 7 q 96 21 96 15 l 96 854 q 100 866 96 861 q 115 875 104 871 q 142 880 125 878 q 185 882 159 882 q 229 880 212 882 q 256 875 245 878 q 270 866 266 871 q 275 854 275 861 l 275 21 q 271 4 275 12 q 260 -11 268 -3 l 218 -53 q 195 -81 201 -70 q 189 -104 189 -93 q 199 -125 189 -118 q 231 -132 210 -132 l 290 -132 q 309 -141 304 -132 q 314 -176 314 -149 z "},"Ĳ":{"ha":831,"x_min":96,"x_max":736,"o":"m 275 24 q 270 12 275 18 q 256 3 266 7 q 229 -2 245 0 q 185 -4 212 -4 q 142 -2 159 -4 q 115 3 125 0 q 100 12 104 7 q 96 24 96 18 l 96 853 q 100 865 96 860 q 115 874 104 871 q 142 880 125 878 q 185 882 159 882 q 229 880 212 882 q 256 874 245 878 q 270 865 266 871 q 275 853 275 860 l 275 24 m 736 244 q 725 137 736 184 q 687 55 714 89 q 617 4 661 22 q 510 -14 574 -14 q 470 -11 490 -14 q 433 -3 450 -7 q 404 7 416 2 q 388 17 392 13 q 381 26 384 22 q 376 39 378 31 q 374 58 374 47 q 373 87 373 70 q 374 126 373 111 q 377 152 375 142 q 384 164 380 161 q 395 168 389 168 q 410 164 401 168 q 428 155 418 159 q 452 145 438 150 q 484 141 465 141 q 516 146 502 141 q 539 164 530 151 q 553 197 548 176 q 557 252 557 218 l 557 854 q 562 866 557 861 q 576 875 566 871 q 604 880 586 878 q 647 882 621 882 q 690 880 673 882 q 717 875 707 878 q 732 866 728 871 q 736 854 736 861 l 736 244 z "},"J":{"ha":460,"x_min":2,"x_max":366,"o":"m 366 244 q 354 137 366 184 q 316 55 343 89 q 246 4 290 22 q 139 -14 203 -14 q 99 -11 119 -14 q 62 -3 79 -7 q 33 7 45 2 q 17 17 21 13 q 10 26 13 22 q 5 39 7 31 q 3 58 3 47 q 2 87 2 70 q 3 126 2 111 q 6 152 4 142 q 13 164 9 161 q 24 168 18 168 q 39 164 31 168 q 57 155 47 159 q 81 145 67 150 q 113 141 94 141 q 145 146 131 141 q 168 164 159 151 q 182 197 177 176 q 186 252 186 218 l 186 854 q 191 866 186 861 q 205 875 195 871 q 233 880 215 878 q 276 882 250 882 q 319 880 302 882 q 346 875 336 878 q 361 866 357 871 q 366 854 366 861 l 366 244 z "},"Ĵ":{"ha":460,"x_min":-55,"x_max":503,"o":"m 366 244 q 354 137 366 184 q 316 55 343 89 q 246 4 290 22 q 139 -14 203 -14 q 99 -11 119 -14 q 62 -3 79 -7 q 33 7 45 2 q 17 17 21 13 q 10 26 13 22 q 5 39 7 31 q 3 58 3 47 q 2 87 2 70 q 3 126 2 111 q 6 152 4 142 q 13 164 9 161 q 24 168 18 168 q 39 164 31 168 q 57 155 47 159 q 81 145 67 150 q 113 141 94 141 q 145 146 131 141 q 168 164 159 151 q 182 197 177 176 q 186 252 186 218 l 186 854 q 191 866 186 861 q 205 875 195 871 q 233 880 215 878 q 276 882 250 882 q 319 880 302 882 q 346 875 336 878 q 361 866 357 871 q 366 854 366 861 l 366 244 m 260 1145 q 296 1145 281 1145 q 321 1141 311 1144 q 340 1133 332 1138 q 357 1118 348 1127 l 491 972 q 502 957 500 963 q 497 946 503 950 q 477 941 492 943 q 439 940 463 940 q 394 941 412 940 q 366 944 376 942 q 350 951 355 947 q 338 961 344 955 l 258 1054 l 176 963 q 164 951 170 956 q 148 945 158 947 q 120 941 137 942 q 75 940 103 940 q 38 942 52 940 q 19 947 24 943 q 14 957 13 951 q 24 972 16 963 l 156 1118 q 172 1132 163 1126 q 193 1140 181 1137 q 221 1144 205 1143 q 260 1145 237 1145 m -55 878 z "},"K":{"ha":760,"x_min":96,"x_max":736,"o":"m 736 26 q 733 13 736 19 q 719 4 729 7 q 690 -2 708 0 q 644 -4 671 -4 q 580 -1 600 -4 q 552 9 561 3 q 539 26 544 16 l 274 442 l 274 26 q 270 13 274 18 q 256 4 266 7 q 229 -2 245 0 q 185 -4 212 -4 q 142 -2 159 -4 q 115 4 125 0 q 100 13 104 7 q 96 26 96 18 l 96 852 q 100 865 96 860 q 115 874 104 871 q 142 880 125 878 q 185 882 159 882 q 229 880 212 882 q 256 874 245 878 q 270 865 266 871 q 274 852 274 860 l 274 479 l 531 852 q 543 866 536 861 q 560 876 549 872 q 588 880 571 879 q 631 882 605 882 q 676 880 659 882 q 704 874 694 878 q 719 865 715 870 q 723 852 723 859 q 717 829 723 841 q 694 790 711 817 l 453 475 l 715 78 q 733 41 730 50 q 736 26 736 32 z "},"Ķ":{"ha":760,"x_min":96,"x_max":736,"o":"m 736 26 q 733 13 736 19 q 719 4 729 7 q 690 -2 708 0 q 644 -4 671 -4 q 580 -1 600 -4 q 552 9 561 3 q 539 26 544 16 l 274 442 l 274 26 q 270 13 274 18 q 256 4 266 7 q 229 -2 245 0 q 185 -4 212 -4 q 142 -2 159 -4 q 115 4 125 0 q 100 13 104 7 q 96 26 96 18 l 96 852 q 100 865 96 860 q 115 874 104 871 q 142 880 125 878 q 185 882 159 882 q 229 880 212 882 q 256 874 245 878 q 270 865 266 871 q 274 852 274 860 l 274 479 l 531 852 q 543 866 536 861 q 560 876 549 872 q 588 880 571 879 q 631 882 605 882 q 676 880 659 882 q 704 874 694 878 q 719 865 715 870 q 723 852 723 859 q 717 829 723 841 q 694 790 711 817 l 453 475 l 715 78 q 733 41 730 50 q 736 26 736 32 m 312 -83 q 319 -70 314 -76 q 335 -61 325 -64 q 363 -56 346 -58 q 408 -55 380 -55 q 450 -58 435 -55 q 473 -65 466 -60 q 480 -78 480 -71 q 475 -95 479 -85 l 408 -224 q 400 -235 405 -231 q 387 -242 395 -239 q 365 -247 378 -245 q 329 -248 351 -248 q 295 -246 307 -248 q 276 -240 282 -244 q 271 -229 271 -235 q 273 -212 271 -222 l 312 -83 z "},"L":{"ha":587,"x_min":96,"x_max":578,"o":"m 578 75 q 576 40 578 54 q 571 17 574 26 q 563 4 568 8 q 551 0 557 0 l 149 0 q 111 13 126 0 q 96 56 96 26 l 96 853 q 100 865 96 860 q 115 874 104 871 q 142 880 125 878 q 185 882 159 882 q 229 880 212 882 q 256 874 245 878 q 270 865 266 871 q 275 853 275 860 l 275 147 l 551 147 q 563 143 557 147 q 571 131 568 140 q 576 109 574 123 q 578 75 578 95 z "},"Ĺ":{"ha":587,"x_min":77,"x_max":578,"o":"m 578 75 q 576 40 578 54 q 571 17 574 26 q 563 4 568 8 q 551 0 557 0 l 149 0 q 111 13 126 0 q 96 56 96 26 l 96 853 q 100 865 96 860 q 115 874 104 871 q 142 880 125 878 q 185 882 159 882 q 229 880 212 882 q 256 874 245 878 q 270 865 266 871 q 275 853 275 860 l 275 147 l 551 147 q 563 143 557 147 q 571 131 568 140 q 576 109 574 123 q 578 75 578 95 m 279 1114 q 296 1131 288 1124 q 316 1140 304 1137 q 345 1144 328 1143 q 387 1145 362 1145 q 436 1141 418 1145 q 459 1131 453 1137 q 463 1116 466 1124 q 450 1099 459 1108 l 299 964 q 285 953 292 958 q 268 946 278 949 q 243 941 258 943 q 208 940 229 940 q 171 942 185 940 q 152 948 157 944 q 147 960 146 953 q 157 976 149 966 l 279 1114 m 77 878 z "},"Ľ":{"ha":597,"x_min":96,"x_max":578,"o":"m 578 75 q 576 40 578 54 q 571 17 574 26 q 563 4 568 8 q 551 0 557 0 l 149 0 q 111 13 126 0 q 96 56 96 26 l 96 853 q 100 865 96 860 q 115 874 104 871 q 142 880 125 878 q 185 882 159 882 q 229 880 212 882 q 256 874 245 878 q 270 865 266 871 q 275 853 275 860 l 275 147 l 551 147 q 563 143 557 147 q 571 131 568 140 q 576 109 574 123 q 578 75 578 95 m 408 900 q 415 914 410 908 q 429 924 420 920 q 454 930 439 928 q 491 932 469 932 q 530 929 515 932 q 551 923 545 927 q 558 912 558 919 q 556 898 559 906 l 472 685 q 465 673 469 677 q 451 666 460 669 q 429 663 442 664 q 397 662 416 662 q 372 664 381 662 q 358 669 363 665 q 353 678 354 672 q 355 693 353 684 l 408 900 m 283 651 z "},"Ļ":{"ha":587,"x_min":96,"x_max":578,"o":"m 578 75 q 576 40 578 54 q 571 17 574 26 q 563 4 568 8 q 551 0 557 0 l 149 0 q 111 13 126 0 q 96 56 96 26 l 96 853 q 100 865 96 860 q 115 874 104 871 q 142 880 125 878 q 185 882 159 882 q 229 880 212 882 q 256 874 245 878 q 270 865 266 871 q 275 853 275 860 l 275 147 l 551 147 q 563 143 557 147 q 571 131 568 140 q 576 109 574 123 q 578 75 578 95 m 248 -83 q 255 -70 250 -76 q 271 -61 260 -64 q 299 -56 281 -58 q 343 -55 316 -55 q 386 -58 370 -55 q 409 -65 401 -60 q 415 -78 416 -71 q 410 -95 415 -85 l 344 -224 q 336 -235 340 -231 q 322 -242 331 -239 q 300 -247 314 -245 q 264 -248 286 -248 q 230 -246 243 -248 q 212 -240 218 -244 q 206 -229 206 -235 q 209 -212 206 -222 l 248 -83 z "},"Ł":{"ha":601,"x_min":14,"x_max":591,"o":"m 591 75 q 589 40 591 54 q 584 17 587 26 q 575 4 580 8 q 563 0 570 0 l 161 0 q 123 13 138 0 q 109 56 109 26 l 109 327 l 42 284 q 21 289 28 275 q 14 344 14 303 q 15 376 14 363 q 19 399 16 389 q 27 414 22 408 q 39 425 32 420 l 109 469 l 109 854 q 113 866 109 861 q 127 875 117 871 q 155 880 138 878 q 198 882 172 882 q 241 880 224 882 q 269 875 258 878 q 283 866 279 871 q 288 854 288 861 l 288 581 l 417 662 q 438 657 432 671 q 445 602 445 643 q 444 570 445 583 q 440 548 443 557 q 432 532 437 538 q 420 522 427 526 l 288 439 l 288 147 l 563 147 q 575 143 570 147 q 584 131 580 140 q 589 109 587 123 q 591 75 591 95 z "},"Ŀ":{"ha":780,"x_min":96,"x_max":708,"o":"m 578 75 q 576 40 578 54 q 571 17 574 26 q 563 4 568 8 q 551 0 557 0 l 149 0 q 111 13 126 0 q 96 56 96 26 l 96 853 q 100 865 96 860 q 115 874 104 871 q 142 880 125 878 q 185 882 159 882 q 229 880 212 882 q 256 874 245 878 q 270 865 266 871 q 275 853 275 860 l 275 147 l 551 147 q 563 143 557 147 q 571 131 568 140 q 576 109 574 123 q 578 75 578 95 m 708 454 q 686 369 708 391 q 607 347 664 347 q 528 369 550 347 q 507 450 507 391 q 529 535 507 513 q 608 557 551 557 q 686 536 665 557 q 708 454 708 514 z "},"M":{"ha":1214,"x_min":96,"x_max":1118,"o":"m 1118 24 q 1115 12 1118 18 q 1101 3 1111 7 q 1075 -2 1091 0 q 1034 -4 1059 -4 q 993 -2 1009 -4 q 967 3 977 0 q 954 12 958 7 q 949 24 949 18 l 949 739 l 948 739 l 694 25 q 685 11 691 16 q 668 1 679 5 q 642 -3 658 -2 q 602 -4 625 -4 q 563 -2 579 -4 q 536 3 547 -1 q 519 12 526 7 q 511 25 513 18 l 266 739 l 264 739 l 264 24 q 261 12 264 18 q 247 3 257 7 q 221 -2 237 0 q 180 -4 205 -4 q 139 -2 155 -4 q 113 3 123 0 q 99 12 103 7 q 96 24 96 18 l 96 806 q 114 859 96 841 q 163 878 132 878 l 279 878 q 333 872 311 878 q 372 856 355 867 q 399 824 388 844 q 418 777 410 805 l 608 254 l 610 254 l 807 775 q 826 823 816 804 q 851 855 837 843 q 884 872 865 867 q 928 878 903 878 l 1048 878 q 1079 873 1066 878 q 1101 859 1093 868 q 1114 837 1109 850 q 1118 806 1118 823 l 1118 24 z "},"N":{"ha":915,"x_min":96,"x_max":819,"o":"m 819 62 q 814 35 819 47 q 799 14 808 22 q 778 2 790 6 q 752 -1 765 -1 l 676 -1 q 635 3 652 -1 q 603 21 618 8 q 575 55 589 33 q 545 110 562 76 l 326 520 q 288 599 307 557 q 252 682 268 642 l 251 682 q 255 584 254 633 q 256 484 256 536 l 256 25 q 253 13 256 18 q 240 4 249 7 q 215 -2 231 0 q 175 -4 199 -4 q 136 -2 151 -4 q 111 4 120 0 q 99 13 102 7 q 96 25 96 18 l 96 814 q 114 862 96 846 q 160 878 133 878 l 256 878 q 299 873 281 878 q 331 859 317 869 q 357 830 345 848 q 382 786 369 812 l 553 465 q 582 408 568 436 q 610 352 597 380 q 637 296 624 323 q 662 242 650 269 l 663 242 q 660 341 661 290 q 659 439 659 393 l 659 851 q 663 863 659 858 q 676 873 667 869 q 701 879 686 877 q 741 880 717 880 q 780 879 764 880 q 804 873 795 877 q 816 863 812 869 q 819 851 819 858 l 819 62 z "},"Ń":{"ha":915,"x_min":96,"x_max":819,"o":"m 819 62 q 814 35 819 47 q 799 14 808 22 q 778 2 790 6 q 752 -1 765 -1 l 676 -1 q 635 3 652 -1 q 603 21 618 8 q 575 55 589 33 q 545 110 562 76 l 326 520 q 288 599 307 557 q 252 682 268 642 l 251 682 q 255 584 254 633 q 256 484 256 536 l 256 25 q 253 13 256 18 q 240 4 249 7 q 215 -2 231 0 q 175 -4 199 -4 q 136 -2 151 -4 q 111 4 120 0 q 99 13 102 7 q 96 25 96 18 l 96 814 q 114 862 96 846 q 160 878 133 878 l 256 878 q 299 873 281 878 q 331 859 317 869 q 357 830 345 848 q 382 786 369 812 l 553 465 q 582 408 568 436 q 610 352 597 380 q 637 296 624 323 q 662 242 650 269 l 663 242 q 660 341 661 290 q 659 439 659 393 l 659 851 q 663 863 659 858 q 676 873 667 869 q 701 879 686 877 q 741 880 717 880 q 780 879 764 880 q 804 873 795 877 q 816 863 812 869 q 819 851 819 858 l 819 62 m 524 1114 q 541 1131 532 1124 q 561 1140 549 1137 q 590 1144 573 1143 q 632 1145 607 1145 q 681 1141 663 1145 q 704 1131 698 1137 q 707 1116 711 1124 q 694 1099 704 1108 l 544 964 q 530 953 537 958 q 513 946 523 949 q 488 941 503 943 q 453 940 474 940 q 416 942 430 940 q 396 948 402 944 q 392 960 391 953 q 401 976 393 966 l 524 1114 m 322 878 z "},"Ň":{"ha":915,"x_min":96,"x_max":819,"o":"m 819 62 q 814 35 819 47 q 799 14 808 22 q 778 2 790 6 q 752 -1 765 -1 l 676 -1 q 635 3 652 -1 q 603 21 618 8 q 575 55 589 33 q 545 110 562 76 l 326 520 q 288 599 307 557 q 252 682 268 642 l 251 682 q 255 584 254 633 q 256 484 256 536 l 256 25 q 253 13 256 18 q 240 4 249 7 q 215 -2 231 0 q 175 -4 199 -4 q 136 -2 151 -4 q 111 4 120 0 q 99 13 102 7 q 96 25 96 18 l 96 814 q 114 862 96 846 q 160 878 133 878 l 256 878 q 299 873 281 878 q 331 859 317 869 q 357 830 345 848 q 382 786 369 812 l 553 465 q 582 408 568 436 q 610 352 597 380 q 637 296 624 323 q 662 242 650 269 l 663 242 q 660 341 661 290 q 659 439 659 393 l 659 851 q 663 863 659 858 q 676 873 667 869 q 701 879 686 877 q 741 880 717 880 q 780 879 764 880 q 804 873 795 877 q 816 863 812 869 q 819 851 819 858 l 819 62 m 460 940 q 423 941 438 940 q 398 944 408 941 q 379 953 387 947 q 363 968 372 959 l 229 1113 q 218 1129 220 1123 q 222 1139 216 1136 q 242 1144 228 1143 q 280 1145 257 1145 q 326 1144 308 1145 q 354 1141 343 1143 q 370 1135 364 1139 q 381 1124 376 1131 l 461 1031 l 545 1123 q 556 1134 550 1130 q 572 1141 562 1139 q 600 1144 583 1143 q 645 1145 616 1145 q 682 1144 668 1145 q 701 1138 695 1142 q 705 1128 707 1135 q 696 1113 703 1122 l 564 968 q 547 954 556 959 q 527 945 538 948 q 499 941 515 942 q 460 940 483 940 m 149 878 z "},"Ñ":{"ha":915,"x_min":96,"x_max":819,"o":"m 819 62 q 814 35 819 47 q 799 14 808 22 q 778 2 790 6 q 752 -1 765 -1 l 676 -1 q 635 3 652 -1 q 603 21 618 8 q 575 55 589 33 q 545 110 562 76 l 326 520 q 288 599 307 557 q 252 682 268 642 l 251 682 q 255 584 254 633 q 256 484 256 536 l 256 25 q 253 13 256 18 q 240 4 249 7 q 215 -2 231 0 q 175 -4 199 -4 q 136 -2 151 -4 q 111 4 120 0 q 99 13 102 7 q 96 25 96 18 l 96 814 q 114 862 96 846 q 160 878 133 878 l 256 878 q 299 873 281 878 q 331 859 317 869 q 357 830 345 848 q 382 786 369 812 l 553 465 q 582 408 568 436 q 610 352 597 380 q 637 296 624 323 q 662 242 650 269 l 663 242 q 660 341 661 290 q 659 439 659 393 l 659 851 q 663 863 659 858 q 676 873 667 869 q 701 879 686 877 q 741 880 717 880 q 780 879 764 880 q 804 873 795 877 q 816 863 812 869 q 819 851 819 858 l 819 62 m 595 1109 q 607 1124 595 1120 q 649 1127 618 1127 q 690 1122 680 1127 q 701 1101 701 1117 q 662 983 701 1023 q 552 942 624 942 q 487 952 513 942 q 439 976 460 963 q 400 999 418 988 q 363 1009 383 1009 q 330 996 340 1009 q 320 960 320 983 q 317 950 320 954 q 307 945 314 947 q 291 943 300 943 q 267 942 281 942 q 225 947 236 942 q 215 968 215 952 q 225 1036 215 1006 q 255 1086 235 1066 q 301 1117 274 1106 q 363 1127 329 1127 q 429 1117 402 1127 q 476 1093 456 1106 q 515 1070 497 1080 q 553 1059 532 1059 q 584 1070 572 1059 q 595 1109 595 1082 m 146 878 z "},"Ņ":{"ha":915,"x_min":96,"x_max":819,"o":"m 819 62 q 814 35 819 47 q 799 14 808 22 q 778 2 790 6 q 752 -1 765 -1 l 676 -1 q 635 3 652 -1 q 603 21 618 8 q 575 55 589 33 q 545 110 562 76 l 326 520 q 288 599 307 557 q 252 682 268 642 l 251 682 q 255 584 254 633 q 256 484 256 536 l 256 25 q 253 13 256 18 q 240 4 249 7 q 215 -2 231 0 q 175 -4 199 -4 q 136 -2 151 -4 q 111 4 120 0 q 99 13 102 7 q 96 25 96 18 l 96 814 q 114 862 96 846 q 160 878 133 878 l 256 878 q 299 873 281 878 q 331 859 317 869 q 357 830 345 848 q 382 786 369 812 l 553 465 q 582 408 568 436 q 610 352 597 380 q 637 296 624 323 q 662 242 650 269 l 663 242 q 660 341 661 290 q 659 439 659 393 l 659 851 q 663 863 659 858 q 676 873 667 869 q 701 879 686 877 q 741 880 717 880 q 780 879 764 880 q 804 873 795 877 q 816 863 812 869 q 819 851 819 858 l 819 62 m 359 -83 q 366 -70 361 -76 q 382 -61 372 -64 q 410 -56 393 -58 q 454 -55 427 -55 q 497 -58 481 -55 q 520 -65 513 -60 q 527 -78 527 -71 q 522 -95 526 -85 l 455 -224 q 447 -235 452 -231 q 434 -242 442 -239 q 411 -247 425 -245 q 376 -248 397 -248 q 341 -246 354 -248 q 323 -240 329 -244 q 317 -229 317 -235 q 320 -212 317 -222 l 359 -83 z "},"Ŋ":{"ha":890,"x_min":96,"x_max":795,"o":"m 795 -5 q 783 -103 795 -58 q 745 -180 771 -148 q 678 -230 720 -212 q 578 -248 637 -248 q 541 -246 558 -248 q 510 -241 524 -244 q 486 -234 496 -238 q 471 -224 476 -229 q 463 -204 466 -218 q 460 -163 460 -190 q 461 -132 460 -144 q 465 -112 463 -119 q 471 -102 468 -105 q 480 -100 475 -100 q 491 -102 486 -100 q 503 -106 496 -104 q 520 -111 510 -109 q 549 -113 531 -113 q 578 -108 566 -113 q 600 -92 591 -103 q 613 -64 608 -81 q 617 -23 617 -47 l 617 0 l 344 477 q 298 560 321 517 q 254 646 275 603 l 254 646 q 257 526 256 587 q 258 407 258 466 l 258 23 q 255 11 258 16 q 242 3 251 6 q 217 -2 233 -1 q 178 -4 201 -4 q 138 -2 154 -4 q 113 3 122 -1 q 99 11 103 6 q 96 23 96 16 l 96 814 q 112 862 96 846 q 156 878 129 878 l 249 878 q 280 874 267 878 q 304 864 293 871 q 324 845 315 857 q 342 817 333 833 l 530 491 q 585 392 558 442 q 636 292 612 341 l 637 292 q 633 402 634 346 q 632 513 632 458 l 632 853 q 636 865 632 860 q 649 873 640 870 q 674 879 659 877 q 713 880 689 880 q 752 879 736 880 q 778 873 768 877 q 791 865 787 870 q 795 853 795 860 l 795 -5 z "},"O":{"ha":939,"x_min":54,"x_max":885,"o":"m 885 449 q 858 254 885 340 q 777 107 831 168 q 645 16 724 47 q 462 -16 566 -16 q 283 11 359 -16 q 156 93 207 38 q 80 233 105 148 q 54 433 54 317 q 81 625 54 540 q 162 770 109 710 q 295 861 216 829 q 478 893 374 893 q 654 867 578 893 q 782 785 730 840 q 859 647 833 730 q 885 449 885 563 m 698 439 q 687 565 698 509 q 650 662 676 622 q 581 725 624 703 q 472 747 537 747 q 362 722 406 747 q 291 656 318 697 q 253 559 264 614 q 241 442 241 504 q 252 313 241 370 q 289 215 263 256 q 358 153 315 174 q 467 132 401 132 q 577 156 533 132 q 648 222 621 180 q 687 320 675 264 q 698 439 698 376 z "},"Ò":{"ha":939,"x_min":54,"x_max":885,"o":"m 885 449 q 858 254 885 340 q 777 107 831 168 q 645 16 724 47 q 462 -16 566 -16 q 283 11 359 -16 q 156 93 207 38 q 80 233 105 148 q 54 433 54 317 q 81 625 54 540 q 162 770 109 710 q 295 861 216 829 q 478 893 374 893 q 654 867 578 893 q 782 785 730 840 q 859 647 833 730 q 885 449 885 563 m 698 439 q 687 565 698 509 q 650 662 676 622 q 581 725 624 703 q 472 747 537 747 q 362 722 406 747 q 291 656 318 697 q 253 559 264 614 q 241 442 241 504 q 252 313 241 370 q 289 215 263 256 q 358 153 315 174 q 467 132 401 132 q 577 156 533 132 q 648 222 621 180 q 687 320 675 264 q 698 439 698 376 m 540 976 q 549 960 547 966 q 545 948 551 953 q 525 942 538 944 q 488 940 511 940 q 453 941 467 940 q 429 946 439 943 q 411 953 418 949 q 397 964 404 958 l 247 1099 q 234 1116 237 1108 q 237 1131 231 1124 q 261 1141 243 1137 q 309 1145 278 1145 q 351 1144 334 1145 q 379 1140 368 1143 q 400 1131 391 1137 q 418 1114 409 1124 l 540 976 m 163 878 z "},"Ó":{"ha":939,"x_min":54,"x_max":885,"o":"m 885 449 q 858 254 885 340 q 777 107 831 168 q 645 16 724 47 q 462 -16 566 -16 q 283 11 359 -16 q 156 93 207 38 q 80 233 105 148 q 54 433 54 317 q 81 625 54 540 q 162 770 109 710 q 295 861 216 829 q 478 893 374 893 q 654 867 578 893 q 782 785 730 840 q 859 647 833 730 q 885 449 885 563 m 698 439 q 687 565 698 509 q 650 662 676 622 q 581 725 624 703 q 472 747 537 747 q 362 722 406 747 q 291 656 318 697 q 253 559 264 614 q 241 442 241 504 q 252 313 241 370 q 289 215 263 256 q 358 153 315 174 q 467 132 401 132 q 577 156 533 132 q 648 222 621 180 q 687 320 675 264 q 698 439 698 376 m 514 1114 q 531 1131 523 1124 q 552 1140 540 1137 q 581 1144 564 1143 q 623 1145 597 1145 q 671 1141 654 1145 q 695 1131 688 1137 q 698 1116 701 1124 q 685 1099 694 1108 l 534 964 q 520 953 528 958 q 503 946 513 949 q 479 941 493 943 q 444 940 465 940 q 407 942 420 940 q 387 948 393 944 q 382 960 381 953 q 392 976 384 966 l 514 1114 m 313 878 z "},"Ô":{"ha":939,"x_min":54,"x_max":885,"o":"m 885 449 q 858 254 885 340 q 777 107 831 168 q 645 16 724 47 q 462 -16 566 -16 q 283 11 359 -16 q 156 93 207 38 q 80 233 105 148 q 54 433 54 317 q 81 625 54 540 q 162 770 109 710 q 295 861 216 829 q 478 893 374 893 q 654 867 578 893 q 782 785 730 840 q 859 647 833 730 q 885 449 885 563 m 698 439 q 687 565 698 509 q 650 662 676 622 q 581 725 624 703 q 472 747 537 747 q 362 722 406 747 q 291 656 318 697 q 253 559 264 614 q 241 442 241 504 q 252 313 241 370 q 289 215 263 256 q 358 153 315 174 q 467 132 401 132 q 577 156 533 132 q 648 222 621 180 q 687 320 675 264 q 698 439 698 376 m 473 1145 q 509 1145 494 1145 q 534 1141 524 1144 q 553 1133 545 1138 q 570 1118 561 1127 l 704 972 q 714 957 713 963 q 710 946 716 950 q 690 941 705 943 q 652 940 676 940 q 607 941 625 940 q 579 944 589 942 q 563 951 568 947 q 551 961 557 955 l 471 1054 l 389 963 q 377 951 382 956 q 360 945 371 947 q 333 941 350 942 q 288 940 316 940 q 251 942 264 940 q 232 947 237 943 q 227 957 226 951 q 237 972 229 963 l 369 1118 q 385 1132 376 1126 q 406 1140 394 1137 q 434 1144 418 1143 q 473 1145 450 1145 m 158 878 z "},"Õ":{"ha":939,"x_min":54,"x_max":885,"o":"m 885 449 q 858 254 885 340 q 777 107 831 168 q 645 16 724 47 q 462 -16 566 -16 q 283 11 359 -16 q 156 93 207 38 q 80 233 105 148 q 54 433 54 317 q 81 625 54 540 q 162 770 109 710 q 295 861 216 829 q 478 893 374 893 q 654 867 578 893 q 782 785 730 840 q 859 647 833 730 q 885 449 885 563 m 698 439 q 687 565 698 509 q 650 662 676 622 q 581 725 624 703 q 472 747 537 747 q 362 722 406 747 q 291 656 318 697 q 253 559 264 614 q 241 442 241 504 q 252 313 241 370 q 289 215 263 256 q 358 153 315 174 q 467 132 401 132 q 577 156 533 132 q 648 222 621 180 q 687 320 675 264 q 698 439 698 376 m 610 1109 q 621 1124 610 1120 q 663 1127 633 1127 q 704 1122 694 1127 q 715 1101 715 1117 q 676 983 715 1023 q 566 942 638 942 q 501 952 528 942 q 453 976 474 963 q 415 999 432 988 q 377 1009 397 1009 q 344 996 354 1009 q 334 960 334 983 q 331 950 334 954 q 321 945 328 947 q 305 943 315 943 q 281 942 295 942 q 240 947 250 942 q 229 968 229 952 q 239 1036 229 1006 q 269 1086 250 1066 q 316 1117 288 1106 q 378 1127 343 1127 q 443 1117 416 1127 q 491 1093 470 1106 q 529 1070 511 1080 q 567 1059 547 1059 q 598 1070 587 1059 q 610 1109 610 1082 m 161 878 z "},"Ö":{"ha":939,"x_min":54,"x_max":885,"o":"m 885 449 q 858 254 885 340 q 777 107 831 168 q 645 16 724 47 q 462 -16 566 -16 q 283 11 359 -16 q 156 93 207 38 q 80 233 105 148 q 54 433 54 317 q 81 625 54 540 q 162 770 109 710 q 295 861 216 829 q 478 893 374 893 q 654 867 578 893 q 782 785 730 840 q 859 647 833 730 q 885 449 885 563 m 698 439 q 687 565 698 509 q 650 662 676 622 q 581 725 624 703 q 472 747 537 747 q 362 722 406 747 q 291 656 318 697 q 253 559 264 614 q 241 442 241 504 q 252 313 241 370 q 289 215 263 256 q 358 153 315 174 q 467 132 401 132 q 577 156 533 132 q 648 222 621 180 q 687 320 675 264 q 698 439 698 376 m 412 1040 q 394 974 412 993 q 323 955 375 955 q 252 973 271 955 q 234 1038 234 991 q 253 1104 234 1086 q 323 1123 272 1123 q 394 1105 376 1123 q 412 1040 412 1087 m 709 1040 q 690 974 709 993 q 618 955 671 955 q 548 973 566 955 q 530 1038 530 991 q 549 1104 530 1086 q 620 1123 568 1123 q 690 1105 672 1123 q 709 1040 709 1087 m 165 878 z "},"Ō":{"ha":939,"x_min":54,"x_max":885,"o":"m 885 449 q 858 254 885 340 q 777 107 831 168 q 645 16 724 47 q 462 -16 566 -16 q 283 11 359 -16 q 156 93 207 38 q 80 233 105 148 q 54 433 54 317 q 81 625 54 540 q 162 770 109 710 q 295 861 216 829 q 478 893 374 893 q 654 867 578 893 q 782 785 730 840 q 859 647 833 730 q 885 449 885 563 m 698 439 q 687 565 698 509 q 650 662 676 622 q 581 725 624 703 q 472 747 537 747 q 362 722 406 747 q 291 656 318 697 q 253 559 264 614 q 241 442 241 504 q 252 313 241 370 q 289 215 263 256 q 358 153 315 174 q 467 132 401 132 q 577 156 533 132 q 648 222 621 180 q 687 320 675 264 q 698 439 698 376 m 673 1096 q 685 1093 680 1096 q 694 1082 690 1089 q 699 1063 697 1075 q 700 1033 700 1050 q 699 1003 700 1015 q 694 984 697 991 q 685 974 690 977 q 673 970 680 970 l 273 970 q 259 974 264 970 q 250 984 253 977 q 244 1003 246 991 q 243 1033 243 1015 q 244 1062 243 1050 q 250 1082 246 1074 q 259 1093 253 1089 q 273 1096 264 1096 l 673 1096 m 174 878 z "},"Ŏ":{"ha":939,"x_min":54,"x_max":885,"o":"m 885 449 q 858 254 885 340 q 777 107 831 168 q 645 16 724 47 q 462 -16 566 -16 q 283 11 359 -16 q 156 93 207 38 q 80 233 105 148 q 54 433 54 317 q 81 625 54 540 q 162 770 109 710 q 295 861 216 829 q 478 893 374 893 q 654 867 578 893 q 782 785 730 840 q 859 647 833 730 q 885 449 885 563 m 698 439 q 687 565 698 509 q 650 662 676 622 q 581 725 624 703 q 472 747 537 747 q 362 722 406 747 q 291 656 318 697 q 253 559 264 614 q 241 442 241 504 q 252 313 241 370 q 289 215 263 256 q 358 153 315 174 q 467 132 401 132 q 577 156 533 132 q 648 222 621 180 q 687 320 675 264 q 698 439 698 376 m 674 1126 q 661 1049 674 1084 q 623 990 648 1015 q 558 953 597 966 q 470 940 520 940 q 379 954 417 940 q 316 991 340 967 q 279 1050 291 1015 q 267 1126 267 1084 q 279 1145 267 1140 q 324 1151 291 1151 q 370 1146 357 1151 q 384 1129 383 1141 q 391 1100 385 1118 q 407 1071 397 1082 q 433 1054 418 1060 q 471 1048 449 1048 q 519 1060 500 1048 q 547 1088 538 1071 q 557 1121 555 1105 q 570 1144 559 1138 q 614 1151 581 1151 q 662 1145 649 1151 q 674 1126 674 1140 m 198 878 z "},"Ő":{"ha":939,"x_min":54,"x_max":885,"o":"m 885 449 q 858 254 885 340 q 777 107 831 168 q 645 16 724 47 q 462 -16 566 -16 q 283 11 359 -16 q 156 93 207 38 q 80 233 105 148 q 54 433 54 317 q 81 625 54 540 q 162 770 109 710 q 295 861 216 829 q 478 893 374 893 q 654 867 578 893 q 782 785 730 840 q 859 647 833 730 q 885 449 885 563 m 698 439 q 687 565 698 509 q 650 662 676 622 q 581 725 624 703 q 472 747 537 747 q 362 722 406 747 q 291 656 318 697 q 253 559 264 614 q 241 442 241 504 q 252 313 241 370 q 289 215 263 256 q 358 153 315 174 q 467 132 401 132 q 577 156 533 132 q 648 222 621 180 q 687 320 675 264 q 698 439 698 376 m 394 956 q 382 947 389 950 q 367 942 376 944 q 345 940 358 941 q 313 940 332 940 q 266 947 277 940 q 265 969 255 955 l 376 1126 q 388 1138 380 1133 q 407 1145 395 1142 q 436 1149 419 1148 q 475 1151 452 1151 q 532 1148 511 1151 q 561 1142 553 1146 q 567 1131 569 1137 q 555 1116 564 1124 l 394 956 m 688 957 q 674 947 681 951 q 659 942 668 944 q 636 940 650 941 q 602 940 623 940 q 568 942 582 940 q 548 947 555 943 q 540 955 541 950 q 544 966 539 960 l 668 1126 q 679 1137 672 1133 q 698 1145 686 1141 q 728 1149 710 1148 q 775 1151 747 1151 q 827 1148 808 1151 q 856 1141 847 1146 q 862 1129 864 1136 q 852 1115 861 1123 l 688 957 m 191 878 z "},"Ø":{"ha":945,"x_min":54,"x_max":891,"o":"m 891 449 q 864 254 891 340 q 782 107 836 168 q 649 16 728 47 q 465 -16 569 -16 q 396 -11 429 -16 q 336 1 363 -7 l 272 -130 q 264 -140 269 -136 q 249 -146 258 -144 q 227 -150 240 -149 q 194 -151 213 -151 q 154 -149 170 -151 q 132 -141 139 -146 q 124 -129 125 -136 q 127 -113 123 -122 l 208 50 q 141 112 170 76 q 93 195 113 148 q 64 301 74 242 q 54 433 54 361 q 81 625 54 540 q 162 770 109 710 q 296 861 216 829 q 481 893 376 893 q 547 889 516 893 q 610 876 578 884 l 671 1003 q 680 1012 674 1008 q 694 1019 685 1016 q 717 1023 703 1021 q 750 1024 731 1024 q 789 1021 774 1024 q 812 1014 804 1019 q 820 1002 819 1008 q 816 986 820 995 l 738 826 q 804 763 775 800 q 852 680 833 727 q 881 576 871 633 q 891 449 891 518 m 711 444 q 697 566 711 511 q 654 663 684 621 l 399 140 q 433 131 415 134 q 473 127 450 127 q 586 152 541 127 q 659 218 631 176 q 699 319 687 261 q 711 444 711 376 m 548 738 q 514 748 532 745 q 473 751 496 751 q 359 727 404 751 q 286 660 313 702 q 247 561 258 617 q 235 441 235 505 q 248 313 235 371 q 291 215 261 256 l 548 738 z "},"Ǿ":{"ha":945,"x_min":54,"x_max":891,"o":"m 891 449 q 864 254 891 340 q 782 107 836 168 q 649 16 728 47 q 465 -16 569 -16 q 396 -11 429 -16 q 336 1 363 -7 l 272 -130 q 264 -140 269 -136 q 249 -146 258 -144 q 227 -150 240 -149 q 194 -151 213 -151 q 154 -149 170 -151 q 132 -141 139 -146 q 124 -129 125 -136 q 127 -113 123 -122 l 208 50 q 141 112 170 76 q 93 195 113 148 q 64 301 74 242 q 54 433 54 361 q 81 625 54 540 q 162 770 109 710 q 296 861 216 829 q 481 893 376 893 q 547 889 516 893 q 610 876 578 884 l 671 1003 q 680 1012 674 1008 q 694 1019 685 1016 q 717 1023 703 1021 q 750 1024 731 1024 q 789 1021 774 1024 q 812 1014 804 1019 q 820 1002 819 1008 q 816 986 820 995 l 738 826 q 804 763 775 800 q 852 680 833 727 q 881 576 871 633 q 891 449 891 518 m 711 444 q 697 566 711 511 q 654 663 684 621 l 399 140 q 433 131 415 134 q 473 127 450 127 q 586 152 541 127 q 659 218 631 176 q 699 319 687 261 q 711 444 711 376 m 548 738 q 514 748 532 745 q 473 751 496 751 q 359 727 404 751 q 286 660 313 702 q 247 561 258 617 q 235 441 235 505 q 248 313 235 371 q 291 215 261 256 l 548 738 m 445 1114 q 462 1131 454 1124 q 483 1140 471 1137 q 511 1144 494 1143 q 553 1145 528 1145 q 602 1141 585 1145 q 626 1131 619 1137 q 629 1116 632 1124 q 616 1099 625 1108 l 465 964 q 451 953 458 958 q 434 946 444 949 q 410 941 424 943 q 374 940 395 940 q 337 942 351 940 q 318 948 323 944 q 313 960 312 953 q 323 976 315 966 l 445 1114 m 243 878 z "},"Œ":{"ha":1214,"x_min":54,"x_max":1151,"o":"m 1151 70 q 1149 37 1151 50 q 1144 16 1147 24 q 1136 4 1141 7 q 1124 0 1131 0 l 694 0 q 669 6 681 0 q 654 26 658 12 q 567 -5 616 5 q 462 -16 518 -16 q 283 11 359 -16 q 156 92 207 37 q 80 232 105 146 q 54 434 54 317 q 81 626 54 541 q 162 770 109 711 q 295 861 216 829 q 478 893 374 893 q 574 883 528 893 q 653 857 621 873 q 670 873 659 869 q 693 878 680 878 l 1122 878 q 1133 874 1128 878 q 1141 862 1137 871 q 1146 841 1144 854 q 1147 807 1147 827 q 1146 775 1147 788 q 1141 753 1144 762 q 1133 742 1137 745 q 1122 738 1128 738 l 808 738 l 808 523 l 1074 523 q 1085 519 1080 523 q 1093 508 1090 516 q 1098 487 1097 500 q 1100 454 1100 473 q 1098 421 1100 435 q 1093 400 1097 408 q 1085 389 1090 392 q 1074 385 1080 385 l 808 385 l 808 140 l 1124 140 q 1136 136 1131 140 q 1144 124 1141 132 q 1149 103 1147 116 q 1151 70 1151 90 m 631 699 q 557 735 595 723 q 472 747 518 747 q 362 722 406 747 q 291 656 318 698 q 253 560 264 615 q 241 444 241 505 q 252 313 241 371 q 289 215 263 256 q 358 153 315 174 q 467 132 401 132 q 556 144 515 132 q 631 183 596 157 l 631 699 z "},"P":{"ha":739,"x_min":96,"x_max":696,"o":"m 696 611 q 673 480 696 537 q 606 384 650 423 q 498 325 562 345 q 347 304 434 304 l 274 304 l 274 24 q 270 12 274 18 q 255 3 265 7 q 228 -2 245 0 q 184 -4 211 -4 q 141 -2 159 -4 q 114 3 124 0 q 100 12 104 7 q 96 24 96 18 l 96 814 q 112 862 96 846 q 156 878 129 878 l 363 878 q 422 875 394 878 q 490 865 450 873 q 569 836 529 857 q 638 783 610 815 q 682 708 667 751 q 696 611 696 665 m 510 598 q 494 674 510 644 q 454 718 477 704 q 404 736 430 732 q 350 740 378 740 l 274 740 l 274 442 l 354 442 q 426 454 397 442 q 473 486 454 465 q 500 535 491 507 q 510 598 510 564 z "},"Þ":{"ha":739,"x_min":96,"x_max":696,"o":"m 696 471 q 674 340 696 397 q 607 244 651 283 q 500 184 564 205 q 356 164 437 164 l 274 164 l 274 20 q 270 8 274 14 q 255 0 265 3 q 228 -5 245 -3 q 184 -6 211 -6 q 141 -5 159 -6 q 114 0 124 -3 q 100 8 104 3 q 96 20 96 14 l 96 856 q 100 868 96 863 q 114 876 104 873 q 141 881 124 880 q 184 883 159 883 q 228 881 211 883 q 255 876 245 880 q 270 868 265 873 q 274 856 274 863 l 274 737 l 363 737 q 422 735 394 737 q 479 727 451 732 q 570 696 530 718 q 638 643 610 675 q 682 567 667 610 q 696 471 696 524 m 510 458 q 488 544 510 509 q 420 591 465 578 q 388 598 405 597 q 351 600 370 600 l 274 600 l 274 302 l 366 302 q 429 314 402 302 q 474 346 456 326 q 501 395 492 366 q 510 458 510 424 z "},"Q":{"ha":953,"x_min":54,"x_max":968,"o":"m 968 -83 q 965 -123 968 -108 q 959 -146 963 -138 q 950 -156 955 -154 q 940 -159 945 -159 q 881 -146 918 -159 q 803 -112 845 -134 q 717 -56 761 -89 q 636 20 673 -23 q 561 -5 605 5 q 462 -16 516 -16 q 283 11 359 -16 q 156 92 207 37 q 80 232 105 146 q 54 434 54 317 q 81 626 54 541 q 162 770 109 711 q 295 861 216 829 q 478 893 374 893 q 652 867 576 893 q 780 786 728 840 q 858 648 831 731 q 885 450 885 564 q 877 339 885 391 q 854 243 869 288 q 818 163 840 199 q 768 98 796 126 q 843 43 810 62 q 898 14 876 24 q 933 0 920 5 q 954 -11 946 -4 q 964 -36 961 -18 q 968 -83 968 -53 m 698 441 q 687 566 698 509 q 650 662 676 622 q 581 725 624 703 q 472 747 537 747 q 362 722 406 747 q 291 656 318 698 q 253 560 264 615 q 241 444 241 505 q 252 313 241 371 q 289 215 263 256 q 358 153 315 174 q 467 132 401 132 q 577 156 533 132 q 648 222 621 180 q 687 321 675 264 q 698 441 698 377 z "},"R":{"ha":782,"x_min":96,"x_max":747,"o":"m 747 23 q 744 11 747 16 q 731 2 741 5 q 701 -3 721 -1 q 648 -4 682 -4 q 602 -3 619 -4 q 575 2 585 -1 q 562 12 566 6 q 555 26 557 18 l 476 222 q 448 281 462 255 q 418 324 435 307 q 380 350 401 341 q 330 359 358 359 l 274 359 l 274 24 q 270 12 274 18 q 255 3 265 7 q 228 -2 245 0 q 184 -4 211 -4 q 141 -2 159 -4 q 114 3 124 0 q 100 12 104 7 q 96 24 96 18 l 96 821 q 111 864 96 851 q 149 878 126 878 l 376 878 q 433 876 410 878 q 473 873 455 875 q 569 847 526 865 q 641 799 611 829 q 686 729 670 770 q 701 637 701 689 q 690 556 701 593 q 657 492 679 520 q 604 442 635 463 q 531 408 572 421 q 568 385 551 399 q 601 352 585 372 q 629 308 616 333 q 656 252 643 283 l 730 79 q 743 42 740 54 q 747 23 747 30 m 517 618 q 497 692 517 662 q 433 734 477 722 q 402 739 419 737 q 354 741 385 741 l 274 741 l 274 492 l 365 492 q 431 502 403 492 q 479 527 460 511 q 507 567 498 544 q 517 618 517 590 z "},"Ŕ":{"ha":782,"x_min":96,"x_max":747,"o":"m 747 23 q 744 11 747 16 q 731 2 741 5 q 701 -3 721 -1 q 648 -4 682 -4 q 602 -3 619 -4 q 575 2 585 -1 q 562 12 566 6 q 555 26 557 18 l 476 222 q 448 281 462 255 q 418 324 435 307 q 380 350 401 341 q 330 359 358 359 l 274 359 l 274 24 q 270 12 274 18 q 255 3 265 7 q 228 -2 245 0 q 184 -4 211 -4 q 141 -2 159 -4 q 114 3 124 0 q 100 12 104 7 q 96 24 96 18 l 96 821 q 111 864 96 851 q 149 878 126 878 l 376 878 q 433 876 410 878 q 473 873 455 875 q 569 847 526 865 q 641 799 611 829 q 686 729 670 770 q 701 637 701 689 q 690 556 701 593 q 657 492 679 520 q 604 442 635 463 q 531 408 572 421 q 568 385 551 399 q 601 352 585 372 q 629 308 616 333 q 656 252 643 283 l 730 79 q 743 42 740 54 q 747 23 747 30 m 517 618 q 497 692 517 662 q 433 734 477 722 q 402 739 419 737 q 354 741 385 741 l 274 741 l 274 492 l 365 492 q 431 502 403 492 q 479 527 460 511 q 507 567 498 544 q 517 618 517 590 m 414 1114 q 432 1131 423 1124 q 452 1140 440 1137 q 481 1144 464 1143 q 523 1145 498 1145 q 571 1141 554 1145 q 595 1131 589 1137 q 598 1116 602 1124 q 585 1099 595 1108 l 435 964 q 421 953 428 958 q 404 946 414 949 q 379 941 393 943 q 344 940 365 940 q 307 942 321 940 q 287 948 293 944 q 283 960 281 953 q 292 976 284 966 l 414 1114 m 213 878 z "},"Ř":{"ha":782,"x_min":72,"x_max":747,"o":"m 747 23 q 744 11 747 16 q 731 2 741 5 q 701 -3 721 -1 q 648 -4 682 -4 q 602 -3 619 -4 q 575 2 585 -1 q 562 12 566 6 q 555 26 557 18 l 476 222 q 448 281 462 255 q 418 324 435 307 q 380 350 401 341 q 330 359 358 359 l 274 359 l 274 24 q 270 12 274 18 q 255 3 265 7 q 228 -2 245 0 q 184 -4 211 -4 q 141 -2 159 -4 q 114 3 124 0 q 100 12 104 7 q 96 24 96 18 l 96 821 q 111 864 96 851 q 149 878 126 878 l 376 878 q 433 876 410 878 q 473 873 455 875 q 569 847 526 865 q 641 799 611 829 q 686 729 670 770 q 701 637 701 689 q 690 556 701 593 q 657 492 679 520 q 604 442 635 463 q 531 408 572 421 q 568 385 551 399 q 601 352 585 372 q 629 308 616 333 q 656 252 643 283 l 730 79 q 743 42 740 54 q 747 23 747 30 m 517 618 q 497 692 517 662 q 433 734 477 722 q 402 739 419 737 q 354 741 385 741 l 274 741 l 274 492 l 365 492 q 431 502 403 492 q 479 527 460 511 q 507 567 498 544 q 517 618 517 590 m 383 940 q 347 941 361 940 q 321 944 332 941 q 303 953 311 947 q 286 968 295 959 l 152 1113 q 141 1129 143 1123 q 145 1139 140 1136 q 166 1144 151 1143 q 203 1145 180 1145 q 249 1144 231 1145 q 277 1141 267 1143 q 293 1135 288 1139 q 304 1124 299 1131 l 385 1031 l 468 1123 q 479 1134 473 1130 q 495 1141 485 1139 q 523 1144 506 1143 q 568 1145 540 1145 q 605 1144 591 1145 q 624 1138 618 1142 q 628 1128 630 1135 q 619 1113 627 1122 l 487 968 q 471 954 479 959 q 450 945 462 948 q 422 941 438 942 q 383 940 406 940 m 72 878 z "},"Ŗ":{"ha":782,"x_min":96,"x_max":747,"o":"m 747 23 q 744 11 747 16 q 731 2 741 5 q 701 -3 721 -1 q 648 -4 682 -4 q 602 -3 619 -4 q 575 2 585 -1 q 562 12 566 6 q 555 26 557 18 l 476 222 q 448 281 462 255 q 418 324 435 307 q 380 350 401 341 q 330 359 358 359 l 274 359 l 274 24 q 270 12 274 18 q 255 3 265 7 q 228 -2 245 0 q 184 -4 211 -4 q 141 -2 159 -4 q 114 3 124 0 q 100 12 104 7 q 96 24 96 18 l 96 821 q 111 864 96 851 q 149 878 126 878 l 376 878 q 433 876 410 878 q 473 873 455 875 q 569 847 526 865 q 641 799 611 829 q 686 729 670 770 q 701 637 701 689 q 690 556 701 593 q 657 492 679 520 q 604 442 635 463 q 531 408 572 421 q 568 385 551 399 q 601 352 585 372 q 629 308 616 333 q 656 252 643 283 l 730 79 q 743 42 740 54 q 747 23 747 30 m 517 618 q 497 692 517 662 q 433 734 477 722 q 402 739 419 737 q 354 741 385 741 l 274 741 l 274 492 l 365 492 q 431 502 403 492 q 479 527 460 511 q 507 567 498 544 q 517 618 517 590 m 319 -83 q 327 -70 321 -76 q 343 -61 332 -64 q 371 -56 353 -58 q 415 -55 388 -55 q 458 -58 442 -55 q 480 -65 473 -60 q 487 -78 488 -71 q 482 -95 487 -85 l 416 -224 q 408 -235 412 -231 q 394 -242 403 -239 q 372 -247 386 -245 q 336 -248 358 -248 q 302 -246 315 -248 q 284 -240 290 -244 q 278 -229 278 -235 q 281 -212 278 -222 l 319 -83 z "},"S":{"ha":656,"x_min":43,"x_max":616,"o":"m 616 263 q 590 142 616 194 q 520 55 564 90 q 417 2 476 20 q 291 -16 358 -16 q 207 -8 245 -16 q 138 10 168 -1 q 88 32 108 20 q 59 52 68 43 q 46 78 50 61 q 43 125 43 94 q 44 161 43 146 q 48 184 45 175 q 57 196 52 193 q 68 200 62 200 q 95 189 78 200 q 140 164 113 178 q 204 139 167 151 q 292 128 242 128 q 350 136 324 128 q 394 158 376 144 q 421 193 412 172 q 431 240 431 214 q 414 291 431 270 q 372 329 398 313 q 313 360 346 346 q 244 391 279 375 q 176 428 209 408 q 116 478 142 449 q 74 546 90 507 q 58 640 58 585 q 81 751 58 703 q 144 830 104 799 q 238 878 184 862 q 352 893 292 893 q 414 888 383 893 q 473 876 446 884 q 521 857 500 867 q 549 840 542 847 q 558 829 555 833 q 562 816 560 824 q 564 797 564 808 q 565 767 565 785 q 564 734 565 747 q 561 711 563 720 q 554 699 558 703 q 542 694 549 694 q 518 704 534 694 q 478 725 502 713 q 423 745 454 736 q 355 754 392 754 q 304 747 326 754 q 268 727 282 740 q 246 697 253 715 q 239 660 239 680 q 255 609 239 631 q 297 571 271 588 q 358 540 324 555 q 427 509 392 526 q 496 472 463 493 q 557 423 530 452 q 600 355 583 394 q 616 263 616 316 z "},"Ś":{"ha":656,"x_min":43,"x_max":616,"o":"m 616 263 q 590 142 616 194 q 520 55 564 90 q 417 2 476 20 q 291 -16 358 -16 q 207 -8 245 -16 q 138 10 168 -1 q 88 32 108 20 q 59 52 68 43 q 46 78 50 61 q 43 125 43 94 q 44 161 43 146 q 48 184 45 175 q 57 196 52 193 q 68 200 62 200 q 95 189 78 200 q 140 164 113 178 q 204 139 167 151 q 292 128 242 128 q 350 136 324 128 q 394 158 376 144 q 421 193 412 172 q 431 240 431 214 q 414 291 431 270 q 372 329 398 313 q 313 360 346 346 q 244 391 279 375 q 176 428 209 408 q 116 478 142 449 q 74 546 90 507 q 58 640 58 585 q 81 751 58 703 q 144 830 104 799 q 238 878 184 862 q 352 893 292 893 q 414 888 383 893 q 473 876 446 884 q 521 857 500 867 q 549 840 542 847 q 558 829 555 833 q 562 816 560 824 q 564 797 564 808 q 565 767 565 785 q 564 734 565 747 q 561 711 563 720 q 554 699 558 703 q 542 694 549 694 q 518 704 534 694 q 478 725 502 713 q 423 745 454 736 q 355 754 392 754 q 304 747 326 754 q 268 727 282 740 q 246 697 253 715 q 239 660 239 680 q 255 609 239 631 q 297 571 271 588 q 358 540 324 555 q 427 509 392 526 q 496 472 463 493 q 557 423 530 452 q 600 355 583 394 q 616 263 616 316 m 387 1114 q 404 1131 395 1124 q 424 1140 412 1137 q 453 1144 436 1143 q 495 1145 470 1145 q 544 1141 526 1145 q 567 1131 561 1137 q 570 1116 574 1124 q 557 1099 567 1108 l 407 964 q 393 953 400 958 q 376 946 386 949 q 351 941 366 943 q 316 940 337 940 q 279 942 293 940 q 259 948 265 944 q 255 960 254 953 q 264 976 256 966 l 387 1114 m 185 878 z "},"Ŝ":{"ha":656,"x_min":21,"x_max":616,"o":"m 616 263 q 590 142 616 194 q 520 55 564 90 q 417 2 476 20 q 291 -16 358 -16 q 207 -8 245 -16 q 138 10 168 -1 q 88 32 108 20 q 59 52 68 43 q 46 78 50 61 q 43 125 43 94 q 44 161 43 146 q 48 184 45 175 q 57 196 52 193 q 68 200 62 200 q 95 189 78 200 q 140 164 113 178 q 204 139 167 151 q 292 128 242 128 q 350 136 324 128 q 394 158 376 144 q 421 193 412 172 q 431 240 431 214 q 414 291 431 270 q 372 329 398 313 q 313 360 346 346 q 244 391 279 375 q 176 428 209 408 q 116 478 142 449 q 74 546 90 507 q 58 640 58 585 q 81 751 58 703 q 144 830 104 799 q 238 878 184 862 q 352 893 292 893 q 414 888 383 893 q 473 876 446 884 q 521 857 500 867 q 549 840 542 847 q 558 829 555 833 q 562 816 560 824 q 564 797 564 808 q 565 767 565 785 q 564 734 565 747 q 561 711 563 720 q 554 699 558 703 q 542 694 549 694 q 518 704 534 694 q 478 725 502 713 q 423 745 454 736 q 355 754 392 754 q 304 747 326 754 q 268 727 282 740 q 246 697 253 715 q 239 660 239 680 q 255 609 239 631 q 297 571 271 588 q 358 540 324 555 q 427 509 392 526 q 496 472 463 493 q 557 423 530 452 q 600 355 583 394 q 616 263 616 316 m 336 1145 q 372 1145 357 1145 q 397 1141 387 1144 q 416 1133 408 1138 q 433 1118 424 1127 l 567 972 q 577 957 576 963 q 573 946 579 950 q 553 941 568 943 q 515 940 539 940 q 470 941 488 940 q 442 944 452 942 q 426 951 431 947 q 414 961 420 955 l 334 1054 l 252 963 q 240 951 245 956 q 223 945 234 947 q 196 941 213 942 q 151 940 179 940 q 114 942 127 940 q 95 947 100 943 q 90 957 89 951 q 100 972 92 963 l 232 1118 q 248 1132 239 1126 q 269 1140 257 1137 q 297 1144 281 1143 q 336 1145 313 1145 m 21 878 z "},"Š":{"ha":656,"x_min":24,"x_max":616,"o":"m 616 263 q 590 142 616 194 q 520 55 564 90 q 417 2 476 20 q 291 -16 358 -16 q 207 -8 245 -16 q 138 10 168 -1 q 88 32 108 20 q 59 52 68 43 q 46 78 50 61 q 43 125 43 94 q 44 161 43 146 q 48 184 45 175 q 57 196 52 193 q 68 200 62 200 q 95 189 78 200 q 140 164 113 178 q 204 139 167 151 q 292 128 242 128 q 350 136 324 128 q 394 158 376 144 q 421 193 412 172 q 431 240 431 214 q 414 291 431 270 q 372 329 398 313 q 313 360 346 346 q 244 391 279 375 q 176 428 209 408 q 116 478 142 449 q 74 546 90 507 q 58 640 58 585 q 81 751 58 703 q 144 830 104 799 q 238 878 184 862 q 352 893 292 893 q 414 888 383 893 q 473 876 446 884 q 521 857 500 867 q 549 840 542 847 q 558 829 555 833 q 562 816 560 824 q 564 797 564 808 q 565 767 565 785 q 564 734 565 747 q 561 711 563 720 q 554 699 558 703 q 542 694 549 694 q 518 704 534 694 q 478 725 502 713 q 423 745 454 736 q 355 754 392 754 q 304 747 326 754 q 268 727 282 740 q 246 697 253 715 q 239 660 239 680 q 255 609 239 631 q 297 571 271 588 q 358 540 324 555 q 427 509 392 526 q 496 472 463 493 q 557 423 530 452 q 600 355 583 394 q 616 263 616 316 m 335 940 q 298 941 313 940 q 273 944 283 941 q 255 953 262 947 q 238 968 247 959 l 104 1113 q 93 1129 95 1123 q 97 1139 92 1136 q 118 1144 103 1143 q 155 1145 132 1145 q 201 1144 183 1145 q 229 1141 218 1143 q 245 1135 239 1139 q 256 1124 251 1131 l 336 1031 l 420 1123 q 431 1134 425 1130 q 447 1141 437 1139 q 475 1144 458 1143 q 520 1145 492 1145 q 557 1144 543 1145 q 576 1138 570 1142 q 580 1128 582 1135 q 571 1113 578 1122 l 439 968 q 422 954 431 959 q 402 945 414 948 q 374 941 390 942 q 335 940 358 940 m 24 878 z "},"Ş":{"ha":656,"x_min":43,"x_max":616,"o":"m 376 -7 l 393 -45 q 411 -91 406 -71 q 417 -129 417 -111 q 406 -182 417 -160 q 374 -219 394 -205 q 328 -240 355 -233 q 271 -248 302 -248 q 216 -243 241 -248 q 174 -235 191 -239 q 150 -227 157 -230 q 140 -218 143 -223 q 136 -204 137 -212 q 134 -180 134 -195 q 139 -143 134 -153 q 158 -132 144 -132 l 237 -132 q 266 -124 256 -132 q 276 -100 276 -115 q 273 -82 276 -92 q 264 -61 269 -72 l 243 -13 q 189 -5 215 -11 q 135 11 163 1 q 87 32 106 21 q 59 52 68 43 q 46 78 50 61 q 43 125 43 94 q 44 161 43 146 q 48 184 45 175 q 57 196 52 193 q 68 200 62 200 q 95 189 78 200 q 140 164 113 178 q 204 139 167 151 q 292 128 242 128 q 350 136 324 128 q 394 158 376 144 q 421 193 412 172 q 431 240 431 214 q 414 291 431 270 q 372 329 398 313 q 313 360 346 346 q 244 391 279 375 q 176 428 209 408 q 116 478 142 449 q 74 546 90 507 q 58 640 58 585 q 81 751 58 703 q 144 830 104 799 q 238 878 184 862 q 352 893 292 893 q 414 888 383 893 q 473 876 446 884 q 521 857 500 867 q 549 840 542 847 q 558 829 555 833 q 562 816 560 824 q 564 797 564 808 q 565 767 565 785 q 564 734 565 747 q 561 711 563 720 q 554 699 558 703 q 542 694 549 694 q 518 704 534 694 q 478 725 502 713 q 423 745 454 736 q 355 754 392 754 q 304 747 326 754 q 268 727 282 740 q 246 697 253 715 q 239 660 239 680 q 255 609 239 631 q 297 571 271 588 q 358 540 324 555 q 427 509 392 526 q 496 472 463 493 q 557 423 530 452 q 600 355 583 394 q 616 263 616 316 q 589 139 616 195 q 510 46 562 84 q 376 -7 457 8 z "},"Ș":{"ha":656,"x_min":43,"x_max":616,"o":"m 616 263 q 590 142 616 194 q 520 55 564 90 q 417 2 476 20 q 291 -16 358 -16 q 207 -8 245 -16 q 138 10 168 -1 q 88 32 108 20 q 59 52 68 43 q 46 78 50 61 q 43 125 43 94 q 44 161 43 146 q 48 184 45 175 q 57 196 52 193 q 68 200 62 200 q 95 189 78 200 q 140 164 113 178 q 204 139 167 151 q 292 128 242 128 q 350 136 324 128 q 394 158 376 144 q 421 193 412 172 q 431 240 431 214 q 414 291 431 270 q 372 329 398 313 q 313 360 346 346 q 244 391 279 375 q 176 428 209 408 q 116 478 142 449 q 74 546 90 507 q 58 640 58 585 q 81 751 58 703 q 144 830 104 799 q 238 878 184 862 q 352 893 292 893 q 414 888 383 893 q 473 876 446 884 q 521 857 500 867 q 549 840 542 847 q 558 829 555 833 q 562 816 560 824 q 564 797 564 808 q 565 767 565 785 q 564 734 565 747 q 561 711 563 720 q 554 699 558 703 q 542 694 549 694 q 518 704 534 694 q 478 725 502 713 q 423 745 454 736 q 355 754 392 754 q 304 747 326 754 q 268 727 282 740 q 246 697 253 715 q 239 660 239 680 q 255 609 239 631 q 297 571 271 588 q 358 540 324 555 q 427 509 392 526 q 496 472 463 493 q 557 423 530 452 q 600 355 583 394 q 616 263 616 316 m 238 -83 q 245 -70 240 -76 q 261 -61 251 -64 q 289 -56 272 -58 q 334 -55 307 -55 q 376 -58 361 -55 q 399 -65 392 -60 q 406 -78 406 -71 q 401 -95 406 -85 l 334 -224 q 326 -235 331 -231 q 313 -242 321 -239 q 291 -247 304 -245 q 255 -248 277 -248 q 221 -246 233 -248 q 202 -240 208 -244 q 197 -229 197 -235 q 199 -212 197 -222 l 238 -83 z "},"T":{"ha":688,"x_min":8,"x_max":680,"o":"m 680 804 q 678 771 680 785 q 673 748 676 757 q 664 736 669 740 q 653 732 659 732 l 433 732 l 433 24 q 429 12 433 18 q 414 3 425 7 q 387 -2 404 0 q 344 -4 370 -4 q 301 -2 318 -4 q 273 3 283 0 q 259 12 263 7 q 254 24 254 18 l 254 732 l 35 732 q 23 736 28 732 q 15 748 18 740 q 10 771 12 757 q 8 804 8 785 q 10 839 8 825 q 15 862 12 853 q 23 874 18 870 q 35 878 28 878 l 653 878 q 664 874 659 878 q 673 862 669 870 q 678 839 676 853 q 680 804 680 825 z "},"Ť":{"ha":688,"x_min":8,"x_max":680,"o":"m 680 804 q 678 771 680 785 q 673 748 676 757 q 664 736 669 740 q 653 732 659 732 l 433 732 l 433 24 q 429 12 433 18 q 414 3 425 7 q 387 -2 404 0 q 344 -4 370 -4 q 301 -2 318 -4 q 273 3 283 0 q 259 12 263 7 q 254 24 254 18 l 254 732 l 35 732 q 23 736 28 732 q 15 748 18 740 q 10 771 12 757 q 8 804 8 785 q 10 839 8 825 q 15 862 12 853 q 23 874 18 870 q 35 878 28 878 l 653 878 q 664 874 659 878 q 673 862 669 870 q 678 839 676 853 q 680 804 680 825 m 342 940 q 305 941 320 940 q 280 944 290 941 q 261 953 269 947 q 245 968 254 959 l 111 1113 q 100 1129 102 1123 q 104 1139 98 1136 q 124 1144 110 1143 q 162 1145 139 1145 q 208 1144 190 1145 q 236 1141 225 1143 q 252 1135 246 1139 q 263 1124 258 1131 l 343 1031 l 427 1123 q 438 1134 432 1130 q 454 1141 444 1139 q 481 1144 465 1143 q 527 1145 498 1145 q 564 1144 550 1145 q 583 1138 577 1142 q 587 1128 589 1135 q 578 1113 585 1122 l 446 968 q 429 954 438 959 q 409 945 420 948 q 381 941 397 942 q 342 940 365 940 m 31 878 z "},"Ț":{"ha":688,"x_min":8,"x_max":680,"o":"m 680 804 q 678 771 680 785 q 673 748 676 757 q 664 736 669 740 q 653 732 659 732 l 433 732 l 433 24 q 429 12 433 18 q 414 3 425 7 q 387 -2 404 0 q 344 -4 370 -4 q 301 -2 318 -4 q 273 3 283 0 q 259 12 263 7 q 254 24 254 18 l 254 732 l 35 732 q 23 736 28 732 q 15 748 18 740 q 10 771 12 757 q 8 804 8 785 q 10 839 8 825 q 15 862 12 853 q 23 874 18 870 q 35 878 28 878 l 653 878 q 664 874 659 878 q 673 862 669 870 q 678 839 676 853 q 680 804 680 825 m 258 -83 q 266 -70 260 -76 q 282 -61 271 -64 q 310 -56 292 -58 q 354 -55 327 -55 q 397 -58 381 -55 q 419 -65 412 -60 q 426 -78 427 -71 q 421 -95 426 -85 l 355 -224 q 347 -235 351 -231 q 333 -242 342 -239 q 311 -247 325 -245 q 275 -248 297 -248 q 241 -246 254 -248 q 223 -240 229 -244 q 217 -229 217 -235 q 220 -212 217 -222 l 258 -83 z "},"Ŧ":{"ha":688,"x_min":8,"x_max":680,"o":"m 433 505 l 584 505 q 595 501 590 505 q 604 490 600 498 q 609 469 607 482 q 610 437 610 456 q 609 404 610 417 q 604 383 607 391 q 595 371 600 374 q 584 368 590 368 l 433 368 l 433 23 q 429 11 433 16 q 414 3 425 6 q 387 -2 404 -1 q 344 -4 370 -4 q 301 -2 318 -4 q 273 3 283 -1 q 259 11 263 6 q 254 23 254 16 l 254 368 l 104 368 q 92 371 97 368 q 84 382 87 374 q 79 403 81 390 q 77 436 77 416 q 79 468 77 455 q 84 490 81 481 q 92 501 87 498 q 104 505 97 505 l 254 505 l 254 732 l 35 732 q 23 736 28 732 q 15 748 18 740 q 10 771 12 757 q 8 804 8 785 q 10 839 8 825 q 15 862 12 853 q 23 874 18 870 q 35 878 28 878 l 653 878 q 664 874 659 878 q 673 862 669 870 q 678 839 676 853 q 680 804 680 825 q 678 771 680 785 q 673 748 676 757 q 664 736 669 740 q 653 732 659 732 l 433 732 l 433 505 z "},"U":{"ha":907,"x_min":95,"x_max":812,"o":"m 812 327 q 788 182 812 246 q 718 75 764 119 q 604 7 672 31 q 448 -16 536 -16 q 300 5 366 -16 q 189 68 234 26 q 119 173 143 110 q 95 319 95 235 l 95 853 q 99 865 95 860 q 114 874 103 871 q 141 880 124 878 q 184 882 158 882 q 227 880 210 882 q 254 874 244 878 q 269 865 264 871 q 273 853 273 860 l 273 335 q 286 244 273 283 q 323 181 299 206 q 381 143 347 156 q 456 131 414 131 q 531 144 498 131 q 587 181 564 157 q 623 242 610 206 q 635 325 635 279 l 635 853 q 640 865 635 860 q 654 874 644 871 q 681 880 664 878 q 724 882 699 882 q 767 880 750 882 q 793 874 783 878 q 808 865 804 871 q 812 853 812 860 l 812 327 z "},"Ù":{"ha":907,"x_min":95,"x_max":812,"o":"m 812 327 q 788 182 812 246 q 718 75 764 119 q 604 7 672 31 q 448 -16 536 -16 q 300 5 366 -16 q 189 68 234 26 q 119 173 143 110 q 95 319 95 235 l 95 853 q 99 865 95 860 q 114 874 103 871 q 141 880 124 878 q 184 882 158 882 q 227 880 210 882 q 254 874 244 878 q 269 865 264 871 q 273 853 273 860 l 273 335 q 286 244 273 283 q 323 181 299 206 q 381 143 347 156 q 456 131 414 131 q 531 144 498 131 q 587 181 564 157 q 623 242 610 206 q 635 325 635 279 l 635 853 q 640 865 635 860 q 654 874 644 871 q 681 880 664 878 q 724 882 699 882 q 767 880 750 882 q 793 874 783 878 q 808 865 804 871 q 812 853 812 860 l 812 327 m 515 976 q 525 960 523 966 q 520 948 526 953 q 500 942 514 944 q 464 940 487 940 q 429 941 443 940 q 404 946 414 943 q 387 953 394 949 q 373 964 380 958 l 222 1099 q 209 1116 212 1108 q 213 1131 206 1124 q 236 1141 219 1137 q 285 1145 254 1145 q 327 1144 310 1145 q 355 1140 343 1143 q 376 1131 367 1137 q 393 1114 385 1124 l 515 976 m 139 878 z "},"Ú":{"ha":907,"x_min":95,"x_max":812,"o":"m 812 327 q 788 182 812 246 q 718 75 764 119 q 604 7 672 31 q 448 -16 536 -16 q 300 5 366 -16 q 189 68 234 26 q 119 173 143 110 q 95 319 95 235 l 95 853 q 99 865 95 860 q 114 874 103 871 q 141 880 124 878 q 184 882 158 882 q 227 880 210 882 q 254 874 244 878 q 269 865 264 871 q 273 853 273 860 l 273 335 q 286 244 273 283 q 323 181 299 206 q 381 143 347 156 q 456 131 414 131 q 531 144 498 131 q 587 181 564 157 q 623 242 610 206 q 635 325 635 279 l 635 853 q 640 865 635 860 q 654 874 644 871 q 681 880 664 878 q 724 882 699 882 q 767 880 750 882 q 793 874 783 878 q 808 865 804 871 q 812 853 812 860 l 812 327 m 503 1114 q 520 1131 511 1124 q 540 1140 528 1137 q 569 1144 552 1143 q 611 1145 586 1145 q 660 1141 642 1145 q 683 1131 677 1137 q 686 1116 690 1124 q 673 1099 683 1108 l 523 964 q 509 953 516 958 q 492 946 502 949 q 467 941 481 943 q 432 940 453 940 q 395 942 409 940 q 375 948 381 944 q 371 960 370 953 q 380 976 372 966 l 503 1114 m 301 878 z "},"Û":{"ha":907,"x_min":95,"x_max":812,"o":"m 812 327 q 788 182 812 246 q 718 75 764 119 q 604 7 672 31 q 448 -16 536 -16 q 300 5 366 -16 q 189 68 234 26 q 119 173 143 110 q 95 319 95 235 l 95 853 q 99 865 95 860 q 114 874 103 871 q 141 880 124 878 q 184 882 158 882 q 227 880 210 882 q 254 874 244 878 q 269 865 264 871 q 273 853 273 860 l 273 335 q 286 244 273 283 q 323 181 299 206 q 381 143 347 156 q 456 131 414 131 q 531 144 498 131 q 587 181 564 157 q 623 242 610 206 q 635 325 635 279 l 635 853 q 640 865 635 860 q 654 874 644 871 q 681 880 664 878 q 724 882 699 882 q 767 880 750 882 q 793 874 783 878 q 808 865 804 871 q 812 853 812 860 l 812 327 m 453 1145 q 490 1145 475 1145 q 515 1141 505 1144 q 533 1133 525 1138 q 550 1118 541 1127 l 684 972 q 695 957 693 963 q 691 946 696 950 q 671 941 685 943 q 633 940 656 940 q 587 941 605 940 q 559 944 570 942 q 543 951 549 947 q 532 961 537 955 l 452 1054 l 369 963 q 357 951 363 956 q 341 945 351 947 q 313 941 330 942 q 268 940 296 940 q 231 942 245 940 q 212 947 218 943 q 208 957 206 951 q 217 972 209 963 l 349 1118 q 366 1132 357 1126 q 386 1140 374 1137 q 414 1144 398 1143 q 453 1145 431 1145 m 138 878 z "},"Ũ":{"ha":907,"x_min":95,"x_max":812,"o":"m 812 327 q 788 182 812 246 q 718 75 764 119 q 604 7 672 31 q 448 -16 536 -16 q 300 5 366 -16 q 189 68 234 26 q 119 173 143 110 q 95 319 95 235 l 95 853 q 99 865 95 860 q 114 874 103 871 q 141 880 124 878 q 184 882 158 882 q 227 880 210 882 q 254 874 244 878 q 269 865 264 871 q 273 853 273 860 l 273 335 q 286 244 273 283 q 323 181 299 206 q 381 143 347 156 q 456 131 414 131 q 531 144 498 131 q 587 181 564 157 q 623 242 610 206 q 635 325 635 279 l 635 853 q 640 865 635 860 q 654 874 644 871 q 681 880 664 878 q 724 882 699 882 q 767 880 750 882 q 793 874 783 878 q 808 865 804 871 q 812 853 812 860 l 812 327 m 591 1109 q 602 1124 591 1120 q 644 1127 614 1127 q 685 1122 675 1127 q 696 1101 696 1117 q 657 983 696 1023 q 547 942 619 942 q 482 952 509 942 q 434 976 455 963 q 396 999 413 988 q 358 1009 378 1009 q 325 996 335 1009 q 315 960 315 983 q 312 950 315 954 q 302 945 309 947 q 286 943 296 943 q 262 942 276 942 q 221 947 231 942 q 210 968 210 952 q 220 1036 210 1006 q 250 1086 231 1066 q 297 1117 269 1106 q 359 1127 324 1127 q 424 1117 397 1127 q 472 1093 451 1106 q 510 1070 492 1080 q 548 1059 528 1059 q 579 1070 568 1059 q 591 1109 591 1082 m 142 878 z "},"Ü":{"ha":907,"x_min":95,"x_max":812,"o":"m 812 327 q 788 182 812 246 q 718 75 764 119 q 604 7 672 31 q 448 -16 536 -16 q 300 5 366 -16 q 189 68 234 26 q 119 173 143 110 q 95 319 95 235 l 95 853 q 99 865 95 860 q 114 874 103 871 q 141 880 124 878 q 184 882 158 882 q 227 880 210 882 q 254 874 244 878 q 269 865 264 871 q 273 853 273 860 l 273 335 q 286 244 273 283 q 323 181 299 206 q 381 143 347 156 q 456 131 414 131 q 531 144 498 131 q 587 181 564 157 q 623 242 610 206 q 635 325 635 279 l 635 853 q 640 865 635 860 q 654 874 644 871 q 681 880 664 878 q 724 882 699 882 q 767 880 750 882 q 793 874 783 878 q 808 865 804 871 q 812 853 812 860 l 812 327 m 393 1040 q 375 974 393 993 q 304 955 356 955 q 233 973 252 955 q 215 1038 215 991 q 234 1104 215 1086 q 304 1123 253 1123 q 375 1105 357 1123 q 393 1040 393 1087 m 690 1040 q 671 974 690 993 q 600 955 652 955 q 529 973 547 955 q 511 1038 511 991 q 530 1104 511 1086 q 601 1123 549 1123 q 671 1105 653 1123 q 690 1040 690 1087 m 146 878 z "},"Ū":{"ha":907,"x_min":95,"x_max":812,"o":"m 812 327 q 788 182 812 246 q 718 75 764 119 q 604 7 672 31 q 448 -16 536 -16 q 300 5 366 -16 q 189 68 234 26 q 119 173 143 110 q 95 319 95 235 l 95 853 q 99 865 95 860 q 114 874 103 871 q 141 880 124 878 q 184 882 158 882 q 227 880 210 882 q 254 874 244 878 q 269 865 264 871 q 273 853 273 860 l 273 335 q 286 244 273 283 q 323 181 299 206 q 381 143 347 156 q 456 131 414 131 q 531 144 498 131 q 587 181 564 157 q 623 242 610 206 q 635 325 635 279 l 635 853 q 640 865 635 860 q 654 874 644 871 q 681 880 664 878 q 724 882 699 882 q 767 880 750 882 q 793 874 783 878 q 808 865 804 871 q 812 853 812 860 l 812 327 m 654 1096 q 666 1093 661 1096 q 675 1082 671 1089 q 680 1063 678 1075 q 681 1033 681 1050 q 680 1003 681 1015 q 675 984 678 991 q 666 974 671 977 q 654 970 661 970 l 254 970 q 240 974 245 970 q 231 984 234 977 q 225 1003 227 991 q 224 1033 224 1015 q 225 1062 224 1050 q 231 1082 227 1074 q 240 1093 234 1089 q 254 1096 245 1096 l 654 1096 m 155 878 z "},"Ŭ":{"ha":907,"x_min":95,"x_max":812,"o":"m 812 327 q 788 182 812 246 q 718 75 764 119 q 604 7 672 31 q 448 -16 536 -16 q 300 5 366 -16 q 189 68 234 26 q 119 173 143 110 q 95 319 95 235 l 95 853 q 99 865 95 860 q 114 874 103 871 q 141 880 124 878 q 184 882 158 882 q 227 880 210 882 q 254 874 244 878 q 269 865 264 871 q 273 853 273 860 l 273 335 q 286 244 273 283 q 323 181 299 206 q 381 143 347 156 q 456 131 414 131 q 531 144 498 131 q 587 181 564 157 q 623 242 610 206 q 635 325 635 279 l 635 853 q 640 865 635 860 q 654 874 644 871 q 681 880 664 878 q 724 882 699 882 q 767 880 750 882 q 793 874 783 878 q 808 865 804 871 q 812 853 812 860 l 812 327 m 656 1126 q 643 1049 656 1084 q 604 990 630 1015 q 540 953 578 966 q 452 940 502 940 q 360 954 399 940 q 297 991 322 967 q 261 1050 273 1015 q 249 1126 249 1084 q 261 1145 249 1140 q 306 1151 273 1151 q 352 1146 338 1151 q 366 1129 365 1141 q 373 1100 367 1118 q 389 1071 378 1082 q 415 1054 399 1060 q 453 1048 431 1048 q 501 1060 482 1048 q 528 1088 519 1071 q 539 1121 537 1105 q 552 1144 541 1138 q 596 1151 563 1151 q 643 1145 631 1151 q 656 1126 656 1140 m 180 878 z "},"Ů":{"ha":907,"x_min":95,"x_max":812,"o":"m 812 327 q 788 182 812 246 q 718 75 764 119 q 604 7 672 31 q 448 -16 536 -16 q 300 5 366 -16 q 189 68 234 26 q 119 173 143 110 q 95 319 95 235 l 95 853 q 99 865 95 860 q 114 874 103 871 q 141 880 124 878 q 184 882 158 882 q 227 880 210 882 q 254 874 244 878 q 269 865 264 871 q 273 853 273 860 l 273 335 q 286 244 273 283 q 323 181 299 206 q 381 143 347 156 q 456 131 414 131 q 531 144 498 131 q 587 181 564 157 q 623 242 610 206 q 635 325 635 279 l 635 853 q 640 865 635 860 q 654 874 644 871 q 681 880 664 878 q 724 882 699 882 q 767 880 750 882 q 793 874 783 878 q 808 865 804 871 q 812 853 812 860 l 812 327 m 614 1057 q 603 998 614 1024 q 571 955 591 972 q 519 928 550 938 q 449 919 488 919 q 379 928 409 919 q 330 954 350 937 q 301 995 311 970 q 291 1052 291 1020 q 302 1110 291 1084 q 334 1153 313 1135 q 385 1180 355 1171 q 454 1189 415 1189 q 573 1155 533 1189 q 614 1057 614 1122 m 510 1053 q 496 1096 510 1080 q 451 1112 483 1112 q 409 1097 423 1112 q 395 1055 395 1082 q 408 1011 395 1027 q 454 996 422 996 q 496 1011 482 996 q 510 1053 510 1027 m 222 878 z "},"Ű":{"ha":907,"x_min":95,"x_max":841,"o":"m 812 327 q 788 182 812 246 q 718 75 764 119 q 604 7 672 31 q 448 -16 536 -16 q 300 5 366 -16 q 189 68 234 26 q 119 173 143 110 q 95 319 95 235 l 95 853 q 99 865 95 860 q 114 874 103 871 q 141 880 124 878 q 184 882 158 882 q 227 880 210 882 q 254 874 244 878 q 269 865 264 871 q 273 853 273 860 l 273 335 q 286 244 273 283 q 323 181 299 206 q 381 143 347 156 q 456 131 414 131 q 531 144 498 131 q 587 181 564 157 q 623 242 610 206 q 635 325 635 279 l 635 853 q 640 865 635 860 q 654 874 644 871 q 681 880 664 878 q 724 882 699 882 q 767 880 750 882 q 793 874 783 878 q 808 865 804 871 q 812 853 812 860 l 812 327 m 371 956 q 359 947 366 950 q 344 942 353 944 q 322 940 335 941 q 290 940 309 940 q 243 947 254 940 q 242 969 232 955 l 353 1126 q 365 1138 357 1133 q 384 1145 372 1142 q 413 1149 396 1148 q 452 1151 429 1151 q 509 1148 488 1151 q 538 1142 530 1146 q 544 1131 546 1137 q 532 1116 541 1124 l 371 956 m 665 957 q 651 947 658 951 q 636 942 645 944 q 613 940 627 941 q 579 940 600 940 q 545 942 559 940 q 525 947 532 943 q 517 955 517 950 q 521 966 516 960 l 645 1126 q 656 1137 649 1133 q 675 1145 663 1141 q 705 1149 687 1148 q 752 1151 724 1151 q 804 1148 785 1151 q 832 1141 824 1146 q 839 1129 841 1136 q 829 1115 838 1123 l 665 957 m 168 878 z "},"Ų":{"ha":907,"x_min":95,"x_max":812,"o":"m 812 327 q 782 167 812 235 q 690 52 752 98 q 662 31 674 40 q 640 12 650 22 q 617 -8 629 3 q 591 -35 606 -19 l 566 -59 q 548 -84 552 -73 q 543 -103 543 -96 q 553 -125 543 -118 q 585 -132 564 -132 l 652 -132 q 662 -134 658 -132 q 669 -140 666 -136 q 672 -154 671 -145 q 673 -176 673 -163 q 672 -200 673 -191 q 668 -216 671 -210 q 660 -225 665 -222 q 648 -231 654 -229 q 592 -243 623 -239 q 526 -248 562 -248 q 414 -220 454 -248 q 373 -135 373 -192 q 375 -114 373 -125 q 382 -90 376 -102 q 396 -64 387 -77 q 421 -35 406 -50 l 446 -10 q 436 -12 441 -11 q 422 -12 430 -12 q 338 -4 379 -12 q 260 21 296 4 q 193 64 223 38 q 141 128 163 91 q 107 213 119 165 q 95 319 95 260 l 95 854 q 99 866 95 861 q 114 875 103 871 q 141 880 124 878 q 184 882 158 882 q 227 880 210 882 q 254 875 244 878 q 269 866 264 871 q 273 854 273 861 l 273 332 q 286 243 273 281 q 323 181 299 205 q 381 143 347 156 q 456 131 414 131 q 531 144 498 131 q 587 181 564 157 q 623 242 610 206 q 635 325 635 279 l 635 854 q 640 866 635 861 q 654 875 644 871 q 681 880 664 878 q 725 882 699 882 q 767 880 751 882 q 794 875 784 878 q 808 866 804 871 q 812 854 812 861 l 812 327 z "},"V":{"ha":821,"x_min":15,"x_max":807,"o":"m 532 31 q 524 13 529 20 q 506 2 518 5 q 473 -3 494 -2 q 418 -4 452 -4 q 371 -4 391 -4 q 338 -2 352 -3 q 316 2 325 -1 q 302 9 308 5 q 293 19 296 13 q 288 33 290 24 l 26 811 q 17 850 18 836 q 23 871 15 864 q 52 880 32 878 q 109 882 73 882 q 158 880 140 882 q 185 876 176 879 q 198 865 195 872 q 205 848 202 859 l 419 172 l 420 172 l 629 845 q 636 864 632 857 q 650 875 640 871 q 678 880 660 879 q 728 882 696 882 q 777 880 760 882 q 801 870 794 878 q 805 848 807 862 q 794 810 802 833 l 532 31 z "},"W":{"ha":1259,"x_min":29,"x_max":1229,"o":"m 1019 45 q 1008 19 1015 29 q 987 4 1001 9 q 950 -2 972 -1 q 893 -4 928 -4 q 831 -2 854 -4 q 794 4 808 -1 q 774 19 781 9 q 765 45 768 29 l 625 602 l 623 602 l 490 45 q 481 20 487 30 q 461 5 475 10 q 426 -2 448 -1 q 366 -4 403 -4 q 303 -2 326 -4 q 266 4 279 -1 q 246 19 252 9 q 236 45 240 29 l 37 811 q 30 849 31 836 q 38 871 29 863 q 65 880 46 878 q 119 882 85 882 q 170 881 151 882 q 198 876 189 880 q 211 865 208 872 q 216 845 214 858 l 370 173 l 371 173 l 531 840 q 538 861 534 853 q 553 874 543 869 q 582 880 564 878 q 631 882 600 882 q 683 880 663 882 q 712 874 702 879 q 728 862 723 870 q 735 840 732 854 l 901 173 l 902 173 l 1056 843 q 1061 862 1058 854 q 1074 874 1065 869 q 1101 880 1084 878 q 1151 882 1119 882 q 1197 880 1181 882 q 1221 871 1214 878 q 1228 849 1229 863 q 1221 809 1227 834 l 1019 45 z "},"Ẁ":{"ha":1259,"x_min":29,"x_max":1229,"o":"m 1019 45 q 1008 19 1015 29 q 987 4 1001 9 q 950 -2 972 -1 q 893 -4 928 -4 q 831 -2 854 -4 q 794 4 808 -1 q 774 19 781 9 q 765 45 768 29 l 625 602 l 623 602 l 490 45 q 481 20 487 30 q 461 5 475 10 q 426 -2 448 -1 q 366 -4 403 -4 q 303 -2 326 -4 q 266 4 279 -1 q 246 19 252 9 q 236 45 240 29 l 37 811 q 30 849 31 836 q 38 871 29 863 q 65 880 46 878 q 119 882 85 882 q 170 881 151 882 q 198 876 189 880 q 211 865 208 872 q 216 845 214 858 l 370 173 l 371 173 l 531 840 q 538 861 534 853 q 553 874 543 869 q 582 880 564 878 q 631 882 600 882 q 683 880 663 882 q 712 874 702 879 q 728 862 723 870 q 735 840 732 854 l 901 173 l 902 173 l 1056 843 q 1061 862 1058 854 q 1074 874 1065 869 q 1101 880 1084 878 q 1151 882 1119 882 q 1197 880 1181 882 q 1221 871 1214 878 q 1228 849 1229 863 q 1221 809 1227 834 l 1019 45 m 694 976 q 704 960 702 966 q 699 948 705 953 q 680 942 693 944 q 643 940 666 940 q 608 941 622 940 q 583 946 593 943 q 566 953 573 949 q 552 964 559 958 l 401 1099 q 388 1116 391 1108 q 392 1131 385 1124 q 415 1141 398 1137 q 464 1145 433 1145 q 506 1144 489 1145 q 534 1140 522 1143 q 555 1131 546 1137 q 572 1114 564 1124 l 694 976 m 318 878 z "},"Ẃ":{"ha":1259,"x_min":29,"x_max":1229,"o":"m 1019 45 q 1008 19 1015 29 q 987 4 1001 9 q 950 -2 972 -1 q 893 -4 928 -4 q 831 -2 854 -4 q 794 4 808 -1 q 774 19 781 9 q 765 45 768 29 l 625 602 l 623 602 l 490 45 q 481 20 487 30 q 461 5 475 10 q 426 -2 448 -1 q 366 -4 403 -4 q 303 -2 326 -4 q 266 4 279 -1 q 246 19 252 9 q 236 45 240 29 l 37 811 q 30 849 31 836 q 38 871 29 863 q 65 880 46 878 q 119 882 85 882 q 170 881 151 882 q 198 876 189 880 q 211 865 208 872 q 216 845 214 858 l 370 173 l 371 173 l 531 840 q 538 861 534 853 q 553 874 543 869 q 582 880 564 878 q 631 882 600 882 q 683 880 663 882 q 712 874 702 879 q 728 862 723 870 q 735 840 732 854 l 901 173 l 902 173 l 1056 843 q 1061 862 1058 854 q 1074 874 1065 869 q 1101 880 1084 878 q 1151 882 1119 882 q 1197 880 1181 882 q 1221 871 1214 878 q 1228 849 1229 863 q 1221 809 1227 834 l 1019 45 m 688 1114 q 705 1131 696 1124 q 725 1140 713 1137 q 754 1144 737 1143 q 796 1145 771 1145 q 845 1141 827 1145 q 868 1131 862 1137 q 871 1116 875 1124 q 859 1099 868 1108 l 708 964 q 694 953 701 958 q 677 946 687 949 q 652 941 667 943 q 617 940 638 940 q 580 942 594 940 q 561 948 566 944 q 556 960 555 953 q 566 976 557 966 l 688 1114 m 486 878 z "},"Ŵ":{"ha":1259,"x_min":29,"x_max":1229,"o":"m 1019 45 q 1008 19 1015 29 q 987 4 1001 9 q 950 -2 972 -1 q 893 -4 928 -4 q 831 -2 854 -4 q 794 4 808 -1 q 774 19 781 9 q 765 45 768 29 l 625 602 l 623 602 l 490 45 q 481 20 487 30 q 461 5 475 10 q 426 -2 448 -1 q 366 -4 403 -4 q 303 -2 326 -4 q 266 4 279 -1 q 246 19 252 9 q 236 45 240 29 l 37 811 q 30 849 31 836 q 38 871 29 863 q 65 880 46 878 q 119 882 85 882 q 170 881 151 882 q 198 876 189 880 q 211 865 208 872 q 216 845 214 858 l 370 173 l 371 173 l 531 840 q 538 861 534 853 q 553 874 543 869 q 582 880 564 878 q 631 882 600 882 q 683 880 663 882 q 712 874 702 879 q 728 862 723 870 q 735 840 732 854 l 901 173 l 902 173 l 1056 843 q 1061 862 1058 854 q 1074 874 1065 869 q 1101 880 1084 878 q 1151 882 1119 882 q 1197 880 1181 882 q 1221 871 1214 878 q 1228 849 1229 863 q 1221 809 1227 834 l 1019 45 m 644 1145 q 681 1145 666 1145 q 706 1141 696 1144 q 724 1133 716 1138 q 741 1118 732 1127 l 876 972 q 886 957 884 963 q 882 946 888 950 q 862 941 876 943 q 824 940 848 940 q 779 941 796 940 q 750 944 761 942 q 734 951 740 947 q 723 961 728 955 l 643 1054 l 560 963 q 548 951 554 956 q 532 945 543 947 q 505 941 522 942 q 459 940 488 940 q 422 942 436 940 q 403 947 409 943 q 399 957 397 951 q 408 972 400 963 l 541 1118 q 557 1132 548 1126 q 577 1140 566 1137 q 606 1144 589 1143 q 644 1145 622 1145 m 330 878 z "},"Ẅ":{"ha":1259,"x_min":29,"x_max":1229,"o":"m 1019 45 q 1008 19 1015 29 q 987 4 1001 9 q 950 -2 972 -1 q 893 -4 928 -4 q 831 -2 854 -4 q 794 4 808 -1 q 774 19 781 9 q 765 45 768 29 l 625 602 l 623 602 l 490 45 q 481 20 487 30 q 461 5 475 10 q 426 -2 448 -1 q 366 -4 403 -4 q 303 -2 326 -4 q 266 4 279 -1 q 246 19 252 9 q 236 45 240 29 l 37 811 q 30 849 31 836 q 38 871 29 863 q 65 880 46 878 q 119 882 85 882 q 170 881 151 882 q 198 876 189 880 q 211 865 208 872 q 216 845 214 858 l 370 173 l 371 173 l 531 840 q 538 861 534 853 q 553 874 543 869 q 582 880 564 878 q 631 882 600 882 q 683 880 663 882 q 712 874 702 879 q 728 862 723 870 q 735 840 732 854 l 901 173 l 902 173 l 1056 843 q 1061 862 1058 854 q 1074 874 1065 869 q 1101 880 1084 878 q 1151 882 1119 882 q 1197 880 1181 882 q 1221 871 1214 878 q 1228 849 1229 863 q 1221 809 1227 834 l 1019 45 m 583 1040 q 564 974 583 993 q 493 955 545 955 q 422 973 441 955 q 404 1038 404 991 q 423 1104 404 1086 q 494 1123 442 1123 q 565 1105 547 1123 q 583 1040 583 1087 m 879 1040 q 860 974 879 993 q 789 955 841 955 q 719 973 736 955 q 701 1038 701 991 q 719 1104 701 1086 q 790 1123 738 1123 q 861 1105 842 1123 q 879 1040 879 1087 m 335 878 z "},"X":{"ha":765,"x_min":22,"x_max":741,"o":"m 721 67 q 737 29 733 43 q 732 7 741 15 q 703 -2 724 0 q 644 -4 682 -4 q 593 -3 612 -4 q 565 2 575 -1 q 549 10 554 5 q 541 24 545 16 l 376 340 l 212 24 q 203 10 208 16 q 188 2 199 5 q 159 -3 178 -1 q 110 -4 140 -4 q 55 -2 75 -4 q 29 7 36 0 q 26 29 22 15 q 43 67 31 43 l 254 450 l 58 810 q 42 849 46 835 q 45 871 37 864 q 74 880 53 878 q 134 882 95 882 q 184 880 165 882 q 214 876 203 879 q 229 867 224 873 q 237 854 233 862 l 391 564 l 541 854 q 550 867 545 862 q 564 876 554 873 q 591 880 574 879 q 639 882 608 882 q 692 880 673 882 q 720 871 712 878 q 723 849 727 863 q 708 810 720 835 l 513 452 l 721 67 z "},"Y":{"ha":722,"x_min":11,"x_max":711,"o":"m 450 333 l 450 24 q 446 12 450 18 q 431 3 441 7 q 404 -2 421 0 q 361 -4 387 -4 q 317 -2 334 -4 q 290 3 300 0 q 275 12 279 7 q 271 24 271 18 l 271 333 l 31 811 q 15 850 18 836 q 19 871 11 864 q 47 880 26 878 q 106 882 68 882 q 156 880 137 882 q 185 875 174 879 q 201 865 196 871 q 211 850 206 859 l 309 634 q 337 568 323 603 q 365 496 351 534 l 366 496 q 393 567 379 532 q 419 633 406 602 l 515 847 q 524 864 519 858 q 539 875 529 871 q 567 880 549 879 q 614 882 585 882 q 674 880 652 882 q 703 871 695 878 q 707 850 711 864 q 690 811 703 836 l 450 333 z "},"Ỳ":{"ha":722,"x_min":11,"x_max":711,"o":"m 450 333 l 450 24 q 446 12 450 18 q 431 3 441 7 q 404 -2 421 0 q 361 -4 387 -4 q 317 -2 334 -4 q 290 3 300 0 q 275 12 279 7 q 271 24 271 18 l 271 333 l 31 811 q 15 850 18 836 q 19 871 11 864 q 47 880 26 878 q 106 882 68 882 q 156 880 137 882 q 185 875 174 879 q 201 865 196 871 q 211 850 206 859 l 309 634 q 337 568 323 603 q 365 496 351 534 l 366 496 q 393 567 379 532 q 419 633 406 602 l 515 847 q 524 864 519 858 q 539 875 529 871 q 567 880 549 879 q 614 882 585 882 q 674 880 652 882 q 703 871 695 878 q 707 850 711 864 q 690 811 703 836 l 450 333 m 426 976 q 435 960 433 966 q 431 948 437 953 q 411 942 425 944 q 374 940 397 940 q 339 941 353 940 q 315 946 325 943 q 297 953 304 949 q 283 964 290 958 l 133 1099 q 120 1116 123 1108 q 123 1131 117 1124 q 147 1141 130 1137 q 195 1145 164 1145 q 237 1144 220 1145 q 266 1140 254 1143 q 286 1131 277 1137 q 304 1114 295 1124 l 426 976 m 50 878 z "},"Ý":{"ha":722,"x_min":11,"x_max":711,"o":"m 450 333 l 450 24 q 446 12 450 18 q 431 3 441 7 q 404 -2 421 0 q 361 -4 387 -4 q 317 -2 334 -4 q 290 3 300 0 q 275 12 279 7 q 271 24 271 18 l 271 333 l 31 811 q 15 850 18 836 q 19 871 11 864 q 47 880 26 878 q 106 882 68 882 q 156 880 137 882 q 185 875 174 879 q 201 865 196 871 q 211 850 206 859 l 309 634 q 337 568 323 603 q 365 496 351 534 l 366 496 q 393 567 379 532 q 419 633 406 602 l 515 847 q 524 864 519 858 q 539 875 529 871 q 567 880 549 879 q 614 882 585 882 q 674 880 652 882 q 703 871 695 878 q 707 850 711 864 q 690 811 703 836 l 450 333 m 433 1114 q 451 1131 442 1124 q 471 1140 459 1137 q 500 1144 483 1143 q 542 1145 517 1145 q 590 1141 573 1145 q 614 1131 608 1137 q 617 1116 621 1124 q 604 1099 614 1108 l 454 964 q 440 953 447 958 q 422 946 433 949 q 398 941 412 943 q 363 940 384 940 q 326 942 340 940 q 306 948 312 944 q 302 960 300 953 q 311 976 303 966 l 433 1114 m 232 878 z "},"Ŷ":{"ha":722,"x_min":11,"x_max":711,"o":"m 450 333 l 450 24 q 446 12 450 18 q 431 3 441 7 q 404 -2 421 0 q 361 -4 387 -4 q 317 -2 334 -4 q 290 3 300 0 q 275 12 279 7 q 271 24 271 18 l 271 333 l 31 811 q 15 850 18 836 q 19 871 11 864 q 47 880 26 878 q 106 882 68 882 q 156 880 137 882 q 185 875 174 879 q 201 865 196 871 q 211 850 206 859 l 309 634 q 337 568 323 603 q 365 496 351 534 l 366 496 q 393 567 379 532 q 419 633 406 602 l 515 847 q 524 864 519 858 q 539 875 529 871 q 567 880 549 879 q 614 882 585 882 q 674 880 652 882 q 703 871 695 878 q 707 850 711 864 q 690 811 703 836 l 450 333 m 360 1145 q 397 1145 382 1145 q 422 1141 412 1144 q 440 1133 432 1138 q 457 1118 448 1127 l 591 972 q 602 957 600 963 q 598 946 604 950 q 578 941 592 943 q 540 940 564 940 q 494 941 512 940 q 466 944 477 942 q 450 951 456 947 q 439 961 444 955 l 359 1054 l 276 963 q 264 951 270 956 q 248 945 258 947 q 220 941 237 942 q 175 940 203 940 q 138 942 152 940 q 119 947 125 943 q 115 957 113 951 q 124 972 116 963 l 256 1118 q 273 1132 264 1126 q 293 1140 281 1137 q 321 1144 305 1143 q 360 1145 338 1145 m 45 878 z "},"Ÿ":{"ha":722,"x_min":11,"x_max":711,"o":"m 450 333 l 450 24 q 446 12 450 18 q 431 3 441 7 q 404 -2 421 0 q 361 -4 387 -4 q 317 -2 334 -4 q 290 3 300 0 q 275 12 279 7 q 271 24 271 18 l 271 333 l 31 811 q 15 850 18 836 q 19 871 11 864 q 47 880 26 878 q 106 882 68 882 q 156 880 137 882 q 185 875 174 879 q 201 865 196 871 q 211 850 206 859 l 309 634 q 337 568 323 603 q 365 496 351 534 l 366 496 q 393 567 379 532 q 419 633 406 602 l 515 847 q 524 864 519 858 q 539 875 529 871 q 567 880 549 879 q 614 882 585 882 q 674 880 652 882 q 703 871 695 878 q 707 850 711 864 q 690 811 703 836 l 450 333 m 305 1040 q 287 974 305 993 q 216 955 268 955 q 145 973 163 955 q 127 1038 127 991 q 146 1104 127 1086 q 216 1123 165 1123 q 287 1105 269 1123 q 305 1040 305 1087 m 602 1040 q 583 974 602 993 q 511 955 564 955 q 441 973 459 955 q 423 1038 423 991 q 442 1104 423 1086 q 513 1123 460 1123 q 583 1105 565 1123 q 602 1040 602 1087 m 58 878 z "},"Z":{"ha":664,"x_min":35,"x_max":635,"o":"m 635 71 q 633 37 635 51 q 628 15 631 24 q 620 3 625 7 q 608 0 614 0 l 91 0 q 49 16 64 0 q 35 61 35 31 l 35 91 q 36 116 35 104 q 42 138 38 127 q 54 163 46 150 q 73 196 62 177 l 414 736 l 76 736 q 62 740 68 736 q 53 751 56 743 q 47 773 49 760 q 45 806 45 787 q 47 840 45 826 q 53 862 49 854 q 62 874 56 871 q 76 878 68 878 l 561 878 q 602 863 589 878 q 615 823 615 849 l 615 790 q 613 759 615 772 q 607 733 612 745 q 595 707 603 720 q 576 675 588 694 l 241 143 l 608 143 q 628 127 621 143 q 635 71 635 111 z "},"Ź":{"ha":664,"x_min":35,"x_max":635,"o":"m 635 71 q 633 37 635 51 q 628 15 631 24 q 620 3 625 7 q 608 0 614 0 l 91 0 q 49 16 64 0 q 35 61 35 31 l 35 91 q 36 116 35 104 q 42 138 38 127 q 54 163 46 150 q 73 196 62 177 l 414 736 l 76 736 q 62 740 68 736 q 53 751 56 743 q 47 773 49 760 q 45 806 45 787 q 47 840 45 826 q 53 862 49 854 q 62 874 56 871 q 76 878 68 878 l 561 878 q 602 863 589 878 q 615 823 615 849 l 615 790 q 613 759 615 772 q 607 733 612 745 q 595 707 603 720 q 576 675 588 694 l 241 143 l 608 143 q 628 127 621 143 q 635 71 635 111 m 380 1114 q 397 1131 389 1124 q 417 1140 406 1137 q 446 1144 429 1143 q 488 1145 463 1145 q 537 1141 519 1145 q 561 1131 554 1137 q 564 1116 567 1124 q 551 1099 560 1108 l 400 964 q 386 953 393 958 q 369 946 379 949 q 345 941 359 943 q 309 940 330 940 q 272 942 286 940 q 253 948 258 944 q 248 960 247 953 q 258 976 250 966 l 380 1114 m 178 878 z "},"Ž":{"ha":664,"x_min":20,"x_max":635,"o":"m 635 71 q 633 37 635 51 q 628 15 631 24 q 620 3 625 7 q 608 0 614 0 l 91 0 q 49 16 64 0 q 35 61 35 31 l 35 91 q 36 116 35 104 q 42 138 38 127 q 54 163 46 150 q 73 196 62 177 l 414 736 l 76 736 q 62 740 68 736 q 53 751 56 743 q 47 773 49 760 q 45 806 45 787 q 47 840 45 826 q 53 862 49 854 q 62 874 56 871 q 76 878 68 878 l 561 878 q 602 863 589 878 q 615 823 615 849 l 615 790 q 613 759 615 772 q 607 733 612 745 q 595 707 603 720 q 576 675 588 694 l 241 143 l 608 143 q 628 127 621 143 q 635 71 635 111 m 332 940 q 295 941 310 940 q 270 944 280 941 q 251 953 259 947 q 235 968 243 959 l 100 1113 q 90 1129 92 1123 q 94 1139 88 1136 q 114 1144 100 1143 q 152 1145 129 1145 q 197 1144 180 1145 q 225 1141 215 1143 q 242 1135 236 1139 q 253 1124 248 1131 l 333 1031 l 416 1123 q 428 1134 422 1130 q 444 1141 433 1139 q 471 1144 454 1143 q 517 1145 488 1145 q 553 1144 540 1145 q 573 1138 567 1142 q 577 1128 578 1135 q 568 1113 575 1122 l 435 968 q 419 954 428 959 q 398 945 410 948 q 371 941 387 942 q 332 940 355 940 m 20 878 z "},"Ż":{"ha":664,"x_min":35,"x_max":635,"o":"m 635 71 q 633 37 635 51 q 628 15 631 24 q 620 3 625 7 q 608 0 614 0 l 91 0 q 49 16 64 0 q 35 61 35 31 l 35 91 q 36 116 35 104 q 42 138 38 127 q 54 163 46 150 q 73 196 62 177 l 414 736 l 76 736 q 62 740 68 736 q 53 751 56 743 q 47 773 49 760 q 45 806 45 787 q 47 840 45 826 q 53 862 49 854 q 62 874 56 871 q 76 878 68 878 l 561 878 q 602 863 589 878 q 615 823 615 849 l 615 790 q 613 759 615 772 q 607 733 612 745 q 595 707 603 720 q 576 675 588 694 l 241 143 l 608 143 q 628 127 621 143 q 635 71 635 111 m 429 1040 q 409 973 429 992 q 335 954 389 954 q 261 972 281 954 q 241 1037 241 991 q 262 1105 241 1086 q 336 1124 282 1124 q 410 1105 391 1124 q 429 1040 429 1087 m 172 878 z "},"a":{"ha":686,"x_min":48,"x_max":601,"o":"m 601 21 q 594 6 601 12 q 573 -2 587 1 q 530 -4 558 -4 q 485 -2 499 -4 q 466 6 471 1 q 460 21 460 12 l 460 69 q 375 7 422 29 q 269 -16 327 -16 q 180 -3 220 -16 q 110 34 140 9 q 64 96 81 59 q 48 181 48 132 q 69 273 48 234 q 131 337 90 312 q 233 375 172 363 q 374 387 294 387 l 433 387 l 433 424 q 428 474 433 452 q 409 509 422 495 q 373 530 395 524 q 319 537 351 537 q 242 528 276 537 q 183 507 209 518 q 140 486 157 495 q 112 476 123 476 q 99 481 104 476 q 89 494 93 486 q 83 516 85 503 q 81 545 81 529 q 85 578 81 566 q 98 600 88 590 q 131 622 107 610 q 186 644 155 633 q 256 660 218 654 q 334 667 294 667 q 455 653 405 667 q 538 610 506 639 q 586 536 571 581 q 601 428 601 490 l 601 21 m 433 280 l 368 280 q 298 274 327 280 q 250 256 269 268 q 223 226 232 243 q 215 186 215 209 q 239 127 215 149 q 306 105 263 105 q 372 123 342 105 q 433 177 402 142 l 433 280 z "},"à":{"ha":686,"x_min":48,"x_max":601,"o":"m 601 21 q 594 6 601 12 q 573 -2 587 1 q 530 -4 558 -4 q 485 -2 499 -4 q 466 6 471 1 q 460 21 460 12 l 460 69 q 375 7 422 29 q 269 -16 327 -16 q 180 -3 220 -16 q 110 34 140 9 q 64 96 81 59 q 48 181 48 132 q 69 273 48 234 q 131 337 90 312 q 233 375 172 363 q 374 387 294 387 l 433 387 l 433 424 q 428 474 433 452 q 409 509 422 495 q 373 530 395 524 q 319 537 351 537 q 242 528 276 537 q 183 507 209 518 q 140 486 157 495 q 112 476 123 476 q 99 481 104 476 q 89 494 93 486 q 83 516 85 503 q 81 545 81 529 q 85 578 81 566 q 98 600 88 590 q 131 622 107 610 q 186 644 155 633 q 256 660 218 654 q 334 667 294 667 q 455 653 405 667 q 538 610 506 639 q 586 536 571 581 q 601 428 601 490 l 601 21 m 433 280 l 368 280 q 298 274 327 280 q 250 256 269 268 q 223 226 232 243 q 215 186 215 209 q 239 127 215 149 q 306 105 263 105 q 372 123 342 105 q 433 177 402 142 l 433 280 m 416 770 q 423 754 422 761 q 419 743 425 747 q 400 736 413 739 q 363 734 387 734 q 330 736 343 734 q 309 740 317 737 q 294 747 300 743 q 283 758 288 751 l 152 916 q 144 930 145 923 q 152 942 144 937 q 178 949 159 947 q 227 952 196 952 q 265 951 250 952 q 290 946 280 949 q 307 938 300 943 q 319 925 313 932 l 416 770 m 75 651 z "},"á":{"ha":686,"x_min":48,"x_max":601,"o":"m 601 21 q 594 6 601 12 q 573 -2 587 1 q 530 -4 558 -4 q 485 -2 499 -4 q 466 6 471 1 q 460 21 460 12 l 460 69 q 375 7 422 29 q 269 -16 327 -16 q 180 -3 220 -16 q 110 34 140 9 q 64 96 81 59 q 48 181 48 132 q 69 273 48 234 q 131 337 90 312 q 233 375 172 363 q 374 387 294 387 l 433 387 l 433 424 q 428 474 433 452 q 409 509 422 495 q 373 530 395 524 q 319 537 351 537 q 242 528 276 537 q 183 507 209 518 q 140 486 157 495 q 112 476 123 476 q 99 481 104 476 q 89 494 93 486 q 83 516 85 503 q 81 545 81 529 q 85 578 81 566 q 98 600 88 590 q 131 622 107 610 q 186 644 155 633 q 256 660 218 654 q 334 667 294 667 q 455 653 405 667 q 538 610 506 639 q 586 536 571 581 q 601 428 601 490 l 601 21 m 433 280 l 368 280 q 298 274 327 280 q 250 256 269 268 q 223 226 232 243 q 215 186 215 209 q 239 127 215 149 q 306 105 263 105 q 372 123 342 105 q 433 177 402 142 l 433 280 m 374 925 q 385 938 378 932 q 402 946 392 943 q 428 951 412 949 q 466 952 444 952 q 515 949 497 952 q 541 942 533 947 q 548 930 549 937 q 541 916 547 923 l 410 758 q 399 747 404 751 q 385 740 393 743 q 363 736 376 737 q 331 734 351 734 q 293 736 307 734 q 274 743 279 739 q 270 754 269 747 q 277 770 271 761 l 374 925 m 200 651 z "},"â":{"ha":686,"x_min":48,"x_max":601,"o":"m 601 21 q 594 6 601 12 q 573 -2 587 1 q 530 -4 558 -4 q 485 -2 499 -4 q 466 6 471 1 q 460 21 460 12 l 460 69 q 375 7 422 29 q 269 -16 327 -16 q 180 -3 220 -16 q 110 34 140 9 q 64 96 81 59 q 48 181 48 132 q 69 273 48 234 q 131 337 90 312 q 233 375 172 363 q 374 387 294 387 l 433 387 l 433 424 q 428 474 433 452 q 409 509 422 495 q 373 530 395 524 q 319 537 351 537 q 242 528 276 537 q 183 507 209 518 q 140 486 157 495 q 112 476 123 476 q 99 481 104 476 q 89 494 93 486 q 83 516 85 503 q 81 545 81 529 q 85 578 81 566 q 98 600 88 590 q 131 622 107 610 q 186 644 155 633 q 256 660 218 654 q 334 667 294 667 q 455 653 405 667 q 538 610 506 639 q 586 536 571 581 q 601 428 601 490 l 601 21 m 433 280 l 368 280 q 298 274 327 280 q 250 256 269 268 q 223 226 232 243 q 215 186 215 209 q 239 127 215 149 q 306 105 263 105 q 372 123 342 105 q 433 177 402 142 l 433 280 m 279 758 q 269 746 274 751 q 256 739 264 741 q 236 735 248 736 q 203 734 223 734 q 161 737 176 734 q 142 744 146 739 q 141 758 137 749 q 154 779 144 767 l 261 930 q 272 941 265 937 q 289 947 278 945 q 314 951 299 950 q 350 952 329 952 q 386 951 372 952 q 411 947 401 949 q 427 940 420 944 q 437 930 433 936 l 544 779 q 557 758 553 766 q 555 744 560 749 q 536 737 551 739 q 495 734 522 734 q 461 735 473 734 q 440 739 448 736 q 429 746 433 742 q 420 758 425 751 l 349 860 l 279 758 m 71 651 z "},"ã":{"ha":686,"x_min":37,"x_max":601,"o":"m 601 21 q 594 6 601 12 q 573 -2 587 1 q 530 -4 558 -4 q 485 -2 499 -4 q 466 6 471 1 q 460 21 460 12 l 460 69 q 375 7 422 29 q 269 -16 327 -16 q 180 -3 220 -16 q 110 34 140 9 q 64 96 81 59 q 48 181 48 132 q 69 273 48 234 q 131 337 90 312 q 233 375 172 363 q 374 387 294 387 l 433 387 l 433 424 q 428 474 433 452 q 409 509 422 495 q 373 530 395 524 q 319 537 351 537 q 242 528 276 537 q 183 507 209 518 q 140 486 157 495 q 112 476 123 476 q 99 481 104 476 q 89 494 93 486 q 83 516 85 503 q 81 545 81 529 q 85 578 81 566 q 98 600 88 590 q 131 622 107 610 q 186 644 155 633 q 256 660 218 654 q 334 667 294 667 q 455 653 405 667 q 538 610 506 639 q 586 536 571 581 q 601 428 601 490 l 601 21 m 433 280 l 368 280 q 298 274 327 280 q 250 256 269 268 q 223 226 232 243 q 215 186 215 209 q 239 127 215 149 q 306 105 263 105 q 372 123 342 105 q 433 177 402 142 l 433 280 m 587 906 q 548 780 587 824 q 439 736 509 736 q 393 742 413 736 q 356 756 372 747 q 327 775 340 765 q 301 793 313 785 q 277 807 289 802 q 252 813 265 813 q 220 797 229 813 q 210 755 210 781 q 208 746 210 749 q 200 740 205 742 q 183 737 194 738 q 157 736 173 736 q 133 738 142 736 q 117 742 123 739 q 109 750 111 745 q 106 764 106 755 q 144 888 106 843 q 252 933 182 933 q 318 921 291 933 q 365 895 345 909 q 404 868 386 880 q 440 857 421 857 q 471 871 460 857 q 482 914 482 886 q 492 929 482 926 q 534 933 503 933 q 575 928 564 933 q 587 906 587 923 m 37 651 z "},"ä":{"ha":686,"x_min":48,"x_max":601,"o":"m 601 21 q 594 6 601 12 q 573 -2 587 1 q 530 -4 558 -4 q 485 -2 499 -4 q 466 6 471 1 q 460 21 460 12 l 460 69 q 375 7 422 29 q 269 -16 327 -16 q 180 -3 220 -16 q 110 34 140 9 q 64 96 81 59 q 48 181 48 132 q 69 273 48 234 q 131 337 90 312 q 233 375 172 363 q 374 387 294 387 l 433 387 l 433 424 q 428 474 433 452 q 409 509 422 495 q 373 530 395 524 q 319 537 351 537 q 242 528 276 537 q 183 507 209 518 q 140 486 157 495 q 112 476 123 476 q 99 481 104 476 q 89 494 93 486 q 83 516 85 503 q 81 545 81 529 q 85 578 81 566 q 98 600 88 590 q 131 622 107 610 q 186 644 155 633 q 256 660 218 654 q 334 667 294 667 q 455 653 405 667 q 538 610 506 639 q 586 536 571 581 q 601 428 601 490 l 601 21 m 433 280 l 368 280 q 298 274 327 280 q 250 256 269 268 q 223 226 232 243 q 215 186 215 209 q 239 127 215 149 q 306 105 263 105 q 372 123 342 105 q 433 177 402 142 l 433 280 m 300 832 q 282 766 300 785 q 214 747 264 747 q 146 765 163 747 q 128 829 128 783 q 146 896 128 878 q 214 914 165 914 q 283 896 266 914 q 300 832 300 878 m 566 832 q 548 766 566 785 q 479 747 530 747 q 411 765 429 747 q 393 829 393 783 q 411 896 393 878 q 479 914 429 914 q 548 896 530 914 q 566 832 566 878 m 59 651 z "},"ā":{"ha":686,"x_min":48,"x_max":601,"o":"m 601 21 q 594 6 601 12 q 573 -2 587 1 q 530 -4 558 -4 q 485 -2 499 -4 q 466 6 471 1 q 460 21 460 12 l 460 69 q 375 7 422 29 q 269 -16 327 -16 q 180 -3 220 -16 q 110 34 140 9 q 64 96 81 59 q 48 181 48 132 q 69 273 48 234 q 131 337 90 312 q 233 375 172 363 q 374 387 294 387 l 433 387 l 433 424 q 428 474 433 452 q 409 509 422 495 q 373 530 395 524 q 319 537 351 537 q 242 528 276 537 q 183 507 209 518 q 140 486 157 495 q 112 476 123 476 q 99 481 104 476 q 89 494 93 486 q 83 516 85 503 q 81 545 81 529 q 85 578 81 566 q 98 600 88 590 q 131 622 107 610 q 186 644 155 633 q 256 660 218 654 q 334 667 294 667 q 455 653 405 667 q 538 610 506 639 q 586 536 571 581 q 601 428 601 490 l 601 21 m 433 280 l 368 280 q 298 274 327 280 q 250 256 269 268 q 223 226 232 243 q 215 186 215 209 q 239 127 215 149 q 306 105 263 105 q 372 123 342 105 q 433 177 402 142 l 433 280 m 520 897 q 533 894 528 897 q 542 884 538 891 q 546 864 545 876 q 548 835 548 852 q 546 806 548 817 q 542 787 545 794 q 533 776 538 779 q 520 773 528 773 l 174 773 q 160 776 166 773 q 151 787 155 779 q 146 806 148 794 q 144 835 144 817 q 146 864 144 852 q 151 883 148 876 q 160 894 155 890 q 174 897 166 897 l 520 897 m 75 651 z "},"ă":{"ha":686,"x_min":48,"x_max":601,"o":"m 601 21 q 594 6 601 12 q 573 -2 587 1 q 530 -4 558 -4 q 485 -2 499 -4 q 466 6 471 1 q 460 21 460 12 l 460 69 q 375 7 422 29 q 269 -16 327 -16 q 180 -3 220 -16 q 110 34 140 9 q 64 96 81 59 q 48 181 48 132 q 69 273 48 234 q 131 337 90 312 q 233 375 172 363 q 374 387 294 387 l 433 387 l 433 424 q 428 474 433 452 q 409 509 422 495 q 373 530 395 524 q 319 537 351 537 q 242 528 276 537 q 183 507 209 518 q 140 486 157 495 q 112 476 123 476 q 99 481 104 476 q 89 494 93 486 q 83 516 85 503 q 81 545 81 529 q 85 578 81 566 q 98 600 88 590 q 131 622 107 610 q 186 644 155 633 q 256 660 218 654 q 334 667 294 667 q 455 653 405 667 q 538 610 506 639 q 586 536 571 581 q 601 428 601 490 l 601 21 m 433 280 l 368 280 q 298 274 327 280 q 250 256 269 268 q 223 226 232 243 q 215 186 215 209 q 239 127 215 149 q 306 105 263 105 q 372 123 342 105 q 433 177 402 142 l 433 280 m 431 923 q 444 943 432 936 q 486 949 456 949 q 515 948 503 949 q 533 944 526 947 q 542 937 539 941 q 544 926 544 932 q 532 845 544 880 q 496 786 520 810 q 434 749 472 762 q 346 736 397 736 q 256 749 293 736 q 195 786 218 762 q 160 845 171 810 q 149 924 149 880 q 160 944 149 938 q 204 949 172 949 q 232 948 221 949 q 250 943 243 947 q 260 935 257 940 q 263 923 262 930 q 270 890 265 905 q 284 865 275 876 q 309 849 294 854 q 346 844 324 844 q 380 848 366 844 q 406 863 395 853 q 423 887 417 873 q 431 923 429 902 m 79 651 z "},"å":{"ha":686,"x_min":48,"x_max":601,"o":"m 601 21 q 594 6 601 12 q 573 -2 587 1 q 530 -4 558 -4 q 485 -2 499 -4 q 466 6 471 1 q 460 21 460 12 l 460 69 q 375 7 422 29 q 269 -16 327 -16 q 180 -3 220 -16 q 110 34 140 9 q 64 96 81 59 q 48 181 48 132 q 69 273 48 234 q 131 337 90 312 q 233 375 172 363 q 374 387 294 387 l 433 387 l 433 424 q 428 474 433 452 q 409 509 422 495 q 373 530 395 524 q 319 537 351 537 q 242 528 276 537 q 183 507 209 518 q 140 486 157 495 q 112 476 123 476 q 99 481 104 476 q 89 494 93 486 q 83 516 85 503 q 81 545 81 529 q 85 578 81 566 q 98 600 88 590 q 131 622 107 610 q 186 644 155 633 q 256 660 218 654 q 334 667 294 667 q 455 653 405 667 q 538 610 506 639 q 586 536 571 581 q 601 428 601 490 l 601 21 m 433 280 l 368 280 q 298 274 327 280 q 250 256 269 268 q 223 226 232 243 q 215 186 215 209 q 239 127 215 149 q 306 105 263 105 q 372 123 342 105 q 433 177 402 142 l 433 280 m 505 859 q 494 802 505 827 q 462 759 483 777 q 412 733 441 742 q 343 724 382 724 q 275 732 304 724 q 226 758 245 741 q 197 799 207 774 q 188 854 188 823 q 198 911 188 886 q 230 953 209 936 q 280 979 250 970 q 349 988 310 988 q 465 955 425 988 q 505 859 505 922 m 403 855 q 389 898 403 882 q 345 913 375 913 q 303 899 317 913 q 290 857 290 884 q 303 814 290 829 q 347 798 316 798 q 389 813 375 798 q 403 855 403 829 m 119 651 z "},"ǻ":{"ha":686,"x_min":48,"x_max":601,"o":"m 601 21 q 594 6 601 12 q 573 -2 587 1 q 530 -4 558 -4 q 485 -2 499 -4 q 466 6 471 1 q 460 21 460 12 l 460 69 q 375 7 422 29 q 269 -16 327 -16 q 180 -3 220 -16 q 110 34 140 9 q 64 96 81 59 q 48 181 48 132 q 69 273 48 234 q 131 337 90 312 q 233 375 172 363 q 374 387 294 387 l 433 387 l 433 424 q 428 474 433 452 q 409 509 422 495 q 373 530 395 524 q 319 537 351 537 q 242 528 276 537 q 183 507 209 518 q 140 486 157 495 q 112 476 123 476 q 99 481 104 476 q 89 494 93 486 q 83 516 85 503 q 81 545 81 529 q 85 578 81 566 q 98 600 88 590 q 131 622 107 610 q 186 644 155 633 q 256 660 218 654 q 334 667 294 667 q 455 653 405 667 q 538 610 506 639 q 586 536 571 581 q 601 428 601 490 l 601 21 m 433 280 l 368 280 q 298 274 327 280 q 250 256 269 268 q 223 226 232 243 q 215 186 215 209 q 239 127 215 149 q 306 105 263 105 q 372 123 342 105 q 433 177 402 142 l 433 280 m 488 829 q 477 780 488 802 q 448 743 467 758 q 400 720 428 728 q 336 712 372 712 q 270 720 298 712 q 223 741 242 727 q 195 777 205 755 q 186 824 186 798 q 196 872 186 851 q 226 909 206 894 q 274 932 245 924 q 339 940 302 940 q 404 932 376 940 q 450 911 431 925 q 478 876 469 897 q 488 829 488 855 m 391 825 q 388 845 391 836 q 378 861 385 854 q 360 872 371 868 q 336 876 350 876 q 296 863 309 876 q 283 827 283 850 q 295 791 283 804 q 338 777 308 777 q 378 790 365 777 q 391 825 391 804 m 370 1104 q 383 1116 376 1111 q 399 1123 389 1120 q 421 1127 408 1126 q 454 1128 434 1128 q 498 1125 482 1128 q 522 1117 515 1122 q 527 1107 528 1113 q 519 1097 526 1101 l 394 997 q 381 987 387 991 q 367 981 375 983 q 347 977 359 979 q 319 976 336 976 q 284 978 296 976 q 267 983 272 979 q 264 992 262 987 q 273 1006 266 998 l 370 1104 m 121 651 z "},"ą":{"ha":686,"x_min":48,"x_max":642,"o":"m 642 -176 q 641 -200 642 -191 q 636 -216 640 -210 q 629 -225 633 -222 q 618 -231 625 -229 q 572 -243 597 -239 q 515 -248 547 -248 q 407 -220 446 -248 q 368 -139 368 -193 q 370 -113 368 -126 q 379 -87 373 -100 q 396 -59 386 -73 q 422 -30 407 -45 l 461 9 l 461 73 l 460 73 q 375 7 422 31 q 269 -16 328 -16 q 180 -3 220 -16 q 110 34 140 9 q 64 96 81 59 q 48 181 48 132 q 69 273 48 234 q 131 337 90 312 q 233 375 172 363 q 374 387 294 387 l 433 387 l 433 424 q 428 474 433 452 q 409 509 422 495 q 373 530 395 524 q 319 537 351 537 q 242 528 276 537 q 183 507 209 518 q 140 486 157 495 q 112 476 123 476 q 99 481 104 476 q 89 494 93 486 q 83 516 85 503 q 81 545 81 529 q 85 578 81 566 q 98 600 88 590 q 131 622 107 610 q 186 644 155 633 q 256 660 218 654 q 334 667 294 667 q 455 653 405 667 q 538 610 506 639 q 586 536 571 581 q 601 428 601 490 l 601 27 q 596 -5 601 9 q 582 -30 592 -19 l 553 -58 q 534 -83 539 -72 q 528 -104 528 -94 q 570 -133 528 -133 l 618 -133 q 637 -142 632 -133 q 642 -176 642 -151 m 433 280 l 368 280 q 298 274 327 280 q 250 256 269 268 q 223 226 232 243 q 215 186 215 209 q 239 127 215 149 q 306 105 263 105 q 372 123 342 105 q 433 177 402 142 l 433 280 z "},"æ":{"ha":1076,"x_min":48,"x_max":1021,"o":"m 1021 343 q 1007 297 1021 312 q 969 282 994 282 l 601 282 q 610 212 601 243 q 640 158 619 180 q 692 125 660 136 q 770 113 724 113 q 846 120 813 113 q 904 134 880 126 q 945 148 928 142 q 971 155 962 155 q 981 152 977 155 q 988 144 985 150 q 992 126 991 138 q 994 98 994 115 q 993 73 994 83 q 990 55 992 62 q 986 42 989 47 q 979 33 984 37 q 955 20 975 28 q 905 4 935 12 q 836 -10 875 -4 q 753 -16 797 -16 q 664 -8 704 -16 q 594 13 625 -1 q 539 46 563 26 q 498 91 516 66 q 450 43 476 63 q 394 10 423 24 q 333 -9 365 -3 q 269 -16 302 -16 q 180 -3 220 -16 q 110 34 140 9 q 64 96 81 59 q 48 180 48 132 q 69 273 48 234 q 131 337 90 312 q 233 375 172 363 q 374 387 294 387 l 433 387 l 433 424 q 428 474 433 452 q 409 509 422 495 q 373 530 395 524 q 319 537 351 537 q 242 528 276 537 q 183 507 209 518 q 139 486 157 495 q 111 476 121 476 q 98 481 104 476 q 89 494 92 486 q 83 516 85 503 q 81 545 81 529 q 85 578 81 566 q 98 600 88 590 q 131 622 107 610 q 186 644 155 633 q 256 660 218 654 q 334 667 294 667 q 406 661 374 667 q 464 645 438 656 q 508 618 489 634 q 541 583 527 602 q 625 645 573 623 q 743 667 677 667 q 868 644 816 667 q 955 582 920 622 q 1005 488 989 542 q 1021 370 1021 433 l 1021 343 m 857 392 q 850 456 857 428 q 827 505 842 485 q 788 535 812 524 q 732 546 764 546 q 675 534 699 546 q 635 501 651 522 q 611 452 619 480 q 601 392 602 424 l 857 392 m 444 189 q 435 233 437 208 q 432 280 432 258 l 368 280 q 298 274 327 280 q 250 256 269 268 q 223 226 232 243 q 215 186 215 209 q 239 127 215 149 q 306 105 263 105 q 375 125 342 105 q 444 189 408 146 z "},"ǽ":{"ha":1076,"x_min":48,"x_max":1021,"o":"m 1021 343 q 1007 297 1021 312 q 969 282 994 282 l 601 282 q 610 212 601 243 q 640 158 619 180 q 692 125 660 136 q 770 113 724 113 q 846 120 813 113 q 904 134 880 126 q 945 148 928 142 q 971 155 962 155 q 981 152 977 155 q 988 144 985 150 q 992 126 991 138 q 994 98 994 115 q 993 73 994 83 q 990 55 992 62 q 986 42 989 47 q 979 33 984 37 q 955 20 975 28 q 905 4 935 12 q 836 -10 875 -4 q 753 -16 797 -16 q 664 -8 704 -16 q 594 13 625 -1 q 539 46 563 26 q 498 91 516 66 q 450 43 476 63 q 394 10 423 24 q 333 -9 365 -3 q 269 -16 302 -16 q 180 -3 220 -16 q 110 34 140 9 q 64 96 81 59 q 48 180 48 132 q 69 273 48 234 q 131 337 90 312 q 233 375 172 363 q 374 387 294 387 l 433 387 l 433 424 q 428 474 433 452 q 409 509 422 495 q 373 530 395 524 q 319 537 351 537 q 242 528 276 537 q 183 507 209 518 q 139 486 157 495 q 111 476 121 476 q 98 481 104 476 q 89 494 92 486 q 83 516 85 503 q 81 545 81 529 q 85 578 81 566 q 98 600 88 590 q 131 622 107 610 q 186 644 155 633 q 256 660 218 654 q 334 667 294 667 q 406 661 374 667 q 464 645 438 656 q 508 618 489 634 q 541 583 527 602 q 625 645 573 623 q 743 667 677 667 q 868 644 816 667 q 955 582 920 622 q 1005 488 989 542 q 1021 370 1021 433 l 1021 343 m 857 392 q 850 456 857 428 q 827 505 842 485 q 788 535 812 524 q 732 546 764 546 q 675 534 699 546 q 635 501 651 522 q 611 452 619 480 q 601 392 602 424 l 857 392 m 444 189 q 435 233 437 208 q 432 280 432 258 l 368 280 q 298 274 327 280 q 250 256 269 268 q 223 226 232 243 q 215 186 215 209 q 239 127 215 149 q 306 105 263 105 q 375 125 342 105 q 444 189 408 146 m 577 925 q 589 938 582 932 q 606 946 595 943 q 631 951 616 949 q 669 952 647 952 q 719 949 701 952 q 744 942 736 947 q 751 930 752 937 q 745 916 751 923 l 613 758 q 602 747 608 751 q 588 740 597 743 q 567 736 580 737 q 534 734 554 734 q 497 736 511 734 q 477 743 483 739 q 473 754 472 747 q 480 770 474 761 l 577 925 m 404 651 z "},"b":{"ha":745,"x_min":85,"x_max":694,"o":"m 694 334 q 677 189 694 253 q 626 79 659 124 q 544 9 593 33 q 434 -16 496 -16 q 377 -10 404 -16 q 327 9 351 -4 q 279 41 302 22 q 231 89 256 61 l 231 23 q 228 11 231 16 q 215 2 224 5 q 193 -3 207 -1 q 158 -4 178 -4 q 123 -3 137 -4 q 101 2 109 -1 q 89 11 92 5 q 85 23 85 16 l 85 915 q 90 927 85 922 q 103 936 94 932 q 130 942 113 940 q 171 944 146 944 q 212 942 196 944 q 238 936 229 940 q 252 927 248 932 q 256 915 256 922 l 256 581 q 302 620 279 604 q 349 647 326 636 q 396 662 372 657 q 448 667 420 667 q 562 640 515 667 q 638 568 608 613 q 681 461 667 522 q 694 334 694 401 m 517 321 q 512 396 517 360 q 492 460 506 432 q 455 504 477 488 q 397 521 432 521 q 364 516 380 521 q 331 500 348 511 q 295 470 313 488 q 256 425 277 452 l 256 224 q 325 154 292 178 q 394 130 358 130 q 450 146 427 130 q 489 191 473 163 q 511 252 504 218 q 517 321 517 287 z "},"c":{"ha":581,"x_min":49,"x_max":543,"o":"m 543 119 q 542 90 543 102 q 539 70 541 78 q 535 57 538 62 q 525 44 533 52 q 497 25 517 36 q 452 5 477 14 q 398 -9 427 -4 q 337 -15 368 -15 q 213 7 267 -15 q 123 71 159 28 q 67 174 86 113 q 49 314 49 235 q 72 471 49 405 q 135 581 94 537 q 231 645 176 624 q 353 666 287 666 q 407 661 380 666 q 455 648 433 656 q 496 630 478 640 q 522 612 514 620 q 532 600 529 605 q 537 587 535 595 q 539 567 538 578 q 541 538 541 555 q 534 483 541 498 q 516 467 527 467 q 492 476 505 467 q 461 497 479 486 q 419 518 444 509 q 361 528 395 528 q 259 476 294 528 q 224 326 224 425 q 233 240 224 277 q 259 178 241 203 q 302 140 276 153 q 363 127 328 127 q 424 138 398 127 q 468 161 449 149 q 500 185 487 174 q 522 195 513 195 q 532 192 528 195 q 538 179 536 189 q 542 156 541 170 q 543 119 543 142 z "},"ć":{"ha":581,"x_min":49,"x_max":543,"o":"m 543 119 q 542 90 543 102 q 539 70 541 78 q 535 57 538 62 q 525 44 533 52 q 497 25 517 36 q 452 5 477 14 q 398 -9 427 -4 q 337 -15 368 -15 q 213 7 267 -15 q 123 71 159 28 q 67 174 86 113 q 49 314 49 235 q 72 471 49 405 q 135 581 94 537 q 231 645 176 624 q 353 666 287 666 q 407 661 380 666 q 455 648 433 656 q 496 630 478 640 q 522 612 514 620 q 532 600 529 605 q 537 587 535 595 q 539 567 538 578 q 541 538 541 555 q 534 483 541 498 q 516 467 527 467 q 492 476 505 467 q 461 497 479 486 q 419 518 444 509 q 361 528 395 528 q 259 476 294 528 q 224 326 224 425 q 233 240 224 277 q 259 178 241 203 q 302 140 276 153 q 363 127 328 127 q 424 138 398 127 q 468 161 449 149 q 500 185 487 174 q 522 195 513 195 q 532 192 528 195 q 538 179 536 189 q 542 156 541 170 q 543 119 543 142 m 345 925 q 357 938 350 932 q 374 946 363 943 q 399 951 384 949 q 437 952 415 952 q 487 949 469 952 q 512 942 505 947 q 519 930 520 937 q 513 916 519 923 l 381 758 q 370 747 376 751 q 356 740 365 743 q 335 736 348 737 q 302 734 322 734 q 265 736 279 734 q 245 743 251 739 q 241 754 240 747 q 248 770 242 761 l 345 925 m 172 651 z "},"ĉ":{"ha":581,"x_min":40,"x_max":543,"o":"m 543 119 q 542 90 543 102 q 539 70 541 78 q 535 57 538 62 q 525 44 533 52 q 497 25 517 36 q 452 5 477 14 q 398 -9 427 -4 q 337 -15 368 -15 q 213 7 267 -15 q 123 71 159 28 q 67 174 86 113 q 49 314 49 235 q 72 471 49 405 q 135 581 94 537 q 231 645 176 624 q 353 666 287 666 q 407 661 380 666 q 455 648 433 656 q 496 630 478 640 q 522 612 514 620 q 532 600 529 605 q 537 587 535 595 q 539 567 538 578 q 541 538 541 555 q 534 483 541 498 q 516 467 527 467 q 492 476 505 467 q 461 497 479 486 q 419 518 444 509 q 361 528 395 528 q 259 476 294 528 q 224 326 224 425 q 233 240 224 277 q 259 178 241 203 q 302 140 276 153 q 363 127 328 127 q 424 138 398 127 q 468 161 449 149 q 500 185 487 174 q 522 195 513 195 q 532 192 528 195 q 538 179 536 189 q 542 156 541 170 q 543 119 543 142 m 248 758 q 239 746 243 751 q 226 739 234 741 q 205 735 218 736 q 172 734 193 734 q 131 737 145 734 q 111 744 116 739 q 110 758 106 749 q 123 779 114 767 l 231 930 q 241 941 235 937 q 258 947 248 945 q 283 951 269 950 q 319 952 298 952 q 356 951 341 952 q 380 947 370 949 q 396 940 390 944 q 407 930 402 936 l 513 779 q 526 758 523 766 q 525 744 530 749 q 506 737 520 739 q 465 734 491 734 q 430 735 443 734 q 410 739 418 736 q 398 746 402 742 q 389 758 394 751 l 319 860 l 248 758 m 40 651 z "},"č":{"ha":581,"x_min":49,"x_max":543,"o":"m 543 119 q 542 90 543 102 q 539 70 541 78 q 535 57 538 62 q 525 44 533 52 q 497 25 517 36 q 452 5 477 14 q 398 -9 427 -4 q 337 -15 368 -15 q 213 7 267 -15 q 123 71 159 28 q 67 174 86 113 q 49 314 49 235 q 72 471 49 405 q 135 581 94 537 q 231 645 176 624 q 353 666 287 666 q 407 661 380 666 q 455 648 433 656 q 496 630 478 640 q 522 612 514 620 q 532 600 529 605 q 537 587 535 595 q 539 567 538 578 q 541 538 541 555 q 534 483 541 498 q 516 467 527 467 q 492 476 505 467 q 461 497 479 486 q 419 518 444 509 q 361 528 395 528 q 259 476 294 528 q 224 326 224 425 q 233 240 224 277 q 259 178 241 203 q 302 140 276 153 q 363 127 328 127 q 424 138 398 127 q 468 161 449 149 q 500 185 487 174 q 522 195 513 195 q 532 192 528 195 q 538 179 536 189 q 542 156 541 170 q 543 119 543 142 m 401 929 q 411 941 406 936 q 424 948 416 945 q 445 951 432 950 q 477 952 457 952 q 519 950 505 952 q 538 943 533 948 q 539 929 543 937 q 526 907 536 920 l 420 756 q 408 746 415 750 q 391 739 401 741 q 366 735 381 736 q 330 734 351 734 q 294 736 309 734 q 270 740 279 737 q 253 747 260 743 q 243 756 247 751 l 136 907 q 123 929 127 920 q 125 943 120 937 q 144 950 130 948 q 185 952 159 952 q 219 951 207 952 q 240 947 232 950 q 252 940 248 945 q 260 929 256 936 l 330 827 l 401 929 m 52 651 z "},"ċ":{"ha":581,"x_min":49,"x_max":543,"o":"m 543 119 q 542 90 543 102 q 539 70 541 78 q 535 57 538 62 q 525 44 533 52 q 497 25 517 36 q 452 5 477 14 q 398 -9 427 -4 q 337 -15 368 -15 q 213 7 267 -15 q 123 71 159 28 q 67 174 86 113 q 49 314 49 235 q 72 471 49 405 q 135 581 94 537 q 231 645 176 624 q 353 666 287 666 q 407 661 380 666 q 455 648 433 656 q 496 630 478 640 q 522 612 514 620 q 532 600 529 605 q 537 587 535 595 q 539 567 538 578 q 541 538 541 555 q 534 483 541 498 q 516 467 527 467 q 492 476 505 467 q 461 497 479 486 q 419 518 444 509 q 361 528 395 528 q 259 476 294 528 q 224 326 224 425 q 233 240 224 277 q 259 178 241 203 q 302 140 276 153 q 363 127 328 127 q 424 138 398 127 q 468 161 449 149 q 500 185 487 174 q 522 195 513 195 q 532 192 528 195 q 538 179 536 189 q 542 156 541 170 q 543 119 543 142 m 425 838 q 405 770 425 789 q 330 751 385 751 q 256 769 276 751 q 237 834 237 788 q 257 902 237 882 q 332 921 277 921 q 405 902 386 921 q 425 838 425 884 m 168 651 z "},"ç":{"ha":581,"x_min":49,"x_max":543,"o":"m 543 119 q 542 90 543 102 q 539 70 541 78 q 535 57 538 62 q 525 44 533 52 q 496 24 517 36 q 448 3 476 13 q 388 -11 420 -7 l 403 -45 q 420 -91 415 -71 q 426 -129 426 -111 q 415 -182 426 -160 q 384 -219 404 -205 q 337 -240 363 -233 q 281 -248 311 -248 q 225 -243 251 -248 q 183 -235 200 -239 q 159 -227 166 -230 q 149 -218 152 -223 q 145 -204 146 -212 q 144 -180 144 -195 q 149 -143 144 -153 q 168 -132 154 -132 l 246 -132 q 275 -124 266 -132 q 285 -100 285 -115 q 282 -82 285 -92 q 274 -61 279 -72 l 248 -3 q 137 56 181 14 q 71 163 93 98 q 49 314 49 228 q 72 471 49 405 q 135 581 94 537 q 231 645 176 624 q 353 666 287 666 q 407 661 380 666 q 455 648 433 656 q 496 630 478 640 q 522 612 514 620 q 532 600 529 605 q 537 587 535 595 q 539 567 538 578 q 541 538 541 555 q 534 483 541 498 q 516 467 527 467 q 492 476 505 467 q 461 497 479 486 q 419 518 444 509 q 361 528 395 528 q 259 476 294 528 q 224 326 224 425 q 233 240 224 277 q 259 178 241 203 q 302 140 276 153 q 363 127 328 127 q 424 138 398 127 q 468 161 449 149 q 500 185 487 174 q 522 195 513 195 q 532 192 528 195 q 538 179 536 189 q 542 156 541 170 q 543 119 543 142 z "},"d":{"ha":745,"x_min":51,"x_max":659,"o":"m 659 23 q 656 11 659 16 q 644 2 652 5 q 622 -3 636 -1 q 588 -4 608 -4 q 553 -3 566 -4 q 531 2 539 -1 q 518 11 522 5 q 515 23 515 16 l 515 90 q 417 12 468 40 q 303 -16 366 -16 q 186 11 234 -16 q 108 83 138 38 q 64 190 78 129 q 51 317 51 250 q 68 463 51 398 q 119 572 85 527 q 201 642 152 618 q 315 667 251 667 q 408 646 366 667 q 490 585 449 625 l 490 913 q 493 925 490 920 q 507 934 497 930 q 533 940 517 938 q 574 942 549 942 q 616 940 600 942 q 642 934 632 938 q 655 925 651 930 q 659 913 659 920 l 659 23 m 490 427 q 419 498 453 473 q 349 522 386 522 q 292 506 316 522 q 253 461 268 489 q 232 399 239 433 q 224 329 224 365 q 231 255 224 291 q 251 191 237 219 q 288 146 264 163 q 346 129 311 129 q 380 134 363 129 q 414 151 397 139 q 450 181 431 162 q 490 227 468 199 l 490 427 z "},"ď":{"ha":829,"x_min":51,"x_max":905,"o":"m 659 23 q 656 11 659 16 q 644 2 652 5 q 622 -3 636 -1 q 588 -4 608 -4 q 553 -3 566 -4 q 531 2 539 -1 q 518 11 522 5 q 515 23 515 16 l 515 90 q 417 12 468 40 q 303 -16 366 -16 q 186 11 234 -16 q 108 83 138 38 q 64 190 78 129 q 51 317 51 250 q 68 463 51 398 q 119 572 85 527 q 201 642 152 618 q 315 667 251 667 q 408 646 366 667 q 490 585 449 625 l 490 913 q 493 925 490 920 q 507 934 497 930 q 533 940 517 938 q 574 942 549 942 q 616 940 600 942 q 642 934 632 938 q 655 925 651 930 q 659 913 659 920 l 659 23 m 490 427 q 419 498 453 473 q 349 522 386 522 q 292 506 316 522 q 253 461 268 489 q 232 399 239 433 q 224 329 224 365 q 231 255 224 291 q 251 191 237 219 q 288 146 264 163 q 346 129 311 129 q 380 134 363 129 q 414 151 397 139 q 450 181 431 162 q 490 227 468 199 l 490 427 m 753 941 q 761 955 755 949 q 775 965 766 961 q 800 971 785 969 q 837 973 814 973 q 876 971 861 973 q 897 964 890 968 q 904 954 904 960 q 902 939 905 947 l 818 726 q 810 714 815 719 q 797 708 806 710 q 775 704 788 705 q 743 703 762 703 q 718 705 727 703 q 704 710 709 707 q 699 720 700 713 q 701 734 699 726 l 753 941 m 629 692 z "},"đ":{"ha":790,"x_min":51,"x_max":762,"o":"m 762 791 q 761 760 762 772 q 756 740 759 747 q 748 730 753 733 q 736 728 743 728 l 659 728 l 659 23 q 656 11 659 16 q 644 2 652 5 q 622 -3 636 -1 q 588 -4 608 -4 q 553 -3 566 -4 q 531 2 539 -1 q 518 11 522 5 q 515 23 515 16 l 515 90 q 417 12 468 40 q 303 -16 366 -16 q 186 11 234 -16 q 108 83 138 37 q 64 189 78 128 q 51 316 51 249 q 68 461 51 397 q 119 570 85 525 q 201 639 152 615 q 315 663 251 663 q 407 643 366 663 q 490 583 448 622 l 490 728 l 352 728 q 341 730 346 728 q 332 740 336 733 q 327 760 329 747 q 326 791 326 772 q 327 822 326 810 q 332 841 329 834 q 341 850 336 848 q 352 852 346 852 l 490 852 l 490 913 q 493 925 490 920 q 507 934 497 930 q 533 940 517 938 q 574 942 549 942 q 616 940 600 942 q 642 934 632 938 q 655 925 651 930 q 659 913 659 920 l 659 852 l 735 852 q 747 850 742 852 q 755 841 752 848 q 761 822 759 834 q 762 791 762 810 m 490 425 q 419 495 453 471 q 348 519 386 519 q 292 503 315 519 q 254 461 269 488 q 232 400 239 434 q 224 328 224 366 q 231 254 224 290 q 251 191 237 218 q 288 146 264 163 q 346 129 311 129 q 380 134 363 129 q 414 151 397 139 q 450 181 431 162 q 490 227 468 199 l 490 425 z "},"ð":{"ha":745,"x_min":52,"x_max":670,"o":"m 196 715 q 181 714 187 713 q 172 720 176 715 q 168 736 169 726 q 166 763 166 746 q 168 789 166 779 q 172 806 169 800 q 182 816 176 812 q 197 821 188 819 l 297 846 q 283 861 291 852 q 266 878 275 869 q 249 896 258 887 q 234 912 241 905 q 227 924 228 918 q 233 935 225 930 q 261 942 241 939 q 317 945 281 945 q 365 944 347 945 q 394 940 382 943 q 413 933 406 937 q 428 922 420 928 q 451 897 441 907 q 462 884 460 886 l 629 924 q 643 926 637 926 q 653 920 649 925 q 658 905 656 916 q 659 878 659 895 q 658 852 659 863 q 653 834 656 841 q 643 825 649 828 q 629 819 637 821 l 536 797 q 599 701 573 748 q 641 605 625 654 q 663 504 656 556 q 670 391 670 452 q 649 214 670 290 q 588 86 629 138 q 485 10 547 35 q 342 -16 423 -16 q 209 7 264 -16 q 118 74 153 31 q 67 178 83 117 q 52 317 52 240 q 71 470 52 404 q 124 579 90 535 q 207 645 159 623 q 315 667 256 667 q 356 663 336 667 q 393 652 375 659 q 429 633 412 644 q 466 606 447 621 q 452 639 460 621 q 433 676 444 657 q 407 716 422 695 q 374 759 393 737 l 196 715 m 495 366 q 495 401 495 384 q 493 429 494 418 q 453 470 472 452 q 417 498 435 487 q 383 516 399 510 q 350 522 366 522 q 295 507 319 522 q 256 466 271 492 q 233 405 241 440 q 225 329 225 370 q 232 252 225 288 q 252 188 238 215 q 290 145 267 161 q 348 129 313 129 q 412 143 385 129 q 458 186 440 157 q 486 259 477 215 q 495 366 495 304 z "},"e":{"ha":699,"x_min":50,"x_max":644,"o":"m 644 343 q 630 297 644 312 q 592 282 616 282 l 224 282 q 233 212 224 243 q 262 158 242 180 q 314 125 282 136 q 389 113 345 113 q 468 120 434 113 q 527 134 502 126 q 568 148 551 142 q 594 155 584 155 q 604 152 600 155 q 611 144 608 150 q 615 126 614 138 q 616 98 616 115 q 615 73 616 83 q 613 55 614 62 q 609 42 612 47 q 602 33 606 37 q 578 20 597 28 q 528 4 558 12 q 458 -10 497 -4 q 374 -16 418 -16 q 232 5 293 -16 q 131 66 172 25 q 70 171 90 108 q 50 319 50 234 q 71 464 50 399 q 132 574 92 529 q 230 643 172 619 q 359 667 287 667 q 489 644 435 667 q 577 582 543 622 q 628 488 612 543 q 644 370 644 434 l 644 343 m 479 392 q 450 505 481 464 q 355 546 419 546 q 298 534 322 546 q 258 501 274 522 q 234 452 242 480 q 224 392 225 424 l 479 392 z "},"è":{"ha":699,"x_min":50,"x_max":644,"o":"m 644 343 q 630 297 644 312 q 592 282 616 282 l 224 282 q 233 212 224 243 q 262 158 242 180 q 314 125 282 136 q 389 113 345 113 q 468 120 434 113 q 527 134 502 126 q 568 148 551 142 q 594 155 584 155 q 604 152 600 155 q 611 144 608 150 q 615 126 614 138 q 616 98 616 115 q 615 73 616 83 q 613 55 614 62 q 609 42 612 47 q 602 33 606 37 q 578 20 597 28 q 528 4 558 12 q 458 -10 497 -4 q 374 -16 418 -16 q 232 5 293 -16 q 131 66 172 25 q 70 171 90 108 q 50 319 50 234 q 71 464 50 399 q 132 574 92 529 q 230 643 172 619 q 359 667 287 667 q 489 644 435 667 q 577 582 543 622 q 628 488 612 543 q 644 370 644 434 l 644 343 m 479 392 q 450 505 481 464 q 355 546 419 546 q 298 534 322 546 q 258 501 274 522 q 234 452 242 480 q 224 392 225 424 l 479 392 m 420 770 q 428 754 427 761 q 424 743 429 747 q 405 736 418 739 q 368 734 391 734 q 335 736 348 734 q 313 740 322 737 q 299 747 304 743 q 288 758 293 751 l 157 916 q 149 930 150 923 q 156 942 149 937 q 182 949 164 947 q 232 952 201 952 q 270 951 254 952 q 295 946 285 949 q 312 938 305 943 q 323 925 318 932 l 420 770 m 80 651 z "},"é":{"ha":699,"x_min":50,"x_max":644,"o":"m 644 343 q 630 297 644 312 q 592 282 616 282 l 224 282 q 233 212 224 243 q 262 158 242 180 q 314 125 282 136 q 389 113 345 113 q 468 120 434 113 q 527 134 502 126 q 568 148 551 142 q 594 155 584 155 q 604 152 600 155 q 611 144 608 150 q 615 126 614 138 q 616 98 616 115 q 615 73 616 83 q 613 55 614 62 q 609 42 612 47 q 602 33 606 37 q 578 20 597 28 q 528 4 558 12 q 458 -10 497 -4 q 374 -16 418 -16 q 232 5 293 -16 q 131 66 172 25 q 70 171 90 108 q 50 319 50 234 q 71 464 50 399 q 132 574 92 529 q 230 643 172 619 q 359 667 287 667 q 489 644 435 667 q 577 582 543 622 q 628 488 612 543 q 644 370 644 434 l 644 343 m 479 392 q 450 505 481 464 q 355 546 419 546 q 298 534 322 546 q 258 501 274 522 q 234 452 242 480 q 224 392 225 424 l 479 392 m 383 925 q 395 938 388 932 q 412 946 401 943 q 437 951 422 949 q 475 952 453 952 q 525 949 507 952 q 550 942 543 947 q 557 930 558 937 q 551 916 557 923 l 419 758 q 408 747 414 751 q 394 740 403 743 q 373 736 386 737 q 340 734 360 734 q 303 736 317 734 q 283 743 289 739 q 279 754 278 747 q 286 770 280 761 l 383 925 m 210 651 z "},"ê":{"ha":699,"x_min":50,"x_max":644,"o":"m 644 343 q 630 297 644 312 q 592 282 616 282 l 224 282 q 233 212 224 243 q 262 158 242 180 q 314 125 282 136 q 389 113 345 113 q 468 120 434 113 q 527 134 502 126 q 568 148 551 142 q 594 155 584 155 q 604 152 600 155 q 611 144 608 150 q 615 126 614 138 q 616 98 616 115 q 615 73 616 83 q 613 55 614 62 q 609 42 612 47 q 602 33 606 37 q 578 20 597 28 q 528 4 558 12 q 458 -10 497 -4 q 374 -16 418 -16 q 232 5 293 -16 q 131 66 172 25 q 70 171 90 108 q 50 319 50 234 q 71 464 50 399 q 132 574 92 529 q 230 643 172 619 q 359 667 287 667 q 489 644 435 667 q 577 582 543 622 q 628 488 612 543 q 644 370 644 434 l 644 343 m 479 392 q 450 505 481 464 q 355 546 419 546 q 298 534 322 546 q 258 501 274 522 q 234 452 242 480 q 224 392 225 424 l 479 392 m 283 758 q 273 746 278 751 q 260 739 269 741 q 240 735 252 736 q 207 734 227 734 q 165 737 180 734 q 146 744 151 739 q 145 758 141 749 q 158 779 149 767 l 265 930 q 276 941 269 937 q 293 947 282 945 q 318 951 303 950 q 354 952 333 952 q 390 951 376 952 q 415 947 405 949 q 431 940 425 944 q 441 930 437 936 l 548 779 q 561 758 557 766 q 559 744 564 749 q 540 737 555 739 q 499 734 526 734 q 465 735 477 734 q 445 739 452 736 q 433 746 437 742 q 424 758 429 751 l 353 860 l 283 758 m 75 651 z "},"ě":{"ha":699,"x_min":50,"x_max":644,"o":"m 644 343 q 630 297 644 312 q 592 282 616 282 l 224 282 q 233 212 224 243 q 262 158 242 180 q 314 125 282 136 q 389 113 345 113 q 468 120 434 113 q 527 134 502 126 q 568 148 551 142 q 594 155 584 155 q 604 152 600 155 q 611 144 608 150 q 615 126 614 138 q 616 98 616 115 q 615 73 616 83 q 613 55 614 62 q 609 42 612 47 q 602 33 606 37 q 578 20 597 28 q 528 4 558 12 q 458 -10 497 -4 q 374 -16 418 -16 q 232 5 293 -16 q 131 66 172 25 q 70 171 90 108 q 50 319 50 234 q 71 464 50 399 q 132 574 92 529 q 230 643 172 619 q 359 667 287 667 q 489 644 435 667 q 577 582 543 622 q 628 488 612 543 q 644 370 644 434 l 644 343 m 479 392 q 450 505 481 464 q 355 546 419 546 q 298 534 322 546 q 258 501 274 522 q 234 452 242 480 q 224 392 225 424 l 479 392 m 423 929 q 433 941 428 936 q 446 948 437 945 q 466 951 454 950 q 499 952 479 952 q 541 950 526 952 q 559 943 555 948 q 561 929 564 937 q 548 907 557 920 l 441 756 q 430 746 437 750 q 413 739 423 741 q 388 735 403 736 q 352 734 373 734 q 316 736 331 734 q 291 740 301 737 q 275 747 281 743 q 265 756 269 751 l 157 907 q 145 929 149 920 q 146 943 142 937 q 166 950 151 948 q 207 952 180 952 q 241 951 229 952 q 261 947 254 950 q 273 940 269 945 q 282 929 277 936 l 352 827 l 423 929 m 74 651 z "},"ë":{"ha":699,"x_min":50,"x_max":644,"o":"m 644 343 q 630 297 644 312 q 592 282 616 282 l 224 282 q 233 212 224 243 q 262 158 242 180 q 314 125 282 136 q 389 113 345 113 q 468 120 434 113 q 527 134 502 126 q 568 148 551 142 q 594 155 584 155 q 604 152 600 155 q 611 144 608 150 q 615 126 614 138 q 616 98 616 115 q 615 73 616 83 q 613 55 614 62 q 609 42 612 47 q 602 33 606 37 q 578 20 597 28 q 528 4 558 12 q 458 -10 497 -4 q 374 -16 418 -16 q 232 5 293 -16 q 131 66 172 25 q 70 171 90 108 q 50 319 50 234 q 71 464 50 399 q 132 574 92 529 q 230 643 172 619 q 359 667 287 667 q 489 644 435 667 q 577 582 543 622 q 628 488 612 543 q 644 370 644 434 l 644 343 m 479 392 q 450 505 481 464 q 355 546 419 546 q 298 534 322 546 q 258 501 274 522 q 234 452 242 480 q 224 392 225 424 l 479 392 m 307 832 q 289 766 307 785 q 220 747 271 747 q 152 765 170 747 q 134 829 134 783 q 153 896 134 878 q 220 914 171 914 q 289 896 272 914 q 307 832 307 878 m 572 832 q 554 766 572 785 q 485 747 536 747 q 417 765 435 747 q 399 829 399 783 q 417 896 399 878 q 486 914 435 914 q 554 896 536 914 q 572 832 572 878 m 65 651 z "},"ē":{"ha":699,"x_min":50,"x_max":644,"o":"m 644 343 q 630 297 644 312 q 592 282 616 282 l 224 282 q 233 212 224 243 q 262 158 242 180 q 314 125 282 136 q 389 113 345 113 q 468 120 434 113 q 527 134 502 126 q 568 148 551 142 q 594 155 584 155 q 604 152 600 155 q 611 144 608 150 q 615 126 614 138 q 616 98 616 115 q 615 73 616 83 q 613 55 614 62 q 609 42 612 47 q 602 33 606 37 q 578 20 597 28 q 528 4 558 12 q 458 -10 497 -4 q 374 -16 418 -16 q 232 5 293 -16 q 131 66 172 25 q 70 171 90 108 q 50 319 50 234 q 71 464 50 399 q 132 574 92 529 q 230 643 172 619 q 359 667 287 667 q 489 644 435 667 q 577 582 543 622 q 628 488 612 543 q 644 370 644 434 l 644 343 m 479 392 q 450 505 481 464 q 355 546 419 546 q 298 534 322 546 q 258 501 274 522 q 234 452 242 480 q 224 392 225 424 l 479 392 m 528 897 q 541 894 536 897 q 550 884 547 891 q 554 864 553 876 q 556 835 556 852 q 554 806 556 817 q 550 787 553 794 q 541 776 547 779 q 528 773 536 773 l 182 773 q 169 776 174 773 q 159 787 163 779 q 154 806 156 794 q 153 835 153 817 q 154 864 153 852 q 159 883 156 876 q 169 894 163 890 q 182 897 174 897 l 528 897 m 83 651 z "},"ĕ":{"ha":699,"x_min":50,"x_max":644,"o":"m 644 343 q 630 297 644 312 q 592 282 616 282 l 224 282 q 233 212 224 243 q 262 158 242 180 q 314 125 282 136 q 389 113 345 113 q 468 120 434 113 q 527 134 502 126 q 568 148 551 142 q 594 155 584 155 q 604 152 600 155 q 611 144 608 150 q 615 126 614 138 q 616 98 616 115 q 615 73 616 83 q 613 55 614 62 q 609 42 612 47 q 602 33 606 37 q 578 20 597 28 q 528 4 558 12 q 458 -10 497 -4 q 374 -16 418 -16 q 232 5 293 -16 q 131 66 172 25 q 70 171 90 108 q 50 319 50 234 q 71 464 50 399 q 132 574 92 529 q 230 643 172 619 q 359 667 287 667 q 489 644 435 667 q 577 582 543 622 q 628 488 612 543 q 644 370 644 434 l 644 343 m 479 392 q 450 505 481 464 q 355 546 419 546 q 298 534 322 546 q 258 501 274 522 q 234 452 242 480 q 224 392 225 424 l 479 392 m 433 923 q 447 943 435 936 q 488 949 458 949 q 517 948 506 949 q 535 944 529 947 q 544 937 542 941 q 547 926 547 932 q 535 845 547 880 q 499 786 523 810 q 437 749 475 762 q 349 736 399 736 q 258 749 296 736 q 197 786 221 762 q 162 845 174 810 q 151 924 151 880 q 163 944 151 938 q 207 949 174 949 q 235 948 224 949 q 253 943 246 947 q 262 935 260 940 q 266 923 265 930 q 273 890 268 905 q 287 865 277 876 q 312 849 297 854 q 349 844 327 844 q 383 848 368 844 q 409 863 398 853 q 426 887 420 873 q 433 923 432 902 m 82 651 z "},"ė":{"ha":699,"x_min":50,"x_max":644,"o":"m 644 343 q 630 297 644 312 q 592 282 616 282 l 224 282 q 233 212 224 243 q 262 158 242 180 q 314 125 282 136 q 389 113 345 113 q 468 120 434 113 q 527 134 502 126 q 568 148 551 142 q 594 155 584 155 q 604 152 600 155 q 611 144 608 150 q 615 126 614 138 q 616 98 616 115 q 615 73 616 83 q 613 55 614 62 q 609 42 612 47 q 602 33 606 37 q 578 20 597 28 q 528 4 558 12 q 458 -10 497 -4 q 374 -16 418 -16 q 232 5 293 -16 q 131 66 172 25 q 70 171 90 108 q 50 319 50 234 q 71 464 50 399 q 132 574 92 529 q 230 643 172 619 q 359 667 287 667 q 489 644 435 667 q 577 582 543 622 q 628 488 612 543 q 644 370 644 434 l 644 343 m 479 392 q 450 505 481 464 q 355 546 419 546 q 298 534 322 546 q 258 501 274 522 q 234 452 242 480 q 224 392 225 424 l 479 392 m 448 838 q 428 770 448 789 q 354 751 408 751 q 280 769 300 751 q 260 834 260 788 q 281 902 260 882 q 355 921 301 921 q 429 902 410 921 q 448 838 448 884 m 191 651 z "},"ę":{"ha":699,"x_min":50,"x_max":644,"o":"m 644 343 q 630 297 644 312 q 592 282 616 282 l 224 282 q 233 212 224 243 q 262 158 242 180 q 314 125 282 136 q 389 113 345 113 q 468 120 434 113 q 527 134 502 126 q 568 148 551 142 q 594 155 584 155 q 604 152 600 155 q 611 144 608 150 q 615 126 614 138 q 616 98 616 115 q 615 65 616 79 q 612 43 614 52 q 605 27 610 34 q 591 11 600 20 l 522 -58 q 502 -84 507 -74 q 497 -104 497 -95 q 507 -125 497 -118 q 541 -133 516 -133 l 599 -133 q 617 -141 611 -133 q 623 -175 623 -149 q 621 -200 623 -190 q 617 -216 620 -210 q 609 -225 614 -222 q 596 -231 604 -229 q 544 -243 570 -239 q 486 -248 518 -248 q 373 -220 414 -248 q 333 -139 333 -193 q 335 -112 333 -125 q 343 -88 338 -100 q 358 -64 349 -76 q 380 -39 368 -52 l 412 -7 q 386 -11 400 -9 q 354 -12 372 -12 q 223 8 280 -12 q 128 70 167 28 q 70 173 90 111 q 50 319 50 235 q 71 464 50 399 q 132 574 92 529 q 230 643 172 619 q 359 667 287 667 q 489 644 435 667 q 577 582 543 622 q 628 488 612 543 q 644 370 644 434 l 644 343 m 479 392 q 450 505 481 464 q 355 546 419 546 q 298 534 322 546 q 258 501 274 522 q 234 452 242 480 q 224 392 225 424 l 479 392 z "},"f":{"ha":439,"x_min":17,"x_max":450,"o":"m 450 859 q 449 827 450 839 q 445 809 448 815 q 439 800 442 802 q 431 798 435 798 q 421 800 427 798 q 407 805 415 802 q 387 810 398 808 q 359 812 375 812 q 328 807 341 812 q 306 788 315 801 q 293 756 297 776 q 289 707 289 736 l 289 651 l 399 651 q 411 648 406 651 q 419 636 416 644 q 424 615 422 629 q 426 582 426 602 q 419 529 426 545 q 399 513 412 513 l 289 513 l 289 23 q 285 11 289 16 q 271 3 281 6 q 245 -2 262 -1 q 203 -4 228 -4 q 162 -2 179 -4 q 136 3 146 -1 q 122 11 126 6 q 119 23 119 16 l 119 513 l 43 513 q 23 529 30 513 q 17 582 17 545 q 19 615 17 602 q 23 636 20 629 q 32 648 26 644 q 43 651 37 651 l 119 651 l 119 702 q 131 810 119 764 q 169 887 143 857 q 236 934 195 918 q 331 949 276 949 q 381 945 357 949 q 418 936 405 941 q 437 926 432 930 q 445 913 441 922 q 449 891 448 905 q 450 859 450 878 z "},"ﬀ":{"ha":834,"x_min":17,"x_max":846,"o":"m 846 860 q 841 814 846 827 q 827 800 837 800 q 816 802 822 800 q 802 807 810 804 q 783 812 793 810 q 758 814 772 814 q 701 789 718 814 q 684 709 684 765 l 684 651 l 794 651 q 805 648 800 651 q 814 636 810 644 q 820 615 818 629 q 821 582 821 602 q 814 529 821 545 q 795 513 807 513 l 684 513 l 684 23 q 680 11 684 16 q 666 3 675 6 q 640 -2 656 -1 q 599 -4 623 -4 q 557 -2 574 -4 q 531 3 541 -1 q 517 11 522 6 q 513 23 513 16 l 513 513 l 289 513 l 289 23 q 285 11 289 16 q 271 3 281 6 q 244 -2 261 -1 q 203 -4 228 -4 q 162 -2 179 -4 q 136 3 146 -1 q 122 11 126 6 q 119 23 119 16 l 119 513 l 43 513 q 23 529 30 513 q 17 582 17 545 q 19 615 17 602 q 23 636 20 629 q 32 648 26 644 q 43 651 37 651 l 119 651 l 119 696 q 131 803 119 757 q 170 880 144 849 q 236 926 196 911 q 330 942 275 942 q 383 937 359 942 q 424 926 407 932 q 437 919 432 923 q 445 906 441 914 q 449 884 448 897 q 450 851 450 871 q 446 804 450 818 q 431 791 441 791 q 420 793 427 791 q 406 798 414 795 q 387 803 398 800 q 362 805 376 805 q 306 780 323 805 q 289 699 289 755 l 289 651 l 513 651 l 513 705 q 526 812 513 766 q 565 889 539 859 q 631 936 591 920 q 726 951 671 951 q 779 946 755 951 q 820 935 803 941 q 832 928 827 932 q 840 915 838 923 q 844 893 843 907 q 846 860 846 880 z "},"ﬁ":{"ha":770,"x_min":17,"x_max":696,"o":"m 696 831 q 692 789 696 806 q 677 761 688 772 q 647 746 666 751 q 601 742 629 742 q 554 746 573 742 q 524 761 535 751 q 508 789 513 772 q 504 831 504 806 q 508 873 504 856 q 524 901 513 890 q 554 916 535 911 q 601 921 573 921 q 647 916 629 921 q 677 901 666 911 q 692 873 688 890 q 696 831 696 856 m 684 23 q 680 11 684 16 q 666 3 675 6 q 640 -2 656 -1 q 599 -4 623 -4 q 557 -2 574 -4 q 531 3 541 -1 q 517 11 522 6 q 513 23 513 16 l 513 513 l 289 513 l 289 23 q 285 11 289 16 q 271 3 281 6 q 245 -2 262 -1 q 203 -4 229 -4 q 162 -2 179 -4 q 136 3 146 -1 q 122 11 126 6 q 119 23 119 16 l 119 513 l 43 513 q 23 529 30 513 q 17 582 17 545 q 19 615 17 602 q 23 636 20 629 q 32 648 26 644 q 43 651 37 651 l 119 651 l 119 705 q 131 812 119 766 q 170 889 144 859 q 235 936 195 920 q 328 951 274 951 q 358 949 342 951 q 387 945 373 948 q 410 939 400 943 q 424 932 420 936 q 430 924 428 928 q 434 911 433 919 q 437 892 436 904 q 437 863 437 880 q 434 817 437 830 q 419 804 430 804 q 410 805 415 804 q 398 808 405 806 q 381 812 391 810 q 357 814 372 814 q 305 789 321 814 q 289 709 289 765 l 289 651 l 632 651 q 671 640 658 651 q 684 604 684 629 l 684 23 z "},"ﬃ":{"ha":1165,"x_min":17,"x_max":1093,"o":"m 1093 831 q 1088 789 1093 806 q 1073 761 1084 772 q 1043 746 1061 751 q 996 742 1024 742 q 949 746 968 742 q 919 761 930 751 q 903 789 908 772 q 899 831 899 806 q 903 873 899 856 q 919 901 908 890 q 949 916 930 911 q 996 921 968 921 q 1043 916 1024 921 q 1073 901 1061 911 q 1088 873 1084 890 q 1093 831 1093 856 m 1080 23 q 1076 11 1080 16 q 1062 3 1072 6 q 1036 -2 1052 -1 q 994 -4 1019 -4 q 953 -2 969 -4 q 927 3 937 -1 q 913 11 917 6 q 909 23 909 16 l 909 513 l 684 513 l 684 23 q 680 11 684 16 q 666 3 675 6 q 640 -2 656 -1 q 599 -4 623 -4 q 557 -2 574 -4 q 531 3 541 -1 q 517 11 522 6 q 513 23 513 16 l 513 513 l 289 513 l 289 23 q 285 11 289 16 q 271 3 281 6 q 245 -2 262 -1 q 203 -4 228 -4 q 162 -2 179 -4 q 136 3 146 -1 q 122 11 126 6 q 119 23 119 16 l 119 513 l 43 513 q 23 529 30 513 q 17 582 17 545 q 19 615 17 602 q 23 636 20 629 q 32 648 26 644 q 43 651 37 651 l 119 651 l 119 696 q 131 803 119 757 q 170 880 144 849 q 236 926 196 911 q 330 942 275 942 q 383 937 359 942 q 419 928 406 932 q 437 919 432 923 q 445 906 441 914 q 449 884 448 897 q 450 851 450 871 q 446 804 450 818 q 431 791 441 791 q 420 793 427 791 q 406 798 414 795 q 386 803 397 800 q 361 805 375 805 q 306 780 323 805 q 289 699 289 755 l 289 651 l 513 651 l 513 705 q 526 812 513 766 q 565 889 539 859 q 630 936 591 920 q 723 951 669 951 q 753 949 737 951 q 782 945 769 948 q 806 939 795 943 q 820 932 816 936 q 826 924 823 928 q 830 911 828 919 q 832 892 831 904 q 833 863 833 880 q 829 817 833 830 q 814 804 825 804 q 805 805 810 804 q 793 808 800 806 q 776 812 786 810 q 753 814 766 814 q 700 789 716 814 q 684 709 684 765 l 684 651 l 1027 651 q 1066 640 1053 651 q 1080 604 1080 629 l 1080 23 z "},"ﬂ":{"ha":770,"x_min":17,"x_max":684,"o":"m 684 23 q 680 11 684 16 q 666 3 675 6 q 640 -2 656 -1 q 599 -4 623 -4 q 557 -2 574 -4 q 531 3 541 -1 q 517 11 522 6 q 513 23 513 16 l 513 808 q 508 802 511 804 q 498 800 504 800 q 479 803 491 800 q 452 808 467 806 q 422 811 437 810 q 393 812 408 812 q 342 806 363 812 q 310 788 322 800 q 294 755 298 775 q 289 707 289 734 l 289 651 l 389 651 q 401 648 396 651 q 410 636 406 644 q 415 615 413 629 q 416 582 416 602 q 410 529 416 545 q 390 513 403 513 l 289 513 l 289 23 q 285 11 289 16 q 271 3 281 6 q 245 -2 262 -1 q 203 -4 229 -4 q 162 -2 179 -4 q 136 3 146 -1 q 122 11 126 6 q 119 23 119 16 l 119 513 l 43 513 q 23 529 30 513 q 17 582 17 545 q 19 615 17 602 q 23 636 20 629 q 32 648 26 644 q 43 651 37 651 l 119 651 l 119 703 q 132 811 119 764 q 175 888 146 857 q 250 934 205 919 q 359 949 295 949 q 398 948 377 949 q 438 944 418 947 q 472 939 458 942 q 494 933 486 936 q 507 926 503 930 q 514 916 512 922 q 518 926 515 922 q 529 935 521 931 q 554 942 538 939 q 599 944 571 944 q 640 942 623 944 q 666 936 656 940 q 680 927 675 932 q 684 915 684 922 l 684 23 z "},"ﬄ":{"ha":1165,"x_min":17,"x_max":1080,"o":"m 1080 23 q 1076 11 1080 16 q 1062 3 1072 6 q 1036 -2 1052 -1 q 994 -4 1019 -4 q 953 -2 969 -4 q 927 3 937 -1 q 913 11 917 6 q 909 23 909 16 l 909 810 q 903 804 906 806 q 893 802 899 802 q 874 804 886 802 q 847 809 862 807 q 818 813 832 812 q 789 814 803 814 q 738 808 758 814 q 706 789 718 802 q 689 756 694 777 q 684 709 684 736 l 684 651 l 785 651 q 796 648 791 651 q 805 636 801 644 q 810 615 808 629 q 812 582 812 602 q 805 529 812 545 q 785 513 798 513 l 684 513 l 684 23 q 680 11 684 16 q 666 3 675 6 q 640 -2 656 -1 q 599 -4 623 -4 q 557 -2 574 -4 q 531 3 541 -1 q 517 11 522 6 q 513 23 513 16 l 513 513 l 289 513 l 289 23 q 285 11 289 16 q 271 3 281 6 q 245 -2 262 -1 q 203 -4 228 -4 q 162 -2 179 -4 q 136 3 146 -1 q 122 11 126 6 q 119 23 119 16 l 119 513 l 43 513 q 23 529 30 513 q 17 582 17 545 q 19 615 17 602 q 23 636 20 629 q 32 648 26 644 q 43 651 37 651 l 119 651 l 119 696 q 131 803 119 757 q 170 880 144 849 q 236 926 196 911 q 330 942 275 942 q 383 937 359 942 q 419 927 407 932 q 437 919 432 923 q 445 906 441 914 q 449 884 448 897 q 450 851 450 871 q 446 804 450 818 q 431 791 441 791 q 420 793 427 791 q 406 798 414 795 q 387 803 398 800 q 362 805 376 805 q 306 780 323 805 q 289 699 289 755 l 289 651 l 513 651 l 513 705 q 527 812 513 766 q 571 889 541 859 q 645 936 600 920 q 754 951 690 951 q 793 949 772 951 q 833 946 814 948 q 867 940 852 943 q 890 935 882 937 q 902 927 898 932 q 909 916 907 923 q 913 926 910 922 q 925 935 916 931 q 950 942 934 939 q 994 944 967 944 q 1036 942 1019 944 q 1062 936 1052 940 q 1076 927 1072 932 q 1080 915 1080 922 l 1080 23 z "},"g":{"ha":659,"x_min":18,"x_max":631,"o":"m 631 586 q 623 538 631 553 q 605 522 616 522 l 534 522 q 555 485 549 506 q 562 442 562 465 q 544 348 562 389 q 493 279 526 307 q 414 236 460 251 q 311 222 368 222 q 255 229 281 222 q 214 245 229 236 q 200 224 206 237 q 193 197 193 212 q 211 165 193 178 q 259 151 228 153 l 406 146 q 498 131 458 144 q 566 96 538 119 q 608 41 593 73 q 623 -31 623 9 q 603 -116 623 -76 q 544 -184 583 -155 q 445 -231 505 -214 q 307 -248 386 -248 q 175 -235 229 -248 q 85 -201 120 -223 q 34 -150 50 -180 q 18 -83 18 -119 q 24 -41 18 -61 q 41 -2 30 -20 q 68 34 52 17 q 106 66 85 51 q 61 109 77 82 q 45 168 45 136 q 63 240 45 208 q 111 300 81 273 q 73 357 87 323 q 58 439 58 390 q 77 534 58 492 q 129 605 96 576 q 208 649 162 633 q 310 664 254 664 q 365 661 338 664 q 413 651 391 657 l 605 651 q 624 636 616 651 q 631 586 631 621 m 412 443 q 385 519 412 492 q 308 546 357 546 q 264 537 283 546 q 232 514 245 529 q 214 480 220 500 q 208 440 208 461 q 235 367 208 394 q 310 340 262 340 q 355 349 336 340 q 386 371 374 357 q 405 404 399 385 q 412 443 412 422 m 452 -40 q 427 7 452 -9 q 360 24 403 23 l 239 28 q 211 3 221 15 q 194 -20 200 -9 q 185 -41 187 -31 q 183 -62 183 -51 q 217 -113 183 -96 q 314 -131 252 -131 q 379 -123 353 -131 q 422 -102 406 -115 q 445 -74 438 -90 q 452 -40 452 -58 z "},"ĝ":{"ha":659,"x_min":18,"x_max":631,"o":"m 631 586 q 623 538 631 553 q 605 522 616 522 l 534 522 q 555 485 549 506 q 562 442 562 465 q 544 348 562 389 q 493 279 526 307 q 414 236 460 251 q 311 222 368 222 q 255 229 281 222 q 214 245 229 236 q 200 224 206 237 q 193 197 193 212 q 211 165 193 178 q 259 151 228 153 l 406 146 q 498 131 458 144 q 566 96 538 119 q 608 41 593 73 q 623 -31 623 9 q 603 -116 623 -76 q 544 -184 583 -155 q 445 -231 505 -214 q 307 -248 386 -248 q 175 -235 229 -248 q 85 -201 120 -223 q 34 -150 50 -180 q 18 -83 18 -119 q 24 -41 18 -61 q 41 -2 30 -20 q 68 34 52 17 q 106 66 85 51 q 61 109 77 82 q 45 168 45 136 q 63 240 45 208 q 111 300 81 273 q 73 357 87 323 q 58 439 58 390 q 77 534 58 492 q 129 605 96 576 q 208 649 162 633 q 310 664 254 664 q 365 661 338 664 q 413 651 391 657 l 605 651 q 624 636 616 651 q 631 586 631 621 m 412 443 q 385 519 412 492 q 308 546 357 546 q 264 537 283 546 q 232 514 245 529 q 214 480 220 500 q 208 440 208 461 q 235 367 208 394 q 310 340 262 340 q 355 349 336 340 q 386 371 374 357 q 405 404 399 385 q 412 443 412 422 m 452 -40 q 427 7 452 -9 q 360 24 403 23 l 239 28 q 211 3 221 15 q 194 -20 200 -9 q 185 -41 187 -31 q 183 -62 183 -51 q 217 -113 183 -96 q 314 -131 252 -131 q 379 -123 353 -131 q 422 -102 406 -115 q 445 -74 438 -90 q 452 -40 452 -58 m 259 758 q 250 746 254 751 q 237 739 245 741 q 216 735 229 736 q 183 734 203 734 q 141 737 156 734 q 122 744 127 739 q 121 758 117 749 q 134 779 125 767 l 241 930 q 252 941 245 937 q 269 947 258 945 q 294 951 279 950 q 330 952 309 952 q 367 951 352 952 q 391 947 381 949 q 407 940 401 944 q 418 930 413 936 l 524 779 q 537 758 534 766 q 536 744 541 749 q 516 737 531 739 q 475 734 502 734 q 441 735 454 734 q 421 739 429 736 q 409 746 413 742 q 400 758 405 751 l 330 860 l 259 758 m 51 651 z "},"ğ":{"ha":659,"x_min":18,"x_max":631,"o":"m 631 586 q 623 538 631 553 q 605 522 616 522 l 534 522 q 555 485 549 506 q 562 442 562 465 q 544 348 562 389 q 493 279 526 307 q 414 236 460 251 q 311 222 368 222 q 255 229 281 222 q 214 245 229 236 q 200 224 206 237 q 193 197 193 212 q 211 165 193 178 q 259 151 228 153 l 406 146 q 498 131 458 144 q 566 96 538 119 q 608 41 593 73 q 623 -31 623 9 q 603 -116 623 -76 q 544 -184 583 -155 q 445 -231 505 -214 q 307 -248 386 -248 q 175 -235 229 -248 q 85 -201 120 -223 q 34 -150 50 -180 q 18 -83 18 -119 q 24 -41 18 -61 q 41 -2 30 -20 q 68 34 52 17 q 106 66 85 51 q 61 109 77 82 q 45 168 45 136 q 63 240 45 208 q 111 300 81 273 q 73 357 87 323 q 58 439 58 390 q 77 534 58 492 q 129 605 96 576 q 208 649 162 633 q 310 664 254 664 q 365 661 338 664 q 413 651 391 657 l 605 651 q 624 636 616 651 q 631 586 631 621 m 412 443 q 385 519 412 492 q 308 546 357 546 q 264 537 283 546 q 232 514 245 529 q 214 480 220 500 q 208 440 208 461 q 235 367 208 394 q 310 340 262 340 q 355 349 336 340 q 386 371 374 357 q 405 404 399 385 q 412 443 412 422 m 452 -40 q 427 7 452 -9 q 360 24 403 23 l 239 28 q 211 3 221 15 q 194 -20 200 -9 q 185 -41 187 -31 q 183 -62 183 -51 q 217 -113 183 -96 q 314 -131 252 -131 q 379 -123 353 -131 q 422 -102 406 -115 q 445 -74 438 -90 q 452 -40 452 -58 m 414 923 q 427 943 415 936 q 469 949 439 949 q 498 948 486 949 q 516 944 509 947 q 525 937 522 941 q 527 926 527 932 q 515 845 527 880 q 479 786 503 810 q 417 749 455 762 q 329 736 380 736 q 239 749 276 736 q 178 786 201 762 q 143 845 154 810 q 132 924 132 880 q 143 944 132 938 q 187 949 155 949 q 215 948 204 949 q 233 943 227 947 q 243 935 240 940 q 246 923 245 930 q 253 890 248 905 q 268 865 258 876 q 292 849 277 854 q 329 844 307 844 q 363 848 349 844 q 389 863 378 853 q 406 887 400 873 q 414 923 412 902 m 62 651 z "},"ġ":{"ha":659,"x_min":18,"x_max":631,"o":"m 631 586 q 623 538 631 553 q 605 522 616 522 l 534 522 q 555 485 549 506 q 562 442 562 465 q 544 348 562 389 q 493 279 526 307 q 414 236 460 251 q 311 222 368 222 q 255 229 281 222 q 214 245 229 236 q 200 224 206 237 q 193 197 193 212 q 211 165 193 178 q 259 151 228 153 l 406 146 q 498 131 458 144 q 566 96 538 119 q 608 41 593 73 q 623 -31 623 9 q 603 -116 623 -76 q 544 -184 583 -155 q 445 -231 505 -214 q 307 -248 386 -248 q 175 -235 229 -248 q 85 -201 120 -223 q 34 -150 50 -180 q 18 -83 18 -119 q 24 -41 18 -61 q 41 -2 30 -20 q 68 34 52 17 q 106 66 85 51 q 61 109 77 82 q 45 168 45 136 q 63 240 45 208 q 111 300 81 273 q 73 357 87 323 q 58 439 58 390 q 77 534 58 492 q 129 605 96 576 q 208 649 162 633 q 310 664 254 664 q 365 661 338 664 q 413 651 391 657 l 605 651 q 624 636 616 651 q 631 586 631 621 m 412 443 q 385 519 412 492 q 308 546 357 546 q 264 537 283 546 q 232 514 245 529 q 214 480 220 500 q 208 440 208 461 q 235 367 208 394 q 310 340 262 340 q 355 349 336 340 q 386 371 374 357 q 405 404 399 385 q 412 443 412 422 m 452 -40 q 427 7 452 -9 q 360 24 403 23 l 239 28 q 211 3 221 15 q 194 -20 200 -9 q 185 -41 187 -31 q 183 -62 183 -51 q 217 -113 183 -96 q 314 -131 252 -131 q 379 -123 353 -131 q 422 -102 406 -115 q 445 -74 438 -90 q 452 -40 452 -58 m 425 838 q 405 770 425 789 q 330 751 385 751 q 256 769 276 751 q 237 834 237 788 q 257 902 237 882 q 332 921 277 921 q 405 902 386 921 q 425 838 425 884 m 168 651 z "},"ģ":{"ha":659,"x_min":18,"x_max":631,"o":"m 631 586 q 623 538 631 553 q 605 522 616 522 l 534 522 q 555 485 549 506 q 562 442 562 465 q 544 348 562 389 q 493 279 526 307 q 414 236 460 251 q 311 222 368 222 q 255 229 281 222 q 214 245 229 236 q 200 224 206 237 q 193 197 193 212 q 211 165 193 178 q 259 151 228 153 l 406 146 q 498 131 458 144 q 566 96 538 119 q 608 41 593 73 q 623 -31 623 9 q 603 -116 623 -76 q 544 -184 583 -155 q 445 -231 505 -214 q 307 -248 386 -248 q 175 -235 229 -248 q 85 -201 120 -223 q 34 -150 50 -180 q 18 -83 18 -119 q 24 -41 18 -61 q 41 -2 30 -20 q 68 34 52 17 q 106 66 85 51 q 61 109 77 82 q 45 168 45 136 q 63 240 45 208 q 111 300 81 273 q 73 357 87 323 q 58 439 58 390 q 77 534 58 492 q 129 605 96 576 q 208 649 162 633 q 310 664 254 664 q 365 661 338 664 q 413 651 391 657 l 605 651 q 624 636 616 651 q 631 586 631 621 m 412 443 q 385 519 412 492 q 308 546 357 546 q 264 537 283 546 q 232 514 245 529 q 214 480 220 500 q 208 440 208 461 q 235 367 208 394 q 310 340 262 340 q 355 349 336 340 q 386 371 374 357 q 405 404 399 385 q 412 443 412 422 m 452 -40 q 427 7 452 -9 q 360 24 403 23 l 239 28 q 211 3 221 15 q 194 -20 200 -9 q 185 -41 187 -31 q 183 -62 183 -51 q 217 -113 183 -96 q 314 -131 252 -131 q 379 -123 353 -131 q 422 -102 406 -115 q 445 -74 438 -90 q 452 -40 452 -58 m 401 751 q 394 739 399 744 q 378 730 389 734 q 352 726 368 727 q 311 724 336 724 q 265 727 282 724 q 240 734 248 729 q 232 746 232 739 q 237 761 232 753 l 331 922 q 341 933 335 928 q 356 940 347 937 q 380 944 366 943 q 414 945 394 945 q 446 943 434 945 q 464 937 458 941 q 470 926 469 932 q 467 909 470 919 l 401 751 m 162 651 z "},"h":{"ha":745,"x_min":85,"x_max":663,"o":"m 663 23 q 659 11 663 16 q 646 3 655 6 q 620 -2 636 -1 q 578 -4 603 -4 q 537 -2 553 -4 q 511 3 520 -1 q 497 11 501 6 q 493 23 493 16 l 493 368 q 487 437 493 412 q 468 480 480 463 q 436 508 456 498 q 391 518 417 518 q 326 494 359 518 q 256 425 292 471 l 256 23 q 252 11 256 16 q 238 3 248 6 q 212 -2 229 -1 q 171 -4 196 -4 q 130 -2 146 -4 q 103 3 113 -1 q 90 11 94 6 q 85 23 85 16 l 85 915 q 90 927 85 922 q 103 936 94 932 q 130 942 113 940 q 171 944 146 944 q 212 942 196 944 q 238 936 229 940 q 252 927 248 932 q 256 915 256 922 l 256 581 q 346 645 300 624 q 441 667 392 667 q 546 646 503 667 q 614 591 588 626 q 652 508 640 555 q 663 394 663 461 l 663 23 z "},"ĥ":{"ha":745,"x_min":-66,"x_max":663,"o":"m 663 23 q 659 11 663 16 q 646 3 655 6 q 620 -2 636 -1 q 578 -4 603 -4 q 537 -2 553 -4 q 511 3 520 -1 q 497 11 501 6 q 493 23 493 16 l 493 368 q 487 437 493 412 q 468 480 480 463 q 436 508 456 498 q 391 518 417 518 q 326 494 359 518 q 256 425 292 471 l 256 23 q 252 11 256 16 q 238 3 248 6 q 212 -2 229 -1 q 171 -4 196 -4 q 130 -2 146 -4 q 103 3 113 -1 q 90 11 94 6 q 85 23 85 16 l 85 850 q 90 863 85 857 q 103 872 94 868 q 130 878 113 876 q 171 880 146 880 q 212 878 196 880 q 238 872 229 876 q 252 863 248 868 q 256 850 256 857 l 256 581 q 346 645 300 624 q 441 667 392 667 q 546 646 503 667 q 614 591 588 626 q 652 508 640 555 q 663 394 663 461 l 663 23 m 181 1145 q 217 1145 203 1145 q 242 1141 232 1144 q 261 1133 253 1138 q 278 1118 269 1127 l 412 972 q 423 957 421 963 q 419 946 425 950 q 398 941 413 943 q 361 940 384 940 q 315 941 333 940 q 287 944 298 942 q 271 951 277 947 q 260 961 264 955 l 179 1054 l 97 963 q 85 951 91 956 q 69 945 79 947 q 41 941 58 942 q -4 940 24 940 q -41 942 -27 940 q -60 947 -54 943 q -64 957 -66 951 q -55 972 -63 963 l 77 1118 q 94 1132 85 1126 q 114 1140 102 1137 q 142 1144 126 1143 q 181 1145 158 1145 z "},"ħ":{"ha":760,"x_min":-5,"x_max":678,"o":"m 678 23 q 674 11 678 16 q 661 3 670 6 q 635 -2 651 -1 q 593 -4 618 -4 q 552 -2 568 -4 q 526 3 536 -1 q 512 11 516 6 q 508 23 508 16 l 508 355 q 502 425 508 399 q 483 468 496 450 q 451 496 471 486 q 406 506 432 506 q 341 482 374 506 q 271 413 308 458 l 271 23 q 267 11 271 16 q 253 3 263 6 q 227 -2 243 -1 q 186 -4 211 -4 q 144 -2 161 -4 q 118 3 128 -1 q 105 11 109 6 q 101 23 101 16 l 101 726 l 21 726 q 10 729 15 726 q 2 740 5 732 q -3 760 -1 747 q -5 791 -5 772 q -3 822 -5 810 q 2 841 -1 834 q 11 850 5 848 q 22 852 16 852 l 101 852 l 101 917 q 105 929 101 924 q 118 938 109 935 q 144 944 128 942 q 186 945 161 945 q 227 944 211 945 q 253 938 243 942 q 267 929 263 935 q 271 917 271 924 l 271 852 l 406 852 q 417 850 412 852 q 425 841 422 848 q 430 822 429 834 q 432 791 432 810 q 430 760 432 772 q 425 740 429 747 q 417 729 422 732 q 406 726 412 726 l 270 726 l 270 568 q 360 632 314 610 q 456 654 407 654 q 561 634 519 654 q 630 578 604 614 q 667 497 656 543 q 678 384 678 450 l 678 23 z "},"i":{"ha":341,"x_min":73,"x_max":269,"o":"m 256 23 q 252 11 256 16 q 238 3 248 6 q 212 -2 229 -1 q 171 -4 196 -4 q 130 -2 146 -4 q 103 3 113 -1 q 90 11 94 6 q 85 23 85 16 l 85 627 q 90 638 85 633 q 103 647 94 644 q 130 653 113 651 q 171 655 146 655 q 212 653 196 655 q 238 647 229 651 q 252 638 248 644 q 256 627 256 633 l 256 23 m 269 833 q 248 762 269 781 q 170 742 227 742 q 93 761 113 742 q 73 829 73 780 q 93 901 73 881 q 172 921 114 921 q 249 902 229 921 q 269 833 269 882 z "},"ì":{"ha":341,"x_min":-92,"x_max":257,"o":"m 256 23 q 252 11 256 16 q 238 3 248 6 q 212 -2 229 -1 q 171 -4 196 -4 q 130 -2 146 -4 q 103 3 113 -1 q 90 11 94 6 q 85 23 85 16 l 85 628 q 90 640 85 635 q 103 648 94 645 q 130 653 113 652 q 171 655 146 655 q 212 653 196 655 q 238 648 229 652 q 252 640 248 645 q 256 628 256 635 l 256 23 m 248 770 q 256 754 254 761 q 251 743 257 747 q 232 736 245 739 q 195 734 219 734 q 163 736 176 734 q 141 740 150 737 q 126 747 132 743 q 115 758 121 751 l -16 916 q -23 930 -22 923 q -16 942 -24 937 q 10 949 -8 947 q 60 952 28 952 q 97 951 82 952 q 123 946 113 949 q 139 938 133 943 q 151 925 146 932 l 248 770 m -92 651 z "},"í":{"ha":341,"x_min":18,"x_max":366,"o":"m 256 23 q 252 11 256 16 q 238 3 248 6 q 212 -2 229 -1 q 171 -4 196 -4 q 130 -2 146 -4 q 103 3 113 -1 q 90 11 94 6 q 85 23 85 16 l 85 628 q 90 640 85 635 q 103 648 94 645 q 130 653 113 652 q 171 655 146 655 q 212 653 196 655 q 238 648 229 652 q 252 640 248 645 q 256 628 256 635 l 256 23 m 191 925 q 203 938 196 932 q 220 946 210 943 q 245 951 230 949 q 283 952 261 952 q 333 949 315 952 q 358 942 351 947 q 366 930 366 937 q 359 916 365 923 l 227 758 q 216 747 222 751 q 202 740 211 743 q 181 736 194 737 q 149 734 168 734 q 111 736 125 734 q 92 743 97 739 q 87 754 86 747 q 94 770 88 761 l 191 925 m 18 651 z "},"î":{"ha":341,"x_min":-106,"x_max":383,"o":"m 256 23 q 252 11 256 16 q 238 3 248 6 q 212 -2 229 -1 q 171 -4 196 -4 q 130 -2 146 -4 q 103 3 113 -1 q 90 11 94 6 q 85 23 85 16 l 85 628 q 90 640 85 635 q 103 648 94 645 q 130 653 113 652 q 171 655 146 655 q 212 653 196 655 q 238 648 229 652 q 252 640 248 645 q 256 628 256 635 l 256 23 m 102 758 q 92 746 97 751 q 79 739 87 741 q 59 735 71 736 q 26 734 46 734 q -16 737 -1 734 q -35 744 -31 739 q -36 758 -40 749 q -23 779 -33 767 l 84 930 q 95 941 88 937 q 112 947 101 945 q 137 951 122 950 q 173 952 152 952 q 209 951 195 952 q 234 947 224 949 q 250 940 243 944 q 260 930 256 936 l 367 779 q 380 758 376 766 q 378 744 383 749 q 359 737 374 739 q 318 734 345 734 q 284 735 296 734 q 263 739 271 736 q 252 746 256 742 q 243 758 248 751 l 172 860 l 102 758 m -106 651 z "},"ĩ":{"ha":341,"x_min":-136,"x_max":413,"o":"m 256 23 q 252 11 256 16 q 238 3 248 6 q 212 -2 229 -1 q 171 -4 196 -4 q 130 -2 146 -4 q 103 3 113 -1 q 90 11 94 6 q 85 23 85 16 l 85 628 q 90 640 85 635 q 103 648 94 645 q 130 653 113 652 q 171 655 146 655 q 212 653 196 655 q 238 648 229 652 q 252 640 248 645 q 256 628 256 635 l 256 23 m 413 906 q 374 780 413 824 q 266 736 335 736 q 219 742 239 736 q 182 756 199 747 q 153 775 166 765 q 127 793 140 785 q 103 807 115 802 q 78 813 92 813 q 46 797 56 813 q 37 755 37 781 q 34 746 37 749 q 26 740 32 742 q 10 737 20 738 q -17 736 -1 736 q -41 738 -31 736 q -57 742 -51 739 q -65 750 -62 745 q -68 764 -68 755 q -30 888 -68 843 q 79 933 8 933 q 144 921 117 933 q 192 895 171 909 q 230 868 212 880 q 267 857 248 857 q 298 871 287 857 q 309 914 309 886 q 319 929 309 926 q 360 933 329 933 q 402 928 391 933 q 413 906 413 923 m -136 651 z "},"ï":{"ha":341,"x_min":-94,"x_max":368,"o":"m 256 23 q 252 11 256 16 q 238 3 248 6 q 212 -2 229 -1 q 171 -4 196 -4 q 130 -2 146 -4 q 103 3 113 -1 q 90 11 94 6 q 85 23 85 16 l 85 628 q 90 640 85 635 q 103 648 94 645 q 130 653 113 652 q 171 655 146 655 q 212 653 196 655 q 238 648 229 652 q 252 640 248 645 q 256 628 256 635 l 256 23 m 140 832 q 123 766 140 785 q 58 747 105 747 q -7 765 9 747 q -24 829 -24 783 q -7 896 -24 877 q 58 914 11 914 q 123 896 106 914 q 140 832 140 878 m 368 832 q 351 766 368 785 q 286 747 333 747 q 221 765 237 747 q 204 829 204 783 q 221 896 204 877 q 286 914 239 914 q 351 896 334 914 q 368 832 368 878 m -94 651 z "},"ī":{"ha":341,"x_min":-100,"x_max":373,"o":"m 256 23 q 252 11 256 16 q 238 3 248 6 q 212 -2 229 -1 q 171 -4 196 -4 q 130 -2 146 -4 q 103 3 113 -1 q 90 11 94 6 q 85 23 85 16 l 85 628 q 90 640 85 635 q 103 648 94 645 q 130 653 113 652 q 171 655 146 655 q 212 653 196 655 q 238 648 229 652 q 252 640 248 645 q 256 628 256 635 l 256 23 m 345 897 q 358 894 353 897 q 367 884 363 891 q 371 864 370 876 q 373 835 373 852 q 371 806 373 817 q 367 787 370 794 q 358 776 363 779 q 345 773 353 773 l -1 773 q -15 776 -9 773 q -24 787 -20 779 q -29 806 -27 794 q -31 835 -31 817 q -29 864 -31 852 q -24 883 -27 876 q -15 894 -20 890 q -1 897 -9 897 l 345 897 m -100 651 z "},"ĭ":{"ha":341,"x_min":-96,"x_max":369,"o":"m 256 23 q 252 11 256 16 q 238 3 248 6 q 212 -2 229 -1 q 171 -4 196 -4 q 130 -2 146 -4 q 103 3 113 -1 q 90 11 94 6 q 85 23 85 16 l 85 628 q 90 640 85 635 q 103 648 94 645 q 130 653 113 652 q 171 655 146 655 q 212 653 196 655 q 238 648 229 652 q 252 640 248 645 q 256 628 256 635 l 256 23 m 256 923 q 269 943 257 936 q 311 949 281 949 q 340 948 328 949 q 358 944 351 947 q 367 937 364 941 q 369 926 369 932 q 357 845 369 880 q 321 786 345 810 q 259 749 297 762 q 171 736 222 736 q 81 749 118 736 q 20 786 43 762 q -15 845 -4 810 q -26 924 -26 880 q -15 944 -26 938 q 29 949 -3 949 q 57 948 46 949 q 75 943 68 947 q 85 935 82 940 q 88 923 87 930 q 95 890 90 905 q 110 865 100 876 q 134 849 119 854 q 171 844 149 844 q 205 848 191 844 q 231 863 220 853 q 248 887 242 873 q 256 923 254 902 m -96 651 z "}}}
